<svg width="2000px" height="1423px"
 viewBox="0.00 0.00 1065.39 757.82" xmlns="http://www.w3.org/2000/svg" xmlns:xlink="http://www.w3.org/1999/xlink">
<g id="graph0" class="graph" transform="scale(1.0 1.0) rotate(0) translate(4 753.82)">
<title>ContextMapGraph</title>
<polygon fill="white" stroke="transparent" points="-4,4 -4,-753.82 1061.39,-753.82 1061.39,4 -4,4"/>
<!-- AuthContext -->
<g id="node1" class="node">
<title>AuthContext</title>
<polygon fill="none" stroke="black" stroke-width="2" points="84.32,-710.66 82.77,-707.86 81.52,-705.05 80.56,-702.24 79.9,-699.45 79.54,-696.69 79.49,-693.95 79.76,-691.27 80.33,-688.64 81.21,-686.07 82.4,-683.58 83.9,-681.18 85.71,-678.86 87.81,-676.64 90.21,-674.52 92.9,-672.51 95.87,-670.62 99.11,-668.84 102.61,-667.19 106.37,-665.67 110.36,-664.27 114.58,-663 119.02,-661.87 123.65,-660.86 128.47,-659.99 133.45,-659.24 138.59,-658.62 143.86,-658.13 149.25,-657.76 154.74,-657.52 160.32,-657.39 165.95,-657.37 171.63,-657.47 177.34,-657.67 183.06,-657.98 188.77,-658.38 194.46,-658.88 200.1,-659.47 205.67,-660.15 211.17,-660.91 216.57,-661.74 221.86,-662.66 227.02,-663.64 232.04,-664.68 236.9,-665.8 241.6,-666.97 246.11,-668.2 250.43,-669.49 254.55,-670.83 258.45,-672.22 262.12,-673.66 265.57,-675.14 268.77,-676.67 271.73,-678.25 274.44,-679.87 276.89,-681.53 279.07,-683.24 281,-684.98 282.65,-686.76 284.04,-688.58 285.16,-690.44 286.01,-692.33 286.59,-694.25 286.9,-696.21 286.95,-698.2 286.74,-700.21 286.26,-702.25 285.52,-704.32 284.54,-706.4 283.3,-708.5 281.82,-710.62 280.1,-712.74 278.15,-714.87 275.97,-716.99 273.57,-719.11 270.96,-721.21 268.13,-723.3 265.11,-725.36 261.9,-727.39 258.5,-729.37 254.92,-731.32 251.17,-733.21 247.26,-735.03 243.2,-736.79 239,-738.47 234.66,-740.06 230.2,-741.56 225.62,-742.96 220.93,-744.25 216.15,-745.43 211.28,-746.48 206.34,-747.4 201.33,-748.19 196.26,-748.83 191.16,-749.33 186.02,-749.67 180.86,-749.86 175.7,-749.89 170.54,-749.76 165.4,-749.47 160.28,-749.01 155.21,-748.39 150.2,-747.6 145.25,-746.65 140.39,-745.53 135.62,-744.26 130.96,-742.84 126.42,-741.27 122.02,-739.55 117.76,-737.7 113.67,-735.71 109.75,-733.6 106.02,-731.38 102.49,-729.06 99.17,-726.63 96.08,-724.12 93.21,-721.54 90.6,-718.89 88.24,-716.18 86.14,-713.43 84.32,-710.66"/>
<text text-anchor="middle" x="185.27" y="-697.44" font-family="sans-serif" font-size="16.00">AuthContext</text>
</g>
<!-- ConversationContext -->
<g id="node2" class="node">
<title>ConversationContext</title>
<polygon fill="none" stroke="black" stroke-width="2" points="242.51,-458.06 233.96,-459.51 225.25,-460.84 216.43,-462.05 207.53,-463.13 198.58,-464.09 189.61,-464.9 180.66,-465.58 171.76,-466.12 162.94,-466.51 154.23,-466.75 145.66,-466.85 137.26,-466.79 129.05,-466.58 121.06,-466.22 113.3,-465.72 105.8,-465.06 98.57,-464.26 91.64,-463.32 85.01,-462.23 78.7,-461.02 72.72,-459.67 67.08,-458.2 61.78,-456.6 56.84,-454.9 52.25,-453.09 48.01,-451.18 44.14,-449.17 40.62,-447.09 37.45,-444.92 34.64,-442.69 32.18,-440.4 30.06,-438.06 28.29,-435.67 26.84,-433.26 25.73,-430.81 24.94,-428.35 24.47,-425.89 24.3,-423.42 24.44,-420.96 24.88,-418.52 25.61,-416.1 26.63,-413.71 27.93,-411.36 29.51,-409.05 31.35,-406.8 33.47,-404.6 35.85,-402.47 38.5,-400.4 41.4,-398.41 44.56,-396.49 47.98,-394.65 51.65,-392.9 55.57,-391.23 59.74,-389.66 64.16,-388.18 68.83,-386.79 73.74,-385.49 78.9,-384.3 84.29,-383.2 89.92,-382.2 95.78,-381.31 101.87,-380.51 108.17,-379.81 114.7,-379.21 121.42,-378.71 128.35,-378.3 135.46,-378 142.74,-377.79 150.18,-377.68 157.77,-377.67 165.49,-377.74 173.32,-377.92 181.24,-378.18 189.24,-378.54 197.29,-378.99 205.36,-379.53 213.43,-380.16 221.49,-380.87 229.49,-381.68 237.42,-382.57 245.24,-383.54 252.92,-384.6 260.44,-385.74 267.77,-386.96 274.87,-388.26 281.72,-389.64 288.29,-391.09 294.55,-392.62 300.46,-394.23 306.01,-395.9 311.16,-397.64 315.89,-399.45 320.18,-401.33 324,-403.26 327.34,-405.25 330.18,-407.29 332.49,-409.39 334.27,-411.53 335.51,-413.71 336.19,-415.92 336.3,-418.17 335.86,-420.44 334.85,-422.73 333.27,-425.04 331.14,-427.35 328.45,-429.66 325.21,-431.97 321.45,-434.26 317.17,-436.54 312.39,-438.79 307.14,-441 301.42,-443.16 295.27,-445.28 288.72,-447.34 281.79,-449.34 274.51,-451.26 266.9,-453.1 259.01,-454.85 250.87,-456.5 242.51,-458.06"/>
<text text-anchor="middle" x="168.27" y="-415.91" font-family="sans-serif" font-size="16.00">ConversationContext</text>
</g>
<!-- AuthContext&#45;&gt;ConversationContext -->
<g id="edge1" class="edge">
<title>AuthContext&#45;&gt;ConversationContext</title>
<path fill="none" stroke="black" stroke-width="2" d="M181.42,-657.47C179.99,-640.7 178.43,-621.29 177.27,-603.66 174.18,-556.86 171.66,-503.25 170.08,-466.22"/>
<text text-anchor="middle" x="252.77" y="-556.62" font-family="sans-serif" font-size="12.00"> &#160;&#160;&#160;&#160;&#160;&#160;&#160;&#160;&#160;&#160;&#160;&#160;&#160;&#160;&#160;&#160;&#160;&#160;&#160;&#160;&#160;&#160;&#160;&#160;&#160;&#160;&#160;&#160;&#160;&#160;&#160;&#160;&#160;&#160;&#160;&#160;&#160;&#160;&#160;</text>
<polygon fill="white" stroke="transparent" points="147.08,-456.22 147.08,-475.22 163.08,-475.22 163.08,-456.22 147.08,-456.22"/>
<polyline fill="none" stroke="black" points="163.08,-456.22 163.08,-475.22 "/>
<text text-anchor="start" x="150.08" y="-462.62" font-family="sans-serif" font-size="12.00">D</text>
<polygon fill="white" stroke="transparent" points="163.08,-456.22 163.08,-475.22 193.08,-475.22 193.08,-456.22 163.08,-456.22"/>
<polygon fill="none" stroke="black" points="163.08,-456.22 163.08,-475.22 193.08,-475.22 193.08,-456.22 163.08,-456.22"/>
<text text-anchor="start" x="166.08" y="-462.62" font-family="sans-serif" font-size="12.00">ACL</text>
<polygon fill="white" stroke="transparent" points="146.42,-647.47 146.42,-666.47 162.42,-666.47 162.42,-647.47 146.42,-647.47"/>
<polyline fill="none" stroke="black" points="162.42,-647.47 162.42,-666.47 "/>
<text text-anchor="start" x="149.42" y="-653.87" font-family="sans-serif" font-size="12.00">U</text>
<polygon fill="white" stroke="transparent" points="162.42,-647.47 162.42,-666.47 217.42,-666.47 217.42,-647.47 162.42,-647.47"/>
<polygon fill="none" stroke="black" points="162.42,-647.47 162.42,-666.47 217.42,-666.47 217.42,-647.47 162.42,-647.47"/>
<text text-anchor="start" x="165.42" y="-653.87" font-family="sans-serif" font-size="12.00">OHS, PL</text>
</g>
<!-- PaymentContext -->
<g id="node5" class="node">
<title>PaymentContext</title>
<polygon fill="none" stroke="black" stroke-width="2" points="496.55,-516.6 504.67,-517.09 512.67,-517.69 520.53,-518.41 528.21,-519.24 535.67,-520.18 542.9,-521.22 549.86,-522.37 556.52,-523.62 562.86,-524.96 568.86,-526.4 574.5,-527.92 579.75,-529.53 584.61,-531.22 589.05,-532.98 593.06,-534.82 596.64,-536.71 599.77,-538.67 602.45,-540.68 604.69,-542.74 606.47,-544.85 607.8,-546.99 608.68,-549.17 609.13,-551.37 609.14,-553.59 608.73,-555.83 607.91,-558.08 606.7,-560.33 605.1,-562.58 603.13,-564.83 600.81,-567.05 598.17,-569.26 595.2,-571.45 591.94,-573.6 588.41,-575.71 584.62,-577.79 580.59,-579.81 576.35,-581.79 571.91,-583.7 567.29,-585.55 562.51,-587.34 557.59,-589.05 552.54,-590.69 547.38,-592.24 542.13,-593.71 536.8,-595.09 531.4,-596.37 525.95,-597.56 520.45,-598.64 514.93,-599.63 509.38,-600.5 503.82,-601.27 498.25,-601.92 492.68,-602.47 487.12,-602.89 481.57,-603.2 476.04,-603.39 470.52,-603.47 465.03,-603.42 459.57,-603.25 454.14,-602.97 448.75,-602.56 443.4,-602.04 438.09,-601.4 432.82,-600.64 427.61,-599.77 422.45,-598.79 417.36,-597.7 412.33,-596.5 407.38,-595.2 402.51,-593.8 397.73,-592.3 393.06,-590.71 388.5,-589.03 384.06,-587.27 379.75,-585.43 375.6,-583.51 371.6,-581.53 367.79,-579.48 364.16,-577.38 360.74,-575.22 357.55,-573.02 354.59,-570.78 351.9,-568.51 349.47,-566.21 347.34,-563.9 345.51,-561.57 344,-559.23 342.83,-556.9 342.01,-554.57 341.56,-552.26 341.49,-549.97 341.8,-547.71 342.52,-545.48 343.64,-543.29 345.17,-541.15 347.13,-539.06 349.51,-537.03 352.32,-535.06 355.54,-533.17 359.19,-531.35 363.25,-529.61 367.72,-527.96 372.59,-526.39 377.84,-524.93 383.46,-523.56 389.44,-522.29 395.75,-521.13 402.38,-520.08 409.3,-519.14 416.48,-518.31 423.91,-517.6 431.54,-517.01 439.37,-516.54 447.34,-516.18 455.43,-515.95 463.62,-515.84 471.85,-515.85 480.11,-515.98 488.36,-516.23 496.55,-516.6"/>
<text text-anchor="middle" x="473.27" y="-555.92" font-family="sans-serif" font-size="16.00">PaymentContext</text>
</g>
<!-- AuthContext&#45;&gt;PaymentContext -->
<g id="edge2" class="edge">
<title>AuthContext&#45;&gt;PaymentContext</title>
<path fill="none" stroke="black" stroke-width="2" d="M238.55,-666.13C262.44,-651.53 291.28,-634.84 318.27,-621.66 341.52,-610.31 367.46,-599.45 391.37,-590.12"/>
<text text-anchor="middle" x="393.77" y="-625.06" font-family="sans-serif" font-size="12.00"> &#160;&#160;&#160;&#160;&#160;&#160;&#160;&#160;&#160;&#160;&#160;&#160;&#160;&#160;&#160;&#160;&#160;&#160;&#160;&#160;&#160;&#160;&#160;&#160;&#160;&#160;&#160;&#160;&#160;&#160;&#160;&#160;&#160;&#160;&#160;&#160;&#160;&#160;&#160;</text>
<polygon fill="white" stroke="transparent" points="368.37,-580.12 368.37,-599.12 384.37,-599.12 384.37,-580.12 368.37,-580.12"/>
<polyline fill="none" stroke="black" points="384.37,-580.12 384.37,-599.12 "/>
<text text-anchor="start" x="371.37" y="-586.52" font-family="sans-serif" font-size="12.00">D</text>
<polygon fill="white" stroke="transparent" points="384.37,-580.12 384.37,-599.12 414.37,-599.12 414.37,-580.12 384.37,-580.12"/>
<polygon fill="none" stroke="black" points="384.37,-580.12 384.37,-599.12 414.37,-599.12 414.37,-580.12 384.37,-580.12"/>
<text text-anchor="start" x="387.37" y="-586.52" font-family="sans-serif" font-size="12.00">ACL</text>
<polygon fill="white" stroke="transparent" points="203.55,-656.13 203.55,-675.13 219.55,-675.13 219.55,-656.13 203.55,-656.13"/>
<polyline fill="none" stroke="black" points="219.55,-656.13 219.55,-675.13 "/>
<text text-anchor="start" x="206.55" y="-662.53" font-family="sans-serif" font-size="12.00">U</text>
<polygon fill="white" stroke="transparent" points="219.55,-656.13 219.55,-675.13 274.55,-675.13 274.55,-656.13 219.55,-656.13"/>
<polygon fill="none" stroke="black" points="219.55,-656.13 219.55,-675.13 274.55,-675.13 274.55,-656.13 219.55,-656.13"/>
<text text-anchor="start" x="222.55" y="-662.53" font-family="sans-serif" font-size="12.00">OHS, PL</text>
</g>
<!-- ChatbotAndVoiceContext -->
<g id="node3" class="node">
<title>ChatbotAndVoiceContext</title>
<polygon fill="none" stroke="black" stroke-width="2" points="320.26,-68.93 314.87,-66.41 309.94,-63.85 305.5,-61.26 301.55,-58.65 298.13,-56.03 295.25,-53.41 292.92,-50.81 291.15,-48.22 289.96,-45.66 289.34,-43.13 289.32,-40.65 289.88,-38.23 291.04,-35.86 292.78,-33.57 295.1,-31.34 298,-29.2 301.47,-27.14 305.49,-25.17 310.05,-23.29 315.13,-21.51 320.71,-19.83 326.78,-18.25 333.3,-16.78 340.26,-15.41 347.63,-14.14 355.37,-12.99 363.47,-11.94 371.89,-10.99 380.59,-10.15 389.55,-9.42 398.73,-8.79 408.1,-8.26 417.62,-7.83 427.26,-7.5 437,-7.26 446.78,-7.12 456.58,-7.06 466.37,-7.1 476.12,-7.23 485.78,-7.44 495.35,-7.74 504.78,-8.11 514.04,-8.57 523.12,-9.1 531.98,-9.72 540.6,-10.4 548.97,-11.17 557.06,-12 564.85,-12.91 572.32,-13.89 579.47,-14.94 586.27,-16.06 592.71,-17.25 598.79,-18.51 604.49,-19.84 609.81,-21.24 614.73,-22.7 619.26,-24.23 623.4,-25.83 627.13,-27.49 630.45,-29.21 633.38,-31 635.9,-32.84 638.02,-34.75 639.73,-36.71 641.05,-38.72 641.97,-40.79 642.5,-42.9 642.64,-45.05 642.39,-47.25 641.77,-49.47 640.77,-51.73 639.39,-54.01 637.65,-56.31 635.55,-58.61 633.08,-60.93 630.27,-63.24 627.11,-65.54 623.6,-67.82 619.76,-70.08 615.59,-72.31 611.09,-74.49 606.27,-76.62 601.13,-78.7 595.69,-80.71 589.95,-82.64 583.92,-84.48 577.6,-86.24 571,-87.89 564.14,-89.43 557.02,-90.86 549.65,-92.17 542.06,-93.34 534.24,-94.38 526.21,-95.27 518,-96.02 509.6,-96.62 501.05,-97.06 492.36,-97.34 483.55,-97.46 474.64,-97.41 465.65,-97.21 456.6,-96.83 447.53,-96.3 438.44,-95.6 429.38,-94.74 420.36,-93.73 411.42,-92.56 402.58,-91.25 393.86,-89.79 385.31,-88.19 376.94,-86.47 368.79,-84.62 360.89,-82.65 353.26,-80.58 345.94,-78.41 338.95,-76.15 332.33,-73.81 326.09,-71.4 320.26,-68.93"/>
<text text-anchor="middle" x="475.27" y="-45.02" font-family="sans-serif" font-size="16.00">ChatbotAndVoiceContext</text>
</g>
<!-- ConversationContext&#45;&gt;ChatbotAndVoiceContext -->
<g id="edge3" class="edge">
<title>ConversationContext&#45;&gt;ChatbotAndVoiceContext</title>
<path fill="none" stroke="black" stroke-width="2" d="M143.68,-377.71C112.69,-320.1 69.36,-214.65 121.27,-146.64 147.02,-112.89 241.88,-88.05 326.92,-71.98"/>
<text text-anchor="middle" x="155.77" y="-191.97" font-family="sans-serif" font-size="12.00">Partnership</text>
</g>
<!-- LiveKitServer -->
<g id="node4" class="node">
<title>LiveKitServer</title>
<polygon fill="none" stroke="black" stroke-width="2" points="390.23,-226.97 385.18,-228.96 379.97,-230.86 374.59,-232.65 369.09,-234.33 363.48,-235.88 357.77,-237.3 352,-238.58 346.17,-239.72 340.31,-240.72 334.45,-241.56 328.59,-242.25 322.75,-242.79 316.96,-243.16 311.23,-243.38 305.57,-243.43 300.01,-243.32 294.55,-243.05 289.2,-242.63 283.98,-242.04 278.91,-241.31 273.98,-240.42 269.21,-239.39 264.62,-238.22 260.19,-236.92 255.95,-235.49 251.89,-233.94 248.03,-232.27 244.37,-230.5 240.9,-228.63 237.64,-226.66 234.58,-224.62 231.73,-222.5 229.09,-220.32 226.67,-218.08 224.45,-215.8 222.45,-213.47 220.66,-211.12 219.09,-208.74 217.73,-206.35 216.58,-203.96 215.65,-201.57 214.94,-199.18 214.44,-196.82 214.17,-194.48 214.11,-192.17 214.27,-189.89 214.65,-187.66 215.25,-185.48 216.07,-183.34 217.12,-181.27 218.39,-179.25 219.88,-177.3 221.6,-175.41 223.55,-173.59 225.72,-171.85 228.12,-170.18 230.75,-168.58 233.6,-167.07 236.67,-165.63 239.96,-164.27 243.48,-162.99 247.21,-161.79 251.15,-160.67 255.29,-159.63 259.64,-158.67 264.18,-157.8 268.91,-157.01 273.81,-156.29 278.88,-155.67 284.11,-155.12 289.49,-154.66 295,-154.27 300.62,-153.98 306.36,-153.76 312.18,-153.63 318.07,-153.59 324.01,-153.63 330,-153.76 336,-153.98 341.99,-154.28 347.97,-154.67 353.9,-155.16 359.77,-155.73 365.55,-156.4 371.22,-157.16 376.77,-158.01 382.16,-158.96 387.39,-160 392.42,-161.14 397.24,-162.37 401.83,-163.7 406.17,-165.12 410.24,-166.63 414.02,-168.23 417.51,-169.92 420.67,-171.7 423.51,-173.57 426.01,-175.51 428.15,-177.53 429.93,-179.63 431.35,-181.8 432.38,-184.02 433.04,-186.31 433.32,-188.65 433.22,-191.04 432.73,-193.47 431.87,-195.93 430.63,-198.41 429.02,-200.91 427.05,-203.42 424.73,-205.93 422.07,-208.43 419.09,-210.91 415.78,-213.36 412.18,-215.77 408.29,-218.14 404.13,-220.45 399.72,-222.7 395.08,-224.88 390.23,-226.97"/>
<text text-anchor="middle" x="316.27" y="-191.27" font-family="sans-serif" font-size="16.00">LiveKitServer</text>
</g>
<!-- ConversationContext&#45;&gt;LiveKitServer -->
<g id="edge4" class="edge">
<title>ConversationContext&#45;&gt;LiveKitServer</title>
<path fill="none" stroke="black" stroke-width="2" d="M155.11,-377.43C146.96,-343.48 141.83,-295.59 164.27,-261.5 172.88,-248.42 201.71,-234.62 231.99,-223.08"/>
<text text-anchor="middle" x="239.77" y="-304.97" font-family="sans-serif" font-size="12.00"> &#160;&#160;&#160;&#160;&#160;&#160;&#160;&#160;&#160;&#160;&#160;&#160;&#160;&#160;&#160;&#160;&#160;&#160;&#160;&#160;&#160;&#160;&#160;&#160;&#160;&#160;&#160;&#160;&#160;&#160;&#160;&#160;&#160;&#160;&#160;&#160;&#160;&#160;&#160;</text>
<polygon fill="white" stroke="transparent" points="212.99,-213.08 212.99,-232.08 228.99,-232.08 228.99,-213.08 212.99,-213.08"/>
<polyline fill="none" stroke="black" points="228.99,-213.08 228.99,-232.08 "/>
<text text-anchor="start" x="215.99" y="-219.48" font-family="sans-serif" font-size="12.00">D</text>
<polygon fill="white" stroke="transparent" points="228.99,-213.08 228.99,-232.08 250.99,-232.08 250.99,-213.08 228.99,-213.08"/>
<polygon fill="none" stroke="black" points="228.99,-213.08 228.99,-232.08 250.99,-232.08 250.99,-213.08 228.99,-213.08"/>
<text text-anchor="start" x="231.99" y="-219.48" font-family="sans-serif" font-size="12.00">CF</text>
<polygon fill="white" stroke="transparent" points="148.11,-368.43 148.11,-385.43 162.11,-385.43 162.11,-368.43 148.11,-368.43"/>
<text text-anchor="start" x="150.11" y="-373.83" font-family="sans-serif" font-size="12.00">U</text>
</g>
<!-- LiveKitServer&#45;&gt;ChatbotAndVoiceContext -->
<g id="edge5" class="edge">
<title>LiveKitServer&#45;&gt;ChatbotAndVoiceContext</title>
<path fill="none" stroke="black" stroke-width="2" d="M303.6,-153.57C301.9,-140.52 302.84,-126.6 310.27,-115.64 320.48,-100.57 334.74,-88.96 350.66,-80"/>
<text text-anchor="middle" x="385.77" y="-119.04" font-family="sans-serif" font-size="12.00"> &#160;&#160;&#160;&#160;&#160;&#160;&#160;&#160;&#160;&#160;&#160;&#160;&#160;&#160;&#160;&#160;&#160;&#160;&#160;&#160;&#160;&#160;&#160;&#160;&#160;&#160;&#160;&#160;&#160;&#160;&#160;&#160;&#160;&#160;&#160;&#160;&#160;&#160;&#160;</text>
<polygon fill="white" stroke="transparent" points="331.66,-70 331.66,-89 347.66,-89 347.66,-70 331.66,-70"/>
<polyline fill="none" stroke="black" points="347.66,-70 347.66,-89 "/>
<text text-anchor="start" x="334.66" y="-76.4" font-family="sans-serif" font-size="12.00">D</text>
<polygon fill="white" stroke="transparent" points="347.66,-70 347.66,-89 369.66,-89 369.66,-70 347.66,-70"/>
<polygon fill="none" stroke="black" points="347.66,-70 347.66,-89 369.66,-89 369.66,-70 347.66,-70"/>
<text text-anchor="start" x="350.66" y="-76.4" font-family="sans-serif" font-size="12.00">CF</text>
<polygon fill="white" stroke="transparent" points="296.6,-144.57 296.6,-161.57 310.6,-161.57 310.6,-144.57 296.6,-144.57"/>
<text text-anchor="start" x="298.6" y="-149.97" font-family="sans-serif" font-size="12.00">U</text>
</g>
<!-- PaymentContext&#45;&gt;ConversationContext -->
<g id="edge6" class="edge">
<title>PaymentContext&#45;&gt;ConversationContext</title>
<path fill="none" stroke="black" stroke-width="2" d="M371.97,-526.34C348.43,-517.85 323.7,-508.14 301.27,-497.78 277.65,-486.87 252.73,-473.09 230.92,-460.21"/>
<text text-anchor="middle" x="376.77" y="-488.18" font-family="sans-serif" font-size="12.00"> &#160;&#160;&#160;&#160;&#160;&#160;&#160;&#160;&#160;&#160;&#160;&#160;&#160;&#160;&#160;&#160;&#160;&#160;&#160;&#160;&#160;&#160;&#160;&#160;&#160;&#160;&#160;&#160;&#160;&#160;&#160;&#160;&#160;&#160;&#160;&#160;&#160;&#160;&#160;</text>
<polygon fill="white" stroke="transparent" points="207.92,-450.21 207.92,-469.21 223.92,-469.21 223.92,-450.21 207.92,-450.21"/>
<polyline fill="none" stroke="black" points="223.92,-450.21 223.92,-469.21 "/>
<text text-anchor="start" x="210.92" y="-456.61" font-family="sans-serif" font-size="12.00">D</text>
<polygon fill="white" stroke="transparent" points="223.92,-450.21 223.92,-469.21 253.92,-469.21 253.92,-450.21 223.92,-450.21"/>
<polygon fill="none" stroke="black" points="223.92,-450.21 223.92,-469.21 253.92,-469.21 253.92,-450.21 223.92,-450.21"/>
<text text-anchor="start" x="226.92" y="-456.61" font-family="sans-serif" font-size="12.00">ACL</text>
<polygon fill="white" stroke="transparent" points="364.97,-517.34 364.97,-534.34 378.97,-534.34 378.97,-517.34 364.97,-517.34"/>
<text text-anchor="start" x="366.97" y="-522.74" font-family="sans-serif" font-size="12.00">U</text>
</g>
<!-- DocumentContext -->
<g id="node6" class="node">
<title>DocumentContext</title>
<polygon fill="none" stroke="black" stroke-width="2" points="417.3,-268.31 425.23,-267.04 433.28,-265.89 441.4,-264.86 449.58,-263.96 457.76,-263.19 465.94,-262.55 474.06,-262.06 482.11,-261.7 490.06,-261.49 497.88,-261.42 505.54,-261.5 513.02,-261.73 520.3,-262.11 527.35,-262.63 534.16,-263.29 540.71,-264.09 546.98,-265.04 552.96,-266.12 558.64,-267.34 564,-268.68 569.05,-270.15 573.76,-271.73 578.14,-273.43 582.19,-275.23 585.89,-277.13 589.26,-279.12 592.28,-281.2 594.97,-283.35 597.33,-285.57 599.36,-287.86 601.06,-290.19 602.45,-292.57 603.52,-294.99 604.29,-297.43 604.76,-299.89 604.93,-302.36 604.82,-304.83 604.44,-307.29 603.79,-309.75 602.87,-312.17 601.7,-314.57 600.28,-316.94 598.62,-319.25 596.72,-321.52 594.59,-323.73 592.23,-325.88 589.64,-327.97 586.84,-329.97 583.82,-331.91 580.59,-333.75 577.15,-335.52 573.5,-337.19 569.65,-338.77 565.59,-340.26 561.33,-341.65 556.87,-342.94 552.21,-344.13 547.36,-345.22 542.32,-346.2 537.08,-347.09 531.66,-347.86 526.07,-348.54 520.29,-349.11 514.35,-349.58 508.24,-349.94 501.98,-350.2 495.57,-350.36 489.04,-350.42 482.37,-350.38 475.6,-350.24 468.74,-350 461.79,-349.67 454.78,-349.25 447.73,-348.73 440.65,-348.12 433.57,-347.41 426.5,-346.62 419.48,-345.75 412.51,-344.78 405.63,-343.74 398.87,-342.61 392.24,-341.4 385.78,-340.11 379.51,-338.74 373.45,-337.3 367.64,-335.78 362.1,-334.2 356.85,-332.54 351.92,-330.82 347.33,-329.04 343.11,-327.2 339.28,-325.3 335.86,-323.34 332.86,-321.33 330.31,-319.28 328.22,-317.18 326.61,-315.05 325.48,-312.88 324.85,-310.68 324.72,-308.45 325.09,-306.21 325.98,-303.95 327.37,-301.69 329.27,-299.42 331.67,-297.15 334.57,-294.9 337.95,-292.66 341.8,-290.45 346.1,-288.27 350.84,-286.12 356,-284.02 361.57,-281.98 367.5,-279.99 373.79,-278.07 380.4,-276.22 387.3,-274.45 394.48,-272.77 401.89,-271.18 409.51,-269.69 417.3,-268.31"/>
<text text-anchor="middle" x="475.27" y="-304.27" font-family="sans-serif" font-size="16.00">DocumentContext</text>
</g>
<!-- PaymentContext&#45;&gt;DocumentContext -->
<g id="edge7" class="edge">
<title>PaymentContext&#45;&gt;DocumentContext</title>
<path fill="none" stroke="black" stroke-width="2" d="M473.61,-515.8C473.98,-469.52 474.57,-396.34 474.94,-350.6"/>
<text text-anchor="middle" x="549.77" y="-488.18" font-family="sans-serif" font-size="12.00"> &#160;&#160;&#160;&#160;&#160;&#160;&#160;&#160;&#160;&#160;&#160;&#160;&#160;&#160;&#160;&#160;&#160;&#160;&#160;&#160;&#160;&#160;&#160;&#160;&#160;&#160;&#160;&#160;&#160;&#160;&#160;&#160;&#160;&#160;&#160;&#160;&#160;&#160;&#160;</text>
<polygon fill="white" stroke="transparent" points="451.94,-340.6 451.94,-359.6 467.94,-359.6 467.94,-340.6 451.94,-340.6"/>
<polyline fill="none" stroke="black" points="467.94,-340.6 467.94,-359.6 "/>
<text text-anchor="start" x="454.94" y="-347" font-family="sans-serif" font-size="12.00">D</text>
<polygon fill="white" stroke="transparent" points="467.94,-340.6 467.94,-359.6 497.94,-359.6 497.94,-340.6 467.94,-340.6"/>
<polygon fill="none" stroke="black" points="467.94,-340.6 467.94,-359.6 497.94,-359.6 497.94,-340.6 467.94,-340.6"/>
<text text-anchor="start" x="470.94" y="-347" font-family="sans-serif" font-size="12.00">ACL</text>
<polygon fill="white" stroke="transparent" points="466.61,-506.8 466.61,-523.8 480.61,-523.8 480.61,-506.8 466.61,-506.8"/>
<text text-anchor="start" x="468.61" y="-512.2" font-family="sans-serif" font-size="12.00">U</text>
</g>
<!-- DocumentContext&#45;&gt;ChatbotAndVoiceContext -->
<g id="edge8" class="edge">
<title>DocumentContext&#45;&gt;ChatbotAndVoiceContext</title>
<path fill="none" stroke="black" stroke-width="2" d="M475.27,-261.97C475.27,-215.86 475.27,-144.51 475.27,-97.49"/>
<text text-anchor="middle" x="517.27" y="-191.97" font-family="sans-serif" font-size="12.00">Shared Kernel</text>
</g>
<!-- LawContext -->
<g id="node7" class="node">
<title>LawContext</title>
<polygon fill="none" stroke="black" stroke-width="2" points="727.91,-235.04 722.08,-236.26 716.18,-237.36 710.23,-238.34 704.24,-239.2 698.25,-239.92 692.28,-240.5 686.35,-240.95 680.47,-241.26 674.68,-241.43 668.99,-241.45 663.42,-241.32 657.98,-241.05 652.7,-240.64 647.59,-240.08 642.66,-239.38 637.92,-238.54 633.39,-237.56 629.08,-236.45 625,-235.21 621.15,-233.84 617.53,-232.35 614.17,-230.74 611.04,-229.03 608.17,-227.21 605.55,-225.29 603.18,-223.29 601.05,-221.2 599.18,-219.04 597.55,-216.81 596.16,-214.52 595.02,-212.18 594.1,-209.8 593.42,-207.39 592.95,-204.95 592.71,-202.5 592.68,-200.03 592.85,-197.57 593.23,-195.11 593.8,-192.67 594.56,-190.26 595.5,-187.87 596.63,-185.52 597.93,-183.22 599.4,-180.97 601.04,-178.78 602.84,-176.65 604.8,-174.59 606.92,-172.6 609.19,-170.69 611.62,-168.87 614.19,-167.13 616.91,-165.48 619.78,-163.93 622.79,-162.47 625.94,-161.11 629.24,-159.84 632.68,-158.68 636.25,-157.63 639.96,-156.67 643.8,-155.82 647.78,-155.08 651.88,-154.44 656.1,-153.9 660.45,-153.47 664.91,-153.14 669.47,-152.92 674.14,-152.79 678.9,-152.77 683.75,-152.85 688.67,-153.03 693.66,-153.3 698.7,-153.67 703.79,-154.14 708.9,-154.69 714.03,-155.34 719.15,-156.08 724.27,-156.91 729.35,-157.83 734.38,-158.82 739.34,-159.91 744.22,-161.07 749,-162.32 753.65,-163.64 758.16,-165.04 762.51,-166.51 766.68,-168.05 770.65,-169.66 774.41,-171.34 777.93,-173.08 781.2,-174.89 784.2,-176.75 786.91,-178.67 789.33,-180.64 791.43,-182.65 793.2,-184.71 794.64,-186.82 795.73,-188.96 796.47,-191.13 796.85,-193.32 796.85,-195.54 796.49,-197.78 795.76,-200.02 794.66,-202.27 793.18,-204.52 791.35,-206.77 789.15,-209 786.61,-211.21 783.72,-213.39 780.5,-215.54 776.97,-217.65 773.13,-219.72 769,-221.73 764.6,-223.68 759.95,-225.56 755.07,-227.36 749.97,-229.09 744.69,-230.72 739.23,-232.27 733.63,-233.71 727.91,-235.04"/>
<text text-anchor="middle" x="687.27" y="-191.27" font-family="sans-serif" font-size="16.00">LawContext</text>
</g>
<!-- LawContext&#45;&gt;ChatbotAndVoiceContext -->
<g id="edge9" class="edge">
<title>LawContext&#45;&gt;ChatbotAndVoiceContext</title>
<path fill="none" stroke="black" stroke-width="2" d="M634.32,-158.04C605.74,-138.6 570.24,-114.44 540.03,-93.88"/>
<text text-anchor="middle" x="662.77" y="-119.04" font-family="sans-serif" font-size="12.00"> &#160;&#160;&#160;&#160;&#160;&#160;&#160;&#160;&#160;&#160;&#160;&#160;&#160;&#160;&#160;&#160;&#160;&#160;&#160;&#160;&#160;&#160;&#160;&#160;&#160;&#160;&#160;&#160;&#160;&#160;&#160;&#160;&#160;&#160;&#160;&#160;&#160;&#160;&#160;</text>
<polygon fill="white" stroke="transparent" points="517.03,-83.88 517.03,-102.88 533.03,-102.88 533.03,-83.88 517.03,-83.88"/>
<polyline fill="none" stroke="black" points="533.03,-83.88 533.03,-102.88 "/>
<text text-anchor="start" x="520.03" y="-90.28" font-family="sans-serif" font-size="12.00">D</text>
<polygon fill="white" stroke="transparent" points="533.03,-83.88 533.03,-102.88 563.03,-102.88 563.03,-83.88 533.03,-83.88"/>
<polygon fill="none" stroke="black" points="533.03,-83.88 533.03,-102.88 563.03,-102.88 563.03,-83.88 533.03,-83.88"/>
<text text-anchor="start" x="536.03" y="-90.28" font-family="sans-serif" font-size="12.00">ACL</text>
<polygon fill="white" stroke="transparent" points="627.32,-149.04 627.32,-166.04 641.32,-166.04 641.32,-149.04 627.32,-149.04"/>
<text text-anchor="start" x="629.32" y="-154.44" font-family="sans-serif" font-size="12.00">U</text>
</g>
<!-- PaymentGateways -->
<g id="node8" class="node">
<title>PaymentGateways</title>
<polygon fill="none" stroke="black" stroke-width="2" points="491.55,-657.83 500.46,-658.17 509.27,-658.63 517.94,-659.2 526.43,-659.89 534.71,-660.69 542.75,-661.6 550.51,-662.61 557.97,-663.74 565.1,-664.96 571.86,-666.28 578.25,-667.7 584.23,-669.21 589.79,-670.8 594.91,-672.48 599.58,-674.23 603.79,-676.06 607.52,-677.95 610.77,-679.91 613.54,-681.93 615.82,-683.99 617.62,-686.1 618.94,-688.26 619.79,-690.44 620.17,-692.66 620.09,-694.9 619.56,-697.16 618.61,-699.42 617.24,-701.7 615.46,-703.97 613.31,-706.23 610.78,-708.48 607.92,-710.71 604.72,-712.91 601.22,-715.09 597.44,-717.22 593.39,-719.32 589.09,-721.36 584.57,-723.35 579.85,-725.28 574.93,-727.15 569.86,-728.95 564.63,-730.67 559.27,-732.31 553.79,-733.87 548.22,-735.34 542.55,-736.72 536.81,-738 531.01,-739.18 525.16,-740.26 519.26,-741.24 513.33,-742.1 507.38,-742.86 501.41,-743.5 495.42,-744.02 489.43,-744.43 483.44,-744.72 477.45,-744.9 471.47,-744.95 465.5,-744.88 459.54,-744.7 453.6,-744.39 447.69,-743.97 441.8,-743.43 435.95,-742.77 430.13,-742 424.36,-741.11 418.63,-740.12 412.96,-739.01 407.36,-737.81 401.83,-736.5 396.39,-735.09 391.04,-733.59 385.8,-732 380.68,-730.32 375.69,-728.56 370.85,-726.73 366.18,-724.83 361.69,-722.85 357.4,-720.82 353.32,-718.74 349.49,-716.6 345.9,-714.42 342.59,-712.21 339.58,-709.96 336.87,-707.69 334.5,-705.4 332.48,-703.1 330.82,-700.8 329.55,-698.49 328.68,-696.2 328.22,-693.91 328.19,-691.65 328.61,-689.42 329.47,-687.21 330.79,-685.05 332.58,-682.93 334.84,-680.86 337.57,-678.85 340.77,-676.91 344.44,-675.03 348.58,-673.22 353.17,-671.49 358.21,-669.84 363.69,-668.29 369.59,-666.82 375.88,-665.45 382.56,-664.18 389.6,-663.01 396.98,-661.94 404.67,-660.99 412.63,-660.15 420.85,-659.42 429.28,-658.8 437.91,-658.31 446.68,-657.93 455.57,-657.67 464.54,-657.53 473.55,-657.51 482.56,-657.61 491.55,-657.83"/>
<text text-anchor="middle" x="473.27" y="-697.44" font-family="sans-serif" font-size="16.00">PaymentGateways</text>
</g>
<!-- PaymentGateways&#45;&gt;PaymentContext -->
<g id="edge10" class="edge">
<title>PaymentGateways&#45;&gt;PaymentContext</title>
<path fill="none" stroke="black" stroke-width="2" d="M473.27,-657.24C473.27,-640.27 473.27,-620.8 473.27,-603.82"/>
<text text-anchor="middle" x="548.77" y="-625.06" font-family="sans-serif" font-size="12.00"> &#160;&#160;&#160;&#160;&#160;&#160;&#160;&#160;&#160;&#160;&#160;&#160;&#160;&#160;&#160;&#160;&#160;&#160;&#160;&#160;&#160;&#160;&#160;&#160;&#160;&#160;&#160;&#160;&#160;&#160;&#160;&#160;&#160;&#160;&#160;&#160;&#160;&#160;&#160;</text>
<polygon fill="white" stroke="transparent" points="450.27,-593.82 450.27,-612.82 466.27,-612.82 466.27,-593.82 450.27,-593.82"/>
<polyline fill="none" stroke="black" points="466.27,-593.82 466.27,-612.82 "/>
<text text-anchor="start" x="453.27" y="-600.22" font-family="sans-serif" font-size="12.00">D</text>
<polygon fill="white" stroke="transparent" points="466.27,-593.82 466.27,-612.82 496.27,-612.82 496.27,-593.82 466.27,-593.82"/>
<polygon fill="none" stroke="black" points="466.27,-593.82 466.27,-612.82 496.27,-612.82 496.27,-593.82 466.27,-593.82"/>
<text text-anchor="start" x="469.27" y="-600.22" font-family="sans-serif" font-size="12.00">ACL</text>
<polygon fill="white" stroke="transparent" points="466.27,-648.24 466.27,-665.24 480.27,-665.24 480.27,-648.24 466.27,-648.24"/>
<text text-anchor="start" x="468.27" y="-653.64" font-family="sans-serif" font-size="12.00">U</text>
</g>
<!-- PersonaContext -->
<g id="node9" class="node">
<title>PersonaContext</title>
<polygon fill="none" stroke="black" stroke-width="2" points="1057.51,-196.33 1057.4,-199.22 1056.96,-202.08 1056.18,-204.91 1055.07,-207.7 1053.63,-210.43 1051.87,-213.09 1049.78,-215.68 1047.37,-218.18 1044.66,-220.59 1041.64,-222.89 1038.33,-225.08 1034.72,-227.15 1030.85,-229.09 1026.7,-230.91 1022.3,-232.58 1017.66,-234.12 1012.78,-235.51 1007.69,-236.76 1002.4,-237.85 996.92,-238.8 991.27,-239.6 985.46,-240.25 979.52,-240.75 973.45,-241.1 967.27,-241.31 961.01,-241.38 954.68,-241.32 948.29,-241.12 941.87,-240.79 935.44,-240.34 929.01,-239.77 922.61,-239.09 916.24,-238.3 909.93,-237.41 903.7,-236.43 897.56,-235.35 891.53,-234.2 885.63,-232.96 879.88,-231.66 874.29,-230.28 868.87,-228.85 863.65,-227.36 858.63,-225.82 853.83,-224.24 849.27,-222.61 844.95,-220.94 840.89,-219.25 837.09,-217.52 833.58,-215.76 830.35,-213.98 827.42,-212.18 824.79,-210.35 822.48,-208.51 820.47,-206.66 818.79,-204.78 817.44,-202.9 816.41,-201 815.71,-199.1 815.34,-197.18 815.31,-195.26 815.6,-193.33 816.22,-191.4 817.17,-189.46 818.44,-187.52 820.03,-185.58 821.94,-183.64 824.15,-181.71 826.67,-179.78 829.47,-177.86 832.57,-175.96 835.94,-174.07 839.58,-172.2 843.48,-170.36 847.63,-168.55 852.01,-166.77 856.61,-165.03 861.43,-163.33 866.44,-161.69 871.64,-160.11 877.01,-158.59 882.53,-157.13 888.2,-155.76 894,-154.47 899.9,-153.27 905.91,-152.17 911.99,-151.17 918.14,-150.28 924.34,-149.51 930.57,-148.86 936.81,-148.34 943.06,-147.95 949.29,-147.7 955.48,-147.6 961.63,-147.64 967.71,-147.84 973.71,-148.18 979.61,-148.69 985.4,-149.35 991.06,-150.17 996.58,-151.14 1001.93,-152.27 1007.12,-153.56 1012.12,-155 1016.92,-156.58 1021.5,-158.31 1025.86,-160.18 1029.98,-162.18 1033.85,-164.31 1037.46,-166.55 1040.79,-168.91 1043.85,-171.36 1046.62,-173.91 1049.08,-176.54 1051.25,-179.24 1053.1,-182.01 1054.64,-184.82 1055.85,-187.67 1056.73,-190.55 1057.29,-193.44 1057.51,-196.33"/>
<text text-anchor="middle" x="936.27" y="-191.27" font-family="sans-serif" font-size="16.00">PersonaContext</text>
</g>
<!-- PersonaContext&#45;&gt;ChatbotAndVoiceContext -->
<g id="edge11" class="edge">
<title>PersonaContext&#45;&gt;ChatbotAndVoiceContext</title>
<path fill="none" stroke="black" stroke-width="2" d="M864.39,-162.16C828.21,-146.83 783.4,-128.95 742.27,-115.64 697.75,-101.23 648.19,-88.21 603.97,-77.63"/>
<text text-anchor="middle" x="849.77" y="-119.04" font-family="sans-serif" font-size="12.00"> &#160;&#160;&#160;&#160;&#160;&#160;&#160;&#160;&#160;&#160;&#160;&#160;&#160;&#160;&#160;&#160;&#160;&#160;&#160;&#160;&#160;&#160;&#160;&#160;&#160;&#160;&#160;&#160;&#160;&#160;&#160;&#160;&#160;&#160;&#160;&#160;&#160;&#160;&#160;</text>
<polygon fill="white" stroke="transparent" points="580.97,-67.63 580.97,-86.63 596.97,-86.63 596.97,-67.63 580.97,-67.63"/>
<polyline fill="none" stroke="black" points="596.97,-67.63 596.97,-86.63 "/>
<text text-anchor="start" x="583.97" y="-74.03" font-family="sans-serif" font-size="12.00">D</text>
<polygon fill="white" stroke="transparent" points="596.97,-67.63 596.97,-86.63 626.97,-86.63 626.97,-67.63 596.97,-67.63"/>
<polygon fill="none" stroke="black" points="596.97,-67.63 596.97,-86.63 626.97,-86.63 626.97,-67.63 596.97,-67.63"/>
<text text-anchor="start" x="599.97" y="-74.03" font-family="sans-serif" font-size="12.00">ACL</text>
<polygon fill="white" stroke="transparent" points="829.39,-152.16 829.39,-171.16 845.39,-171.16 845.39,-152.16 829.39,-152.16"/>
<polyline fill="none" stroke="black" points="845.39,-152.16 845.39,-171.16 "/>
<text text-anchor="start" x="832.39" y="-158.56" font-family="sans-serif" font-size="12.00">U</text>
<polygon fill="white" stroke="transparent" points="845.39,-152.16 845.39,-171.16 900.39,-171.16 900.39,-152.16 845.39,-152.16"/>
<polygon fill="none" stroke="black" points="845.39,-152.16 845.39,-171.16 900.39,-171.16 900.39,-152.16 845.39,-152.16"/>
<text text-anchor="start" x="848.39" y="-158.56" font-family="sans-serif" font-size="12.00">OHS, PL</text>
</g>
<!-- SettingContext -->
<g id="node10" class="node">
<title>SettingContext</title>
<polygon fill="none" stroke="black" stroke-width="2" points="867.46,-715.95 865,-718.65 862.25,-721.3 859.22,-723.88 855.92,-726.38 852.36,-728.8 848.56,-731.11 844.53,-733.32 840.27,-735.4 835.81,-737.37 831.16,-739.2 826.32,-740.9 821.32,-742.45 816.17,-743.85 810.89,-745.09 805.48,-746.18 799.96,-747.11 794.35,-747.88 788.66,-748.49 782.9,-748.93 777.1,-749.21 771.26,-749.33 765.4,-749.3 759.54,-749.11 753.68,-748.77 747.84,-748.28 742.04,-747.64 736.28,-746.88 730.59,-745.98 724.97,-744.95 719.44,-743.81 714,-742.56 708.68,-741.2 703.49,-739.75 698.43,-738.21 693.52,-736.59 688.76,-734.89 684.18,-733.13 679.78,-731.31 675.57,-729.43 671.57,-727.52 667.77,-725.56 664.2,-723.58 660.85,-721.57 657.75,-719.54 654.9,-717.5 652.3,-715.45 649.96,-713.39 647.9,-711.34 646.11,-709.29 644.61,-707.25 643.4,-705.23 642.48,-703.22 641.86,-701.23 641.55,-699.25 641.54,-697.3 641.83,-695.37 642.44,-693.47 643.36,-691.6 644.59,-689.75 646.13,-687.94 647.98,-686.15 650.14,-684.4 652.6,-682.68 655.35,-680.99 658.4,-679.34 661.74,-677.73 665.35,-676.15 669.24,-674.61 673.38,-673.12 677.78,-671.67 682.42,-670.27 687.29,-668.91 692.38,-667.61 697.66,-666.36 703.14,-665.18 708.79,-664.05 714.59,-662.99 720.54,-662 726.6,-661.09 732.78,-660.25 739.03,-659.5 745.36,-658.84 751.73,-658.27 758.14,-657.79 764.55,-657.42 770.95,-657.16 777.32,-657.01 783.63,-656.97 789.88,-657.05 796.04,-657.26 802.08,-657.59 808,-658.05 813.77,-658.65 819.37,-659.37 824.79,-660.23 830.01,-661.23 835.01,-662.36 839.78,-663.63 844.31,-665.03 848.57,-666.57 852.56,-668.23 856.26,-670.02 859.67,-671.93 862.77,-673.96 865.56,-676.1 868.03,-678.35 870.17,-680.69 871.98,-683.13 873.45,-685.64 874.59,-688.23 875.38,-690.89 875.83,-693.6 875.94,-696.36 875.71,-699.14 875.15,-701.95 874.25,-704.78 873.03,-707.6 871.49,-710.41 869.63,-713.19 867.46,-715.95"/>
<text text-anchor="middle" x="757.27" y="-697.44" font-family="sans-serif" font-size="16.00">SettingContext</text>
</g>
</g>
</svg>
