<svg width="2000px" height="1435px"
 viewBox="0.00 0.00 1068.91 766.86" xmlns="http://www.w3.org/2000/svg" xmlns:xlink="http://www.w3.org/1999/xlink">
<g id="graph0" class="graph" transform="scale(1.0 1.0) rotate(0) translate(4 762.86)">
<title>ContextMapGraph</title>
<polygon fill="white" stroke="transparent" points="-4,4 -4,-762.86 1064.91,-762.86 1064.91,4 -4,4"/>
<!-- AuthContext -->
<g id="node1" class="node">
<title>AuthContext</title>
<polygon fill="none" stroke="black" stroke-width="2" points="151.85,-666.44 158.54,-666.03 165.23,-665.74 171.88,-665.58 178.48,-665.54 184.99,-665.63 191.39,-665.85 197.66,-666.19 203.77,-666.66 209.7,-667.26 215.43,-667.98 220.94,-668.82 226.21,-669.79 231.23,-670.87 235.98,-672.07 240.44,-673.38 244.62,-674.81 248.49,-676.33 252.05,-677.96 255.3,-679.68 258.22,-681.49 260.82,-683.39 263.1,-685.36 265.05,-687.41 266.68,-689.52 267.99,-691.7 268.99,-693.93 269.68,-696.2 270.07,-698.51 270.17,-700.86 269.99,-703.23 269.53,-705.62 268.81,-708.01 267.83,-710.41 266.62,-712.8 265.17,-715.19 263.5,-717.55 261.63,-719.88 259.56,-722.18 257.3,-724.44 254.87,-726.66 252.28,-728.81 249.53,-730.91 246.64,-732.95 243.61,-734.91 240.45,-736.79 237.17,-738.6 233.78,-740.31 230.29,-741.94 226.69,-743.47 223,-744.9 219.22,-746.23 215.35,-747.45 211.4,-748.56 207.37,-749.57 203.26,-750.46 199.08,-751.24 194.83,-751.9 190.51,-752.45 186.13,-752.88 181.69,-753.19 177.18,-753.38 172.62,-753.46 168.01,-753.42 163.35,-753.27 158.65,-753 153.91,-752.62 149.13,-752.13 144.34,-751.53 139.53,-750.83 134.71,-750.02 129.89,-749.11 125.08,-748.1 120.29,-746.99 115.54,-745.79 110.84,-744.5 106.2,-743.12 101.64,-741.67 97.17,-740.13 92.81,-738.52 88.57,-736.83 84.47,-735.08 80.54,-733.27 76.78,-731.4 73.21,-729.48 69.86,-727.5 66.73,-725.48 63.85,-723.42 61.24,-721.33 58.91,-719.2 56.87,-717.05 55.14,-714.88 53.74,-712.69 52.67,-710.49 51.95,-708.29 51.59,-706.08 51.59,-703.88 51.97,-701.69 52.73,-699.52 53.87,-697.37 55.39,-695.25 57.29,-693.16 59.58,-691.1 62.23,-689.09 65.26,-687.13 68.65,-685.22 72.4,-683.37 76.48,-681.59 80.88,-679.88 85.6,-678.24 90.6,-676.68 95.88,-675.2 101.41,-673.82 107.17,-672.53 113.13,-671.33 119.28,-670.24 125.59,-669.25 132.02,-668.38 138.56,-667.61 145.18,-666.97 151.85,-666.44"/>
<text text-anchor="middle" x="165.1" y="-706.18" font-family="sans-serif" font-size="16.00">AuthContext</text>
</g>
<!-- ConversationContext -->
<g id="node2" class="node">
<title>ConversationContext</title>
<polygon fill="none" stroke="black" stroke-width="2" points="4.38,-427.24 2.62,-424.42 1.29,-421.6 0.39,-418.79 -0.07,-416 -0.1,-413.24 0.32,-410.52 1.19,-407.86 2.5,-405.25 4.26,-402.72 6.46,-400.27 9.09,-397.91 12.15,-395.64 15.64,-393.48 19.54,-391.43 23.85,-389.49 28.54,-387.68 33.61,-385.98 39.05,-384.42 44.83,-382.99 50.94,-381.69 57.35,-380.52 64.06,-379.49 71.04,-378.59 78.26,-377.82 85.7,-377.19 93.35,-376.69 101.17,-376.32 109.14,-376.07 117.23,-375.95 125.42,-375.95 133.69,-376.06 142.01,-376.28 150.34,-376.61 158.67,-377.04 166.97,-377.57 175.22,-378.19 183.38,-378.9 191.43,-379.7 199.35,-380.58 207.12,-381.53 214.71,-382.55 222.1,-383.64 229.27,-384.8 236.21,-386.01 242.88,-387.28 249.27,-388.61 255.37,-389.98 261.17,-391.4 266.63,-392.87 271.77,-394.39 276.55,-395.94 280.97,-397.54 285.02,-399.17 288.7,-400.84 291.99,-402.55 294.89,-404.29 297.39,-406.07 299.5,-407.88 301.21,-409.72 302.52,-411.59 303.42,-413.49 303.92,-415.42 304.03,-417.37 303.74,-419.35 303.06,-421.35 301.99,-423.37 300.54,-425.41 298.72,-427.46 296.53,-429.52 293.97,-431.59 291.07,-433.66 287.82,-435.73 284.25,-437.79 280.34,-439.85 276.13,-441.88 271.62,-443.89 266.82,-445.88 261.74,-447.82 256.39,-449.73 250.79,-451.58 244.96,-453.37 238.9,-455.1 232.63,-456.76 226.16,-458.34 219.51,-459.83 212.7,-461.22 205.73,-462.51 198.63,-463.69 191.4,-464.75 184.07,-465.69 176.66,-466.5 169.17,-467.17 161.63,-467.69 154.05,-468.08 146.46,-468.31 138.86,-468.38 131.29,-468.3 123.74,-468.05 116.26,-467.64 108.84,-467.07 101.52,-466.34 94.31,-465.45 87.23,-464.39 80.3,-463.18 73.53,-461.81 66.96,-460.29 60.59,-458.62 54.44,-456.82 48.54,-454.88 42.9,-452.81 37.53,-450.63 32.46,-448.34 27.71,-445.95 23.28,-443.46 19.19,-440.9 15.46,-438.26 12.1,-435.57 9.13,-432.82 6.55,-430.05 4.38,-427.24"/>
<text text-anchor="middle" x="154.1" y="-416.32" font-family="sans-serif" font-size="16.00">ConversationContext</text>
</g>
<!-- AuthContext&#45;&gt;ConversationContext -->
<g id="edge1" class="edge">
<title>AuthContext&#45;&gt;ConversationContext</title>
<path fill="none" stroke="black" stroke-width="2" d="M160.9,-665.61C159.44,-648.9 157.96,-629.62 157.1,-612.09 154.69,-563.07 154.07,-506.9 153.96,-468.23"/>
<text text-anchor="middle" x="232.6" y="-561.69" font-family="sans-serif" font-size="12.00"> &#160;&#160;&#160;&#160;&#160;&#160;&#160;&#160;&#160;&#160;&#160;&#160;&#160;&#160;&#160;&#160;&#160;&#160;&#160;&#160;&#160;&#160;&#160;&#160;&#160;&#160;&#160;&#160;&#160;&#160;&#160;&#160;&#160;&#160;&#160;&#160;&#160;&#160;&#160;</text>
<polygon fill="white" stroke="transparent" points="130.96,-458.23 130.96,-477.23 146.96,-477.23 146.96,-458.23 130.96,-458.23"/>
<polyline fill="none" stroke="black" points="146.96,-458.23 146.96,-477.23 "/>
<text text-anchor="start" x="133.96" y="-464.63" font-family="sans-serif" font-size="12.00">D</text>
<polygon fill="white" stroke="transparent" points="146.96,-458.23 146.96,-477.23 176.96,-477.23 176.96,-458.23 146.96,-458.23"/>
<polygon fill="none" stroke="black" points="146.96,-458.23 146.96,-477.23 176.96,-477.23 176.96,-458.23 146.96,-458.23"/>
<text text-anchor="start" x="149.96" y="-464.63" font-family="sans-serif" font-size="12.00">ACL</text>
<polygon fill="white" stroke="transparent" points="125.9,-655.61 125.9,-674.61 141.9,-674.61 141.9,-655.61 125.9,-655.61"/>
<polyline fill="none" stroke="black" points="141.9,-655.61 141.9,-674.61 "/>
<text text-anchor="start" x="128.9" y="-662.01" font-family="sans-serif" font-size="12.00">U</text>
<polygon fill="white" stroke="transparent" points="141.9,-655.61 141.9,-674.61 196.9,-674.61 196.9,-655.61 141.9,-655.61"/>
<polygon fill="none" stroke="black" points="141.9,-655.61 141.9,-674.61 196.9,-674.61 196.9,-655.61 141.9,-655.61"/>
<text text-anchor="start" x="144.9" y="-662.01" font-family="sans-serif" font-size="12.00">OHS, PL</text>
</g>
<!-- PaymentContext -->
<g id="node5" class="node">
<title>PaymentContext</title>
<polygon fill="none" stroke="black" stroke-width="2" points="542.68,-532.62 548.83,-534.52 554.71,-536.5 560.29,-538.55 565.55,-540.67 570.46,-542.83 575.01,-545.04 579.17,-547.29 582.93,-549.57 586.27,-551.88 589.18,-554.2 591.64,-556.52 593.65,-558.85 595.2,-561.17 596.28,-563.47 596.9,-565.76 597.04,-568.02 596.72,-570.25 595.93,-572.45 594.68,-574.6 592.98,-576.71 590.84,-578.77 588.27,-580.77 585.29,-582.71 581.91,-584.59 578.15,-586.41 574.02,-588.16 569.55,-589.84 564.76,-591.45 559.66,-592.99 554.3,-594.44 548.68,-595.82 542.83,-597.12 536.77,-598.35 530.54,-599.48 524.16,-600.54 517.64,-601.51 511.03,-602.4 504.33,-603.2 497.58,-603.92 490.79,-604.55 484,-605.09 477.21,-605.55 470.46,-605.91 463.75,-606.19 457.12,-606.37 450.58,-606.47 444.13,-606.47 437.81,-606.38 431.61,-606.19 425.56,-605.91 419.66,-605.54 413.93,-605.07 408.37,-604.5 403,-603.84 397.81,-603.08 392.81,-602.23 388.02,-601.27 383.42,-600.23 379.04,-599.08 374.86,-597.84 370.89,-596.51 367.14,-595.08 363.61,-593.56 360.29,-591.96 357.18,-590.26 354.3,-588.48 351.63,-586.62 349.19,-584.69 346.97,-582.68 344.97,-580.6 343.2,-578.45 341.65,-576.25 340.34,-573.99 339.26,-571.68 338.41,-569.33 337.8,-566.95 337.43,-564.54 337.31,-562.1 337.44,-559.66 337.82,-557.21 338.47,-554.76 339.37,-552.33 340.54,-549.91 341.99,-547.52 343.71,-545.17 345.71,-542.86 347.99,-540.61 350.56,-538.42 353.41,-536.31 356.56,-534.27 359.99,-532.32 363.71,-530.46 367.72,-528.71 372.01,-527.06 376.59,-525.53 381.44,-524.13 386.56,-522.85 391.94,-521.7 397.58,-520.69 403.45,-519.83 409.56,-519.1 415.88,-518.53 422.4,-518.1 429.1,-517.83 435.96,-517.7 442.98,-517.73 450.11,-517.91 457.35,-518.24 464.66,-518.72 472.03,-519.34 479.42,-520.1 486.81,-521.01 494.18,-522.04 501.5,-523.21 508.73,-524.5 515.85,-525.91 522.84,-527.44 529.65,-529.07 536.28,-530.8 542.68,-532.62"/>
<text text-anchor="middle" x="457.1" y="-560.99" font-family="sans-serif" font-size="16.00">PaymentContext</text>
</g>
<!-- AuthContext&#45;&gt;PaymentContext -->
<g id="edge2" class="edge">
<title>AuthContext&#45;&gt;PaymentContext</title>
<path fill="none" stroke="black" stroke-width="2" d="M228.63,-670.11C251.45,-656.76 277.6,-642.16 302.1,-630.09 325.09,-618.76 350.6,-607.62 374.16,-597.88"/>
<text text-anchor="middle" x="377.6" y="-633.49" font-family="sans-serif" font-size="12.00"> &#160;&#160;&#160;&#160;&#160;&#160;&#160;&#160;&#160;&#160;&#160;&#160;&#160;&#160;&#160;&#160;&#160;&#160;&#160;&#160;&#160;&#160;&#160;&#160;&#160;&#160;&#160;&#160;&#160;&#160;&#160;&#160;&#160;&#160;&#160;&#160;&#160;&#160;&#160;</text>
<polygon fill="white" stroke="transparent" points="351.16,-587.88 351.16,-606.88 367.16,-606.88 367.16,-587.88 351.16,-587.88"/>
<polyline fill="none" stroke="black" points="367.16,-587.88 367.16,-606.88 "/>
<text text-anchor="start" x="354.16" y="-594.28" font-family="sans-serif" font-size="12.00">D</text>
<polygon fill="white" stroke="transparent" points="367.16,-587.88 367.16,-606.88 397.16,-606.88 397.16,-587.88 367.16,-587.88"/>
<polygon fill="none" stroke="black" points="367.16,-587.88 367.16,-606.88 397.16,-606.88 397.16,-587.88 367.16,-587.88"/>
<text text-anchor="start" x="370.16" y="-594.28" font-family="sans-serif" font-size="12.00">ACL</text>
<polygon fill="white" stroke="transparent" points="193.63,-660.11 193.63,-679.11 209.63,-679.11 209.63,-660.11 193.63,-660.11"/>
<polyline fill="none" stroke="black" points="209.63,-660.11 209.63,-679.11 "/>
<text text-anchor="start" x="196.63" y="-666.51" font-family="sans-serif" font-size="12.00">U</text>
<polygon fill="white" stroke="transparent" points="209.63,-660.11 209.63,-679.11 264.63,-679.11 264.63,-660.11 209.63,-660.11"/>
<polygon fill="none" stroke="black" points="209.63,-660.11 209.63,-679.11 264.63,-679.11 264.63,-660.11 209.63,-660.11"/>
<text text-anchor="start" x="212.63" y="-666.51" font-family="sans-serif" font-size="12.00">OHS, PL</text>
</g>
<!-- ChatbotAndVoiceContext -->
<g id="node3" class="node">
<title>ChatbotAndVoiceContext</title>
<polygon fill="none" stroke="black" stroke-width="2" points="370.98,-84.02 361.02,-82.63 351.35,-81.15 342.02,-79.57 333.06,-77.91 324.53,-76.16 316.44,-74.35 308.84,-72.46 301.75,-70.52 295.2,-68.52 289.22,-66.47 283.83,-64.38 279.05,-62.25 274.89,-60.09 271.37,-57.91 268.5,-55.71 266.28,-53.5 264.72,-51.28 263.81,-49.06 263.56,-46.85 263.96,-44.65 264.99,-42.46 266.64,-40.29 268.91,-38.14 271.76,-36.03 275.19,-33.95 279.16,-31.9 283.66,-29.9 288.66,-27.94 294.12,-26.04 300.03,-24.18 306.34,-22.39 313.03,-20.65 320.06,-18.97 327.41,-17.37 335.04,-15.83 342.92,-14.36 351.01,-12.97 359.28,-11.65 367.71,-10.42 376.25,-9.26 384.89,-8.2 393.6,-7.22 402.34,-6.33 411.09,-5.53 419.83,-4.83 428.54,-4.22 437.19,-3.72 445.77,-3.31 454.25,-3 462.63,-2.8 470.88,-2.71 479,-2.72 486.97,-2.84 494.79,-3.07 502.43,-3.4 509.91,-3.85 517.2,-4.41 524.31,-5.08 531.22,-5.86 537.94,-6.75 544.46,-7.75 550.78,-8.86 556.88,-10.07 562.78,-11.39 568.47,-12.81 573.93,-14.33 579.17,-15.95 584.19,-17.66 588.97,-19.46 593.52,-21.35 597.82,-23.32 601.87,-25.36 605.66,-27.48 609.18,-29.66 612.42,-31.9 615.37,-34.19 618.02,-36.53 620.36,-38.91 622.38,-41.33 624.06,-43.76 625.38,-46.22 626.35,-48.68 626.94,-51.15 627.14,-53.61 626.93,-56.06 626.31,-58.48 625.26,-60.87 623.77,-63.22 621.84,-65.53 619.44,-67.78 616.58,-69.96 613.24,-72.08 609.43,-74.12 605.13,-76.07 600.36,-77.93 595.1,-79.69 589.37,-81.35 583.17,-82.9 576.51,-84.34 569.4,-85.65 561.85,-86.84 553.88,-87.9 545.5,-88.83 536.75,-89.63 527.64,-90.29 518.2,-90.81 508.46,-91.2 498.45,-91.44 488.2,-91.55 477.75,-91.52 467.14,-91.34 456.4,-91.04 445.57,-90.6 434.71,-90.02 423.84,-89.32 413.01,-88.5 402.27,-87.55 391.65,-86.48 381.21,-85.3 370.98,-84.02"/>
<text text-anchor="middle" x="457.1" y="-41.88" font-family="sans-serif" font-size="16.00">ChatbotAndVoiceContext</text>
</g>
<!-- ConversationContext&#45;&gt;ChatbotAndVoiceContext -->
<g id="edge3" class="edge">
<title>ConversationContext&#45;&gt;ChatbotAndVoiceContext</title>
<path fill="none" stroke="black" stroke-width="2" d="M129.18,-375.78C98.71,-316.41 57.3,-209.31 110.1,-140.37 134.19,-108.91 219.78,-85.6 299.92,-70.11"/>
<text text-anchor="middle" x="144.6" y="-186.1" font-family="sans-serif" font-size="12.00">Partnership</text>
</g>
<!-- LiveKitServer -->
<g id="node4" class="node">
<title>LiveKitServer</title>
<polygon fill="none" stroke="black" stroke-width="2" points="393.71,-210.86 390.32,-213.36 386.69,-215.8 382.84,-218.14 378.78,-220.39 374.52,-222.54 370.09,-224.57 365.49,-226.49 360.74,-228.27 355.85,-229.92 350.85,-231.42 345.74,-232.78 340.55,-233.98 335.28,-235.02 329.96,-235.91 324.59,-236.63 319.19,-237.19 313.77,-237.58 308.36,-237.81 302.95,-237.87 297.57,-237.77 292.22,-237.51 286.93,-237.1 281.69,-236.53 276.53,-235.81 271.44,-234.95 266.45,-233.95 261.56,-232.82 256.79,-231.56 252.13,-230.19 247.6,-228.7 243.21,-227.12 238.97,-225.43 234.88,-223.66 230.95,-221.82 227.2,-219.9 223.61,-217.92 220.21,-215.88 217,-213.8 213.99,-211.68 211.17,-209.53 208.57,-207.36 206.18,-205.17 204.01,-202.97 202.06,-200.77 200.34,-198.57 198.87,-196.38 197.63,-194.21 196.63,-192.05 195.89,-189.92 195.4,-187.81 195.17,-185.73 195.19,-183.69 195.48,-181.69 196.04,-179.72 196.87,-177.8 197.96,-175.92 199.33,-174.09 200.96,-172.3 202.87,-170.56 205.04,-168.87 207.48,-167.23 210.18,-165.64 213.15,-164.11 216.36,-162.62 219.83,-161.19 223.55,-159.82 227.5,-158.5 231.68,-157.24 236.07,-156.04 240.68,-154.89 245.49,-153.81 250.48,-152.79 255.65,-151.84 260.97,-150.95 266.44,-150.14 272.05,-149.4 277.76,-148.73 283.57,-148.14 289.46,-147.63 295.42,-147.21 301.41,-146.88 307.43,-146.64 313.45,-146.49 319.46,-146.44 325.43,-146.49 331.34,-146.65 337.18,-146.91 342.92,-147.28 348.55,-147.77 354.04,-148.37 359.38,-149.09 364.55,-149.93 369.53,-150.89 374.3,-151.97 378.84,-153.17 383.14,-154.49 387.2,-155.93 390.98,-157.49 394.48,-159.17 397.69,-160.96 400.59,-162.86 403.18,-164.86 405.46,-166.97 407.4,-169.17 409.02,-171.46 410.29,-173.83 411.23,-176.28 411.83,-178.8 412.09,-181.38 412.01,-184.01 411.59,-186.68 410.84,-189.38 409.77,-192.1 408.37,-194.83 406.65,-197.57 404.64,-200.29 402.32,-202.99 399.72,-205.66 396.84,-208.29 393.71,-210.86"/>
<text text-anchor="middle" x="300.1" y="-185.4" font-family="sans-serif" font-size="16.00">LiveKitServer</text>
</g>
<!-- ConversationContext&#45;&gt;LiveKitServer -->
<g id="edge4" class="edge">
<title>ConversationContext&#45;&gt;LiveKitServer</title>
<path fill="none" stroke="black" stroke-width="2" d="M142.79,-375.99C136.18,-340.84 133.08,-291.39 156.1,-256.04 164.46,-243.19 192.85,-229.05 222.25,-217.17"/>
<text text-anchor="middle" x="231.6" y="-301.79" font-family="sans-serif" font-size="12.00"> &#160;&#160;&#160;&#160;&#160;&#160;&#160;&#160;&#160;&#160;&#160;&#160;&#160;&#160;&#160;&#160;&#160;&#160;&#160;&#160;&#160;&#160;&#160;&#160;&#160;&#160;&#160;&#160;&#160;&#160;&#160;&#160;&#160;&#160;&#160;&#160;&#160;&#160;&#160;</text>
<polygon fill="white" stroke="transparent" points="203.25,-207.17 203.25,-226.17 219.25,-226.17 219.25,-207.17 203.25,-207.17"/>
<polyline fill="none" stroke="black" points="219.25,-207.17 219.25,-226.17 "/>
<text text-anchor="start" x="206.25" y="-213.57" font-family="sans-serif" font-size="12.00">D</text>
<polygon fill="white" stroke="transparent" points="219.25,-207.17 219.25,-226.17 241.25,-226.17 241.25,-207.17 219.25,-207.17"/>
<polygon fill="none" stroke="black" points="219.25,-207.17 219.25,-226.17 241.25,-226.17 241.25,-207.17 219.25,-207.17"/>
<text text-anchor="start" x="222.25" y="-213.57" font-family="sans-serif" font-size="12.00">CF</text>
<polygon fill="white" stroke="transparent" points="135.79,-366.99 135.79,-383.99 149.79,-383.99 149.79,-366.99 135.79,-366.99"/>
<text text-anchor="start" x="137.79" y="-372.39" font-family="sans-serif" font-size="12.00">U</text>
</g>
<!-- LiveKitServer&#45;&gt;ChatbotAndVoiceContext -->
<g id="edge5" class="edge">
<title>LiveKitServer&#45;&gt;ChatbotAndVoiceContext</title>
<path fill="none" stroke="black" stroke-width="2" d="M285.97,-147.86C283.82,-134.62 284.44,-120.46 292.1,-109.37 301.41,-95.87 314.03,-85.28 328.18,-76.97"/>
<text text-anchor="middle" x="367.6" y="-112.77" font-family="sans-serif" font-size="12.00"> &#160;&#160;&#160;&#160;&#160;&#160;&#160;&#160;&#160;&#160;&#160;&#160;&#160;&#160;&#160;&#160;&#160;&#160;&#160;&#160;&#160;&#160;&#160;&#160;&#160;&#160;&#160;&#160;&#160;&#160;&#160;&#160;&#160;&#160;&#160;&#160;&#160;&#160;&#160;</text>
<polygon fill="white" stroke="transparent" points="309.18,-66.97 309.18,-85.97 325.18,-85.97 325.18,-66.97 309.18,-66.97"/>
<polyline fill="none" stroke="black" points="325.18,-66.97 325.18,-85.97 "/>
<text text-anchor="start" x="312.18" y="-73.37" font-family="sans-serif" font-size="12.00">D</text>
<polygon fill="white" stroke="transparent" points="325.18,-66.97 325.18,-85.97 347.18,-85.97 347.18,-66.97 325.18,-66.97"/>
<polygon fill="none" stroke="black" points="325.18,-66.97 325.18,-85.97 347.18,-85.97 347.18,-66.97 325.18,-66.97"/>
<text text-anchor="start" x="328.18" y="-73.37" font-family="sans-serif" font-size="12.00">CF</text>
<polygon fill="white" stroke="transparent" points="278.97,-138.86 278.97,-155.86 292.97,-155.86 292.97,-138.86 278.97,-138.86"/>
<text text-anchor="start" x="280.97" y="-144.26" font-family="sans-serif" font-size="12.00">U</text>
</g>
<!-- PaymentContext&#45;&gt;ConversationContext -->
<g id="edge6" class="edge">
<title>PaymentContext&#45;&gt;ConversationContext</title>
<path fill="none" stroke="black" stroke-width="2" d="M361.04,-531.72C335.62,-522.26 308.49,-511.26 284.1,-499.5 260.83,-488.28 236.33,-474.17 214.94,-461.02"/>
<text text-anchor="middle" x="359.6" y="-489.9" font-family="sans-serif" font-size="12.00"> &#160;&#160;&#160;&#160;&#160;&#160;&#160;&#160;&#160;&#160;&#160;&#160;&#160;&#160;&#160;&#160;&#160;&#160;&#160;&#160;&#160;&#160;&#160;&#160;&#160;&#160;&#160;&#160;&#160;&#160;&#160;&#160;&#160;&#160;&#160;&#160;&#160;&#160;&#160;</text>
<polygon fill="white" stroke="transparent" points="191.94,-451.02 191.94,-470.02 207.94,-470.02 207.94,-451.02 191.94,-451.02"/>
<polyline fill="none" stroke="black" points="207.94,-451.02 207.94,-470.02 "/>
<text text-anchor="start" x="194.94" y="-457.42" font-family="sans-serif" font-size="12.00">D</text>
<polygon fill="white" stroke="transparent" points="207.94,-451.02 207.94,-470.02 237.94,-470.02 237.94,-451.02 207.94,-451.02"/>
<polygon fill="none" stroke="black" points="207.94,-451.02 207.94,-470.02 237.94,-470.02 237.94,-451.02 207.94,-451.02"/>
<text text-anchor="start" x="210.94" y="-457.42" font-family="sans-serif" font-size="12.00">ACL</text>
<polygon fill="white" stroke="transparent" points="354.04,-522.72 354.04,-539.72 368.04,-539.72 368.04,-522.72 354.04,-522.72"/>
<text text-anchor="start" x="356.04" y="-528.12" font-family="sans-serif" font-size="12.00">U</text>
</g>
<!-- DocumentContext -->
<g id="node6" class="node">
<title>DocumentContext</title>
<polygon fill="none" stroke="black" stroke-width="2" points="340.55,-282.56 344.94,-280.08 349.64,-277.67 354.61,-275.35 359.83,-273.13 365.3,-271.01 370.99,-269.01 376.88,-267.13 382.95,-265.38 389.18,-263.77 395.55,-262.3 402.04,-260.98 408.64,-259.82 415.32,-258.81 422.07,-257.96 428.86,-257.28 435.68,-256.76 442.51,-256.4 449.34,-256.21 456.14,-256.19 462.9,-256.32 469.61,-256.62 476.25,-257.08 482.8,-257.68 489.26,-258.44 495.6,-259.34 501.83,-260.37 507.91,-261.54 513.85,-262.83 519.64,-264.23 525.25,-265.75 530.68,-267.37 535.93,-269.08 540.97,-270.88 545.81,-272.76 550.44,-274.7 554.84,-276.71 559,-278.77 562.93,-280.87 566.61,-283.01 570.03,-285.18 573.19,-287.37 576.08,-289.58 578.69,-291.79 581.02,-294.01 583.06,-296.22 584.8,-298.42 586.24,-300.61 587.37,-302.77 588.19,-304.91 588.69,-307.02 588.87,-309.1 588.73,-311.14 588.25,-313.14 587.45,-315.1 586.31,-317.02 584.83,-318.89 583.01,-320.72 580.86,-322.49 578.37,-324.22 575.55,-325.89 572.39,-327.52 568.91,-329.09 565.1,-330.6 560.97,-332.06 556.53,-333.47 551.78,-334.81 546.74,-336.1 541.42,-337.34 535.82,-338.51 529.97,-339.62 523.87,-340.67 517.53,-341.65 510.98,-342.57 504.24,-343.41 497.31,-344.19 490.23,-344.89 483,-345.52 475.66,-346.07 468.23,-346.53 460.72,-346.91 453.16,-347.2 445.58,-347.4 438,-347.51 430.44,-347.52 422.94,-347.42 415.51,-347.22 408.18,-346.92 400.98,-346.5 393.93,-345.98 387.05,-345.33 380.37,-344.58 373.92,-343.7 367.72,-342.71 361.78,-341.59 356.13,-340.36 350.78,-339.01 345.77,-337.54 341.1,-335.95 336.78,-334.25 332.84,-332.44 329.29,-330.52 326.14,-328.49 323.4,-326.37 321.07,-324.16 319.16,-321.85 317.68,-319.47 316.64,-317.01 316.02,-314.49 315.83,-311.91 316.08,-309.29 316.75,-306.62 317.83,-303.92 319.34,-301.21 321.24,-298.48 323.54,-295.76 326.23,-293.05 329.29,-290.37 332.7,-287.72 336.46,-285.11 340.55,-282.56"/>
<text text-anchor="middle" x="457.1" y="-301.09" font-family="sans-serif" font-size="16.00">DocumentContext</text>
</g>
<!-- PaymentContext&#45;&gt;DocumentContext -->
<g id="edge7" class="edge">
<title>PaymentContext&#45;&gt;DocumentContext</title>
<path fill="none" stroke="black" stroke-width="2" d="M457.1,-517.98C457.1,-469.63 457.1,-394.11 457.1,-347.44"/>
<text text-anchor="middle" x="532.6" y="-489.9" font-family="sans-serif" font-size="12.00"> &#160;&#160;&#160;&#160;&#160;&#160;&#160;&#160;&#160;&#160;&#160;&#160;&#160;&#160;&#160;&#160;&#160;&#160;&#160;&#160;&#160;&#160;&#160;&#160;&#160;&#160;&#160;&#160;&#160;&#160;&#160;&#160;&#160;&#160;&#160;&#160;&#160;&#160;&#160;</text>
<polygon fill="white" stroke="transparent" points="434.1,-337.44 434.1,-356.44 450.1,-356.44 450.1,-337.44 434.1,-337.44"/>
<polyline fill="none" stroke="black" points="450.1,-337.44 450.1,-356.44 "/>
<text text-anchor="start" x="437.1" y="-343.84" font-family="sans-serif" font-size="12.00">D</text>
<polygon fill="white" stroke="transparent" points="450.1,-337.44 450.1,-356.44 480.1,-356.44 480.1,-337.44 450.1,-337.44"/>
<polygon fill="none" stroke="black" points="450.1,-337.44 450.1,-356.44 480.1,-356.44 480.1,-337.44 450.1,-337.44"/>
<text text-anchor="start" x="453.1" y="-343.84" font-family="sans-serif" font-size="12.00">ACL</text>
<polygon fill="white" stroke="transparent" points="450.1,-508.98 450.1,-525.98 464.1,-525.98 464.1,-508.98 450.1,-508.98"/>
<text text-anchor="start" x="452.1" y="-514.38" font-family="sans-serif" font-size="12.00">U</text>
</g>
<!-- DocumentContext&#45;&gt;ChatbotAndVoiceContext -->
<g id="edge8" class="edge">
<title>DocumentContext&#45;&gt;ChatbotAndVoiceContext</title>
<path fill="none" stroke="black" stroke-width="2" d="M457.1,-256.11C457.1,-208.9 457.1,-137.24 457.1,-91.19"/>
<text text-anchor="middle" x="499.1" y="-186.1" font-family="sans-serif" font-size="12.00">Shared Kernel</text>
</g>
<!-- LawContext -->
<g id="node7" class="node">
<title>LawContext</title>
<polygon fill="none" stroke="black" stroke-width="2" points="746.44,-163.81 750.24,-166.13 753.8,-168.5 757.1,-170.91 760.12,-173.36 762.85,-175.84 765.28,-178.34 767.4,-180.85 769.2,-183.36 770.67,-185.86 771.8,-188.34 772.59,-190.8 773.04,-193.23 773.13,-195.61 772.88,-197.96 772.28,-200.24 771.33,-202.47 770.04,-204.64 768.41,-206.74 766.45,-208.76 764.16,-210.7 761.57,-212.57 758.67,-214.34 755.49,-216.04 752.03,-217.64 748.3,-219.15 744.34,-220.57 740.14,-221.9 735.73,-223.13 731.13,-224.26 726.35,-225.31 721.42,-226.25 716.35,-227.11 711.16,-227.87 705.87,-228.54 700.51,-229.11 695.09,-229.6 689.62,-229.99 684.14,-230.29 678.65,-230.51 673.18,-230.64 667.74,-230.68 662.36,-230.64 657.03,-230.51 651.79,-230.29 646.65,-229.99 641.61,-229.61 636.69,-229.15 631.91,-228.6 627.27,-227.97 622.79,-227.26 618.47,-226.47 614.31,-225.6 610.34,-224.64 606.55,-223.6 602.95,-222.48 599.54,-221.28 596.32,-220 593.31,-218.64 590.5,-217.2 587.9,-215.68 585.5,-214.09 583.3,-212.42 581.32,-210.67 579.54,-208.86 577.96,-206.97 576.6,-205.02 575.43,-203 574.48,-200.93 573.72,-198.79 573.17,-196.61 572.83,-194.38 572.68,-192.1 572.73,-189.79 572.99,-187.45 573.44,-185.08 574.09,-182.7 574.94,-180.31 575.99,-177.92 577.23,-175.53 578.67,-173.15 580.31,-170.8 582.14,-168.47 584.17,-166.19 586.39,-163.95 588.8,-161.76 591.4,-159.65 594.2,-157.6 597.18,-155.64 600.35,-153.77 603.7,-152 607.23,-150.33 610.94,-148.78 614.82,-147.35 618.87,-146.05 623.07,-144.88 627.43,-143.85 631.93,-142.96 636.58,-142.23 641.35,-141.64 646.23,-141.22 651.23,-140.95 656.32,-140.84 661.49,-140.89 666.73,-141.11 672.03,-141.48 677.36,-142.01 682.72,-142.7 688.09,-143.55 693.44,-144.55 698.77,-145.69 704.05,-146.97 709.27,-148.39 714.4,-149.94 719.43,-151.62 724.34,-153.41 729.12,-155.3 733.73,-157.3 738.17,-159.39 742.41,-161.57 746.44,-163.81"/>
<text text-anchor="middle" x="666.1" y="-185.4" font-family="sans-serif" font-size="16.00">LawContext</text>
</g>
<!-- LawContext&#45;&gt;ChatbotAndVoiceContext -->
<g id="edge9" class="edge">
<title>LawContext&#45;&gt;ChatbotAndVoiceContext</title>
<path fill="none" stroke="black" stroke-width="2" d="M608.99,-149.53C582.16,-131.36 550.04,-109.61 522.26,-90.81"/>
<text text-anchor="middle" x="642.6" y="-112.77" font-family="sans-serif" font-size="12.00"> &#160;&#160;&#160;&#160;&#160;&#160;&#160;&#160;&#160;&#160;&#160;&#160;&#160;&#160;&#160;&#160;&#160;&#160;&#160;&#160;&#160;&#160;&#160;&#160;&#160;&#160;&#160;&#160;&#160;&#160;&#160;&#160;&#160;&#160;&#160;&#160;&#160;&#160;&#160;</text>
<polygon fill="white" stroke="transparent" points="499.26,-80.81 499.26,-99.81 515.26,-99.81 515.26,-80.81 499.26,-80.81"/>
<polyline fill="none" stroke="black" points="515.26,-80.81 515.26,-99.81 "/>
<text text-anchor="start" x="502.26" y="-87.21" font-family="sans-serif" font-size="12.00">D</text>
<polygon fill="white" stroke="transparent" points="515.26,-80.81 515.26,-99.81 545.26,-99.81 545.26,-80.81 515.26,-80.81"/>
<polygon fill="none" stroke="black" points="515.26,-80.81 515.26,-99.81 545.26,-99.81 545.26,-80.81 515.26,-80.81"/>
<text text-anchor="start" x="518.26" y="-87.21" font-family="sans-serif" font-size="12.00">ACL</text>
<polygon fill="white" stroke="transparent" points="601.99,-140.53 601.99,-157.53 615.99,-157.53 615.99,-140.53 601.99,-140.53"/>
<text text-anchor="start" x="603.99" y="-145.93" font-family="sans-serif" font-size="12.00">U</text>
</g>
<!-- PaymentGateways -->
<g id="node8" class="node">
<title>PaymentGateways</title>
<polygon fill="none" stroke="black" stroke-width="2" points="584.27,-693.3 587.81,-695.93 590.98,-698.6 593.76,-701.28 596.14,-703.97 598.11,-706.66 599.65,-709.33 600.77,-711.98 601.45,-714.61 601.68,-717.19 601.47,-719.72 600.81,-722.19 599.71,-724.6 598.15,-726.93 596.16,-729.19 593.72,-731.35 590.86,-733.43 587.58,-735.41 583.88,-737.29 579.79,-739.06 575.31,-740.72 570.47,-742.28 565.28,-743.72 559.75,-745.05 553.92,-746.26 547.79,-747.36 541.39,-748.34 534.75,-749.22 527.89,-749.97 520.82,-750.62 513.59,-751.16 506.21,-751.59 498.71,-751.91 491.12,-752.13 483.46,-752.25 475.76,-752.27 468.04,-752.2 460.33,-752.04 452.66,-751.79 445.05,-751.45 437.51,-751.02 430.09,-750.52 422.79,-749.94 415.65,-749.28 408.67,-748.55 401.88,-747.74 395.3,-746.87 388.94,-745.92 382.82,-744.91 376.96,-743.84 371.36,-742.69 366.04,-741.49 361.01,-740.22 356.27,-738.89 351.85,-737.5 347.74,-736.05 343.95,-734.55 340.48,-732.98 337.34,-731.35 334.54,-729.67 332.06,-727.93 329.92,-726.14 328.12,-724.29 326.65,-722.39 325.51,-720.45 324.7,-718.45 324.21,-716.42 324.05,-714.34 324.22,-712.22 324.7,-710.07 325.49,-707.89 326.59,-705.68 328,-703.45 329.7,-701.2 331.7,-698.95 333.98,-696.69 336.54,-694.44 339.39,-692.2 342.5,-689.97 345.87,-687.77 349.51,-685.6 353.39,-683.47 357.52,-681.39 361.89,-679.37 366.49,-677.41 371.31,-675.53 376.34,-673.73 381.59,-672.02 387.03,-670.41 392.66,-668.9 398.46,-667.51 404.44,-666.24 410.58,-665.1 416.87,-664.1 423.29,-663.23 429.83,-662.52 436.49,-661.95 443.24,-661.54 450.07,-661.29 456.97,-661.2 463.92,-661.27 470.9,-661.51 477.9,-661.91 484.89,-662.48 491.87,-663.22 498.81,-664.11 505.69,-665.16 512.49,-666.37 519.19,-667.73 525.77,-669.24 532.21,-670.88 538.49,-672.66 544.58,-674.57 550.47,-676.59 556.14,-678.72 561.56,-680.96 566.71,-683.28 571.57,-685.69 576.14,-688.17 580.37,-690.71 584.27,-693.3"/>
<text text-anchor="middle" x="457.1" y="-706.18" font-family="sans-serif" font-size="16.00">PaymentGateways</text>
</g>
<!-- PaymentGateways&#45;&gt;PaymentContext -->
<g id="edge10" class="edge">
<title>PaymentGateways&#45;&gt;PaymentContext</title>
<path fill="none" stroke="black" stroke-width="2" d="M457.1,-660.9C457.1,-643.35 457.1,-623.68 457.1,-606.8"/>
<text text-anchor="middle" x="532.6" y="-633.49" font-family="sans-serif" font-size="12.00"> &#160;&#160;&#160;&#160;&#160;&#160;&#160;&#160;&#160;&#160;&#160;&#160;&#160;&#160;&#160;&#160;&#160;&#160;&#160;&#160;&#160;&#160;&#160;&#160;&#160;&#160;&#160;&#160;&#160;&#160;&#160;&#160;&#160;&#160;&#160;&#160;&#160;&#160;&#160;</text>
<polygon fill="white" stroke="transparent" points="434.1,-596.8 434.1,-615.8 450.1,-615.8 450.1,-596.8 434.1,-596.8"/>
<polyline fill="none" stroke="black" points="450.1,-596.8 450.1,-615.8 "/>
<text text-anchor="start" x="437.1" y="-603.2" font-family="sans-serif" font-size="12.00">D</text>
<polygon fill="white" stroke="transparent" points="450.1,-596.8 450.1,-615.8 480.1,-615.8 480.1,-596.8 450.1,-596.8"/>
<polygon fill="none" stroke="black" points="450.1,-596.8 450.1,-615.8 480.1,-615.8 480.1,-596.8 450.1,-596.8"/>
<text text-anchor="start" x="453.1" y="-603.2" font-family="sans-serif" font-size="12.00">ACL</text>
<polygon fill="white" stroke="transparent" points="450.1,-651.9 450.1,-668.9 464.1,-668.9 464.1,-651.9 450.1,-651.9"/>
<text text-anchor="start" x="452.1" y="-657.3" font-family="sans-serif" font-size="12.00">U</text>
</g>
<!-- PersonaContext -->
<g id="node9" class="node">
<title>PersonaContext</title>
<polygon fill="none" stroke="black" stroke-width="2" points="857.31,-225.2 850.74,-223.61 844.4,-221.93 838.32,-220.17 832.52,-218.33 827.02,-216.42 821.86,-214.45 817.05,-212.42 812.6,-210.34 808.55,-208.22 804.9,-206.06 801.67,-203.88 798.86,-201.67 796.5,-199.45 794.59,-197.22 793.12,-194.98 792.12,-192.75 791.57,-190.52 791.47,-188.31 791.82,-186.12 792.62,-183.95 793.86,-181.81 795.52,-179.7 797.61,-177.63 800.09,-175.6 802.96,-173.62 806.2,-171.69 809.79,-169.81 813.72,-167.98 817.96,-166.22 822.49,-164.51 827.29,-162.88 832.34,-161.31 837.61,-159.8 843.08,-158.38 848.73,-157.02 854.53,-155.74 860.47,-154.55 866.51,-153.43 872.64,-152.39 878.83,-151.44 885.07,-150.57 891.33,-149.8 897.6,-149.11 903.85,-148.51 910.07,-148.01 916.24,-147.6 922.35,-147.29 928.39,-147.08 934.33,-146.96 940.18,-146.95 945.92,-147.03 951.54,-147.22 957.03,-147.52 962.38,-147.91 967.59,-148.41 972.66,-149.02 977.58,-149.73 982.34,-150.55 986.94,-151.47 991.38,-152.5 995.65,-153.63 999.76,-154.86 1003.7,-156.19 1007.47,-157.63 1011.06,-159.16 1014.48,-160.78 1017.73,-162.49 1020.79,-164.29 1023.67,-166.18 1026.37,-168.14 1028.87,-170.18 1031.19,-172.29 1033.31,-174.46 1035.22,-176.7 1036.93,-178.98 1038.42,-181.31 1039.7,-183.69 1040.75,-186.09 1041.57,-188.52 1042.15,-190.96 1042.48,-193.42 1042.56,-195.87 1042.38,-198.33 1041.93,-200.76 1041.2,-203.17 1040.19,-205.55 1038.9,-207.89 1037.3,-210.18 1035.41,-212.42 1033.21,-214.59 1030.71,-216.69 1027.89,-218.71 1024.77,-220.64 1021.33,-222.47 1017.58,-224.21 1013.52,-225.83 1009.15,-227.35 1004.49,-228.74 999.53,-230.01 994.29,-231.16 988.78,-232.17 983.01,-233.04 976.99,-233.78 970.74,-234.37 964.27,-234.83 957.61,-235.14 950.77,-235.3 943.78,-235.33 936.66,-235.21 929.44,-234.95 922.13,-234.55 914.77,-234.01 907.38,-233.33 899.99,-232.53 892.64,-231.6 885.34,-230.54 878.13,-229.37 871.03,-228.09 864.08,-226.69 857.31,-225.2"/>
<text text-anchor="middle" x="926.1" y="-185.4" font-family="sans-serif" font-size="16.00">PersonaContext</text>
</g>
<!-- PersonaContext&#45;&gt;ChatbotAndVoiceContext -->
<g id="edge11" class="edge">
<title>PersonaContext&#45;&gt;ChatbotAndVoiceContext</title>
<path fill="none" stroke="black" stroke-width="2" d="M850.92,-156.32C812.77,-140.87 765.44,-122.8 722.1,-109.37 683.71,-97.47 641.6,-86.56 602.48,-77.3"/>
<text text-anchor="middle" x="830.6" y="-112.77" font-family="sans-serif" font-size="12.00"> &#160;&#160;&#160;&#160;&#160;&#160;&#160;&#160;&#160;&#160;&#160;&#160;&#160;&#160;&#160;&#160;&#160;&#160;&#160;&#160;&#160;&#160;&#160;&#160;&#160;&#160;&#160;&#160;&#160;&#160;&#160;&#160;&#160;&#160;&#160;&#160;&#160;&#160;&#160;</text>
<polygon fill="white" stroke="transparent" points="579.48,-67.3 579.48,-86.3 595.48,-86.3 595.48,-67.3 579.48,-67.3"/>
<polyline fill="none" stroke="black" points="595.48,-67.3 595.48,-86.3 "/>
<text text-anchor="start" x="582.48" y="-73.7" font-family="sans-serif" font-size="12.00">D</text>
<polygon fill="white" stroke="transparent" points="595.48,-67.3 595.48,-86.3 625.48,-86.3 625.48,-67.3 595.48,-67.3"/>
<polygon fill="none" stroke="black" points="595.48,-67.3 595.48,-86.3 625.48,-86.3 625.48,-67.3 595.48,-67.3"/>
<text text-anchor="start" x="598.48" y="-73.7" font-family="sans-serif" font-size="12.00">ACL</text>
<polygon fill="white" stroke="transparent" points="815.92,-146.32 815.92,-165.32 831.92,-165.32 831.92,-146.32 815.92,-146.32"/>
<polyline fill="none" stroke="black" points="831.92,-146.32 831.92,-165.32 "/>
<text text-anchor="start" x="818.92" y="-152.72" font-family="sans-serif" font-size="12.00">U</text>
<polygon fill="white" stroke="transparent" points="831.92,-146.32 831.92,-165.32 886.92,-165.32 886.92,-146.32 831.92,-146.32"/>
<polygon fill="none" stroke="black" points="831.92,-146.32 831.92,-165.32 886.92,-165.32 886.92,-146.32 831.92,-146.32"/>
<text text-anchor="start" x="834.92" y="-152.72" font-family="sans-serif" font-size="12.00">OHS, PL</text>
</g>
<!-- SettingContext -->
<g id="node10" class="node">
<title>SettingContext</title>
<polygon fill="none" stroke="black" stroke-width="2" points="824.38,-742.8 818.72,-744.72 812.88,-746.54 806.89,-748.24 800.76,-749.83 794.53,-751.3 788.2,-752.63 781.82,-753.83 775.39,-754.88 768.94,-755.79 762.5,-756.55 756.07,-757.16 749.69,-757.61 743.38,-757.9 737.14,-758.03 730.99,-758 724.96,-757.82 719.06,-757.47 713.3,-756.97 707.7,-756.31 702.26,-755.51 696.99,-754.56 691.92,-753.47 687.04,-752.24 682.36,-750.87 677.89,-749.39 673.63,-747.78 669.59,-746.07 665.78,-744.25 662.2,-742.34 658.84,-740.34 655.71,-738.26 652.82,-736.11 650.16,-733.9 647.73,-731.63 645.54,-729.33 643.58,-726.98 641.86,-724.61 640.37,-722.22 639.12,-719.82 638.1,-717.42 637.32,-715.02 636.76,-712.64 636.45,-710.28 636.36,-707.94 636.51,-705.64 636.9,-703.37 637.52,-701.16 638.38,-698.99 639.47,-696.87 640.8,-694.82 642.36,-692.83 644.17,-690.91 646.21,-689.05 648.49,-687.27 651.01,-685.56 653.77,-683.93 656.77,-682.38 660,-680.91 663.47,-679.52 667.17,-678.21 671.1,-676.98 675.26,-675.84 679.64,-674.78 684.23,-673.81 689.04,-672.92 694.04,-672.11 699.25,-671.39 704.64,-670.75 710.2,-670.19 715.92,-669.72 721.8,-669.34 727.81,-669.03 733.95,-668.82 740.18,-668.69 746.51,-668.64 752.91,-668.68 759.36,-668.8 765.84,-669.02 772.33,-669.32 778.81,-669.71 785.25,-670.18 791.64,-670.75 797.96,-671.4 804.17,-672.15 810.25,-672.99 816.19,-673.92 821.96,-674.94 827.53,-676.05 832.89,-677.26 838,-678.55 842.86,-679.94 847.43,-681.41 851.71,-682.98 855.67,-684.63 859.29,-686.36 862.56,-688.18 865.47,-690.07 867.99,-692.05 870.13,-694.09 871.87,-696.21 873.2,-698.38 874.12,-700.62 874.62,-702.91 874.71,-705.24 874.37,-707.62 873.62,-710.03 872.45,-712.47 870.88,-714.93 868.9,-717.39 866.53,-719.86 863.78,-722.33 860.66,-724.78 857.19,-727.21 853.38,-729.61 849.24,-731.96 844.8,-734.26 840.07,-736.51 835.08,-738.69 829.84,-740.79 824.38,-742.8"/>
<text text-anchor="middle" x="747.1" y="-706.18" font-family="sans-serif" font-size="16.00">SettingContext</text>
</g>
</g>
</svg>
