<svg width="2000px" height="2381px"
 viewBox="0.00 0.00 331.14 393.60" xmlns="http://www.w3.org/2000/svg" xmlns:xlink="http://www.w3.org/1999/xlink">
<g id="graph0" class="graph" transform="scale(1.0 1.0) rotate(0) translate(4 389.6)">
<title>ContextMapGraph</title>
<polygon fill="white" stroke="transparent" points="-4,4 -4,-389.6 327.14,-389.6 327.14,4 -4,4"/>
<!-- LearnerContext -->
<g id="node1" class="node">
<title>LearnerContext</title>
<polygon fill="none" stroke="black" stroke-width="2" points="85.19,-226.89 79.1,-225.09 73.25,-223.21 67.68,-221.26 62.4,-219.24 57.44,-217.16 52.82,-215.03 48.56,-212.85 44.68,-210.63 41.19,-208.39 38.1,-206.12 35.44,-203.83 33.2,-201.54 31.4,-199.24 30.05,-196.95 29.14,-194.67 28.68,-192.41 28.67,-190.17 29.1,-187.95 29.97,-185.77 31.28,-183.63 33.01,-181.53 35.15,-179.48 37.7,-177.48 40.63,-175.53 43.93,-173.64 47.58,-171.81 51.57,-170.05 55.88,-168.35 60.47,-166.72 65.35,-165.16 70.47,-163.68 75.82,-162.27 81.37,-160.93 87.1,-159.68 92.99,-158.51 99.02,-157.41 105.15,-156.4 111.37,-155.48 117.66,-154.64 123.99,-153.88 130.34,-153.21 136.7,-152.64 143.04,-152.15 149.34,-151.75 155.59,-151.44 161.77,-151.23 167.87,-151.11 173.87,-151.09 179.76,-151.16 185.52,-151.33 191.16,-151.6 196.65,-151.97 201.99,-152.43 207.17,-153 212.19,-153.66 217.04,-154.43 221.71,-155.3 226.21,-156.26 230.53,-157.33 234.66,-158.5 238.6,-159.76 242.35,-161.12 245.92,-162.58 249.29,-164.13 252.47,-165.77 255.45,-167.5 258.24,-169.31 260.83,-171.21 263.22,-173.18 265.41,-175.23 267.39,-177.35 269.17,-179.53 270.74,-181.77 272.1,-184.06 273.23,-186.39 274.15,-188.77 274.84,-191.18 275.31,-193.61 275.53,-196.07 275.52,-198.53 275.27,-200.99 274.76,-203.45 273.99,-205.89 272.97,-208.31 271.68,-210.69 270.12,-213.04 268.28,-215.34 266.16,-217.58 263.76,-219.75 261.08,-221.85 258.11,-223.87 254.86,-225.79 251.31,-227.62 247.49,-229.35 243.38,-230.96 238.99,-232.46 234.32,-233.84 229.4,-235.08 224.21,-236.19 218.77,-237.17 213.1,-238.01 207.2,-238.7 201.09,-239.24 194.79,-239.64 188.31,-239.89 181.67,-239.99 174.9,-239.94 168,-239.74 161.01,-239.4 153.95,-238.91 146.85,-238.27 139.72,-237.5 132.6,-236.6 125.51,-235.56 118.48,-234.4 111.54,-233.11 104.71,-231.72 98.03,-230.21 91.51,-228.6 85.19,-226.89"/>
<text text-anchor="middle" x="161.57" y="-189.3" font-family="sans-serif" font-size="16.00">LearnerContext</text>
</g>
<!-- LearningContext -->
<g id="node2" class="node">
<title>LearningContext</title>
<polygon fill="none" stroke="black" stroke-width="2" points="45.94,-30.93 49.14,-28.28 52.63,-25.69 56.41,-23.18 60.47,-20.76 64.78,-18.43 69.33,-16.21 74.12,-14.1 79.12,-12.12 84.32,-10.27 89.69,-8.55 95.24,-6.98 100.93,-5.55 106.75,-4.28 112.69,-3.17 118.73,-2.22 124.86,-1.43 131.05,-0.81 137.3,-0.35 143.58,-0.05 149.88,0.08 156.19,0.05 162.49,-0.14 168.76,-0.49 175,-0.99 181.18,-1.63 187.3,-2.42 193.34,-3.34 199.29,-4.39 205.13,-5.56 210.85,-6.86 216.44,-8.25 221.9,-9.75 227.2,-11.35 232.33,-13.03 237.29,-14.78 242.06,-16.61 246.64,-18.5 251.01,-20.44 255.16,-22.43 259.09,-24.46 262.78,-26.52 266.23,-28.61 269.42,-30.71 272.35,-32.83 275.01,-34.95 277.4,-37.08 279.5,-39.2 281.3,-41.31 282.81,-43.41 284.02,-45.5 284.92,-47.56 285.5,-49.6 285.76,-51.62 285.71,-53.61 285.32,-55.56 284.61,-57.49 283.58,-59.38 282.21,-61.24 280.51,-63.06 278.49,-64.84 276.14,-66.58 273.47,-68.28 270.48,-69.95 267.17,-71.57 263.56,-73.14 259.65,-74.67 255.44,-76.16 250.95,-77.6 246.19,-78.99 241.16,-80.33 235.88,-81.62 230.37,-82.85 224.64,-84.02 218.7,-85.13 212.56,-86.18 206.26,-87.16 199.8,-88.07 193.2,-88.91 186.49,-89.67 179.68,-90.34 172.79,-90.93 165.85,-91.43 158.88,-91.84 151.89,-92.14 144.92,-92.35 137.98,-92.44 131.09,-92.43 124.29,-92.3 117.58,-92.05 111,-91.69 104.56,-91.19 98.28,-90.58 92.19,-89.83 86.31,-88.96 80.65,-87.95 75.23,-86.81 70.08,-85.54 65.2,-84.15 60.61,-82.62 56.34,-80.97 52.38,-79.2 48.75,-77.3 45.47,-75.3 42.54,-73.18 39.97,-70.96 37.76,-68.64 35.93,-66.23 34.47,-63.74 33.4,-61.18 32.7,-58.55 32.38,-55.86 32.44,-53.13 32.87,-50.36 33.68,-47.57 34.85,-44.77 36.39,-41.96 38.27,-39.16 40.5,-36.38 43.06,-33.63 45.94,-30.93"/>
<text text-anchor="middle" x="161.57" y="-44.78" font-family="sans-serif" font-size="16.00">LearningContext</text>
</g>
<!-- LearnerContext&#45;&gt;LearningContext -->
<g id="edge1" class="edge">
<title>LearnerContext&#45;&gt;LearningContext</title>
<path fill="none" stroke="black" stroke-width="2" d="M161.57,-150.88C161.57,-132.3 161.57,-110.38 161.57,-91.7"/>
<text text-anchor="middle" x="237.07" y="-118.55" font-family="sans-serif" font-size="12.00"> &#160;&#160;&#160;&#160;&#160;&#160;&#160;&#160;&#160;&#160;&#160;&#160;&#160;&#160;&#160;&#160;&#160;&#160;&#160;&#160;&#160;&#160;&#160;&#160;&#160;&#160;&#160;&#160;&#160;&#160;&#160;&#160;&#160;&#160;&#160;&#160;&#160;&#160;&#160;</text>
<polygon fill="white" stroke="transparent" points="154.57,-82.7 154.57,-99.7 168.57,-99.7 168.57,-82.7 154.57,-82.7"/>
<text text-anchor="start" x="156.57" y="-88.1" font-family="sans-serif" font-size="12.00">D</text>
<polygon fill="white" stroke="transparent" points="137.57,-140.88 137.57,-159.88 153.57,-159.88 153.57,-140.88 137.57,-140.88"/>
<polyline fill="none" stroke="black" points="153.57,-140.88 153.57,-159.88 "/>
<text text-anchor="start" x="140.57" y="-147.28" font-family="sans-serif" font-size="12.00">U</text>
<polygon fill="white" stroke="transparent" points="153.57,-140.88 153.57,-159.88 186.57,-159.88 186.57,-140.88 153.57,-140.88"/>
<polygon fill="none" stroke="black" points="153.57,-140.88 153.57,-159.88 186.57,-159.88 186.57,-140.88 153.57,-140.88"/>
<text text-anchor="start" x="156.57" y="-147.28" font-family="sans-serif" font-size="12.00">OHS</text>
</g>
<!-- SubscriptionContext -->
<g id="node3" class="node">
<title>SubscriptionContext</title>
<polygon fill="none" stroke="black" stroke-width="2" points="279.34,-310.79 285.33,-313.03 290.95,-315.34 296.19,-317.69 301.02,-320.09 305.42,-322.51 309.37,-324.97 312.85,-327.43 315.85,-329.9 318.36,-332.37 320.35,-334.83 321.83,-337.26 322.78,-339.68 323.21,-342.05 323.1,-344.39 322.47,-346.68 321.3,-348.91 319.61,-351.09 317.41,-353.2 314.7,-355.25 311.5,-357.22 307.82,-359.12 303.68,-360.93 299.09,-362.67 294.08,-364.32 288.66,-365.88 282.87,-367.36 276.71,-368.74 270.23,-370.04 263.45,-371.24 256.39,-372.36 249.09,-373.38 241.57,-374.31 233.86,-375.14 225.99,-375.89 218,-376.55 209.9,-377.11 201.73,-377.59 193.53,-377.98 185.31,-378.28 177.1,-378.49 168.93,-378.62 160.83,-378.66 152.81,-378.61 144.91,-378.48 137.14,-378.26 129.52,-377.96 122.08,-377.57 114.83,-377.1 107.78,-376.55 100.96,-375.91 94.37,-375.19 88.02,-374.38 81.94,-373.49 76.12,-372.51 70.57,-371.45 65.3,-370.31 60.32,-369.09 55.64,-367.78 51.24,-366.39 47.15,-364.92 43.35,-363.36 39.86,-361.73 36.67,-360.03 33.78,-358.24 31.19,-356.39 28.9,-354.47 26.92,-352.47 25.24,-350.42 23.85,-348.31 22.77,-346.14 21.98,-343.92 21.5,-341.66 21.31,-339.35 21.41,-337.02 21.81,-334.66 22.51,-332.27 23.51,-329.88 24.8,-327.47 26.39,-325.07 28.27,-322.69 30.45,-320.31 32.93,-317.97 35.71,-315.66 38.78,-313.4 42.15,-311.19 45.81,-309.04 49.77,-306.96 54.03,-304.96 58.57,-303.04 63.4,-301.23 68.51,-299.51 73.9,-297.91 79.56,-296.42 85.49,-295.06 91.67,-293.83 98.1,-292.74 104.77,-291.79 111.66,-290.98 118.76,-290.33 126.06,-289.83 133.53,-289.48 141.17,-289.29 148.95,-289.27 156.85,-289.4 164.86,-289.69 172.94,-290.14 181.07,-290.74 189.24,-291.5 197.4,-292.41 205.55,-293.47 213.63,-294.66 221.64,-296 229.54,-297.46 237.3,-299.05 244.9,-300.76 252.3,-302.58 259.47,-304.5 266.38,-306.51 273.02,-308.61 279.34,-310.79"/>
<text text-anchor="middle" x="161.57" y="-333.52" font-family="sans-serif" font-size="16.00">SubscriptionContext</text>
</g>
<!-- SubscriptionContext&#45;&gt;LearnerContext -->
<g id="edge2" class="edge">
<title>SubscriptionContext&#45;&gt;LearnerContext</title>
<path fill="none" stroke="black" stroke-width="2" d="M161.57,-289.36C161.57,-273.34 161.57,-255.46 161.57,-239.56"/>
<text text-anchor="middle" x="237.07" y="-261.44" font-family="sans-serif" font-size="12.00"> &#160;&#160;&#160;&#160;&#160;&#160;&#160;&#160;&#160;&#160;&#160;&#160;&#160;&#160;&#160;&#160;&#160;&#160;&#160;&#160;&#160;&#160;&#160;&#160;&#160;&#160;&#160;&#160;&#160;&#160;&#160;&#160;&#160;&#160;&#160;&#160;&#160;&#160;&#160;</text>
<polygon fill="white" stroke="transparent" points="138.57,-229.56 138.57,-248.56 154.57,-248.56 154.57,-229.56 138.57,-229.56"/>
<polyline fill="none" stroke="black" points="154.57,-229.56 154.57,-248.56 "/>
<text text-anchor="start" x="141.57" y="-235.96" font-family="sans-serif" font-size="12.00">D</text>
<polygon fill="white" stroke="transparent" points="154.57,-229.56 154.57,-248.56 184.57,-248.56 184.57,-229.56 154.57,-229.56"/>
<polygon fill="none" stroke="black" points="154.57,-229.56 154.57,-248.56 184.57,-248.56 184.57,-229.56 154.57,-229.56"/>
<text text-anchor="start" x="157.57" y="-235.96" font-family="sans-serif" font-size="12.00">ACL</text>
<polygon fill="white" stroke="transparent" points="126.57,-279.36 126.57,-298.36 142.57,-298.36 142.57,-279.36 126.57,-279.36"/>
<polyline fill="none" stroke="black" points="142.57,-279.36 142.57,-298.36 "/>
<text text-anchor="start" x="129.57" y="-285.76" font-family="sans-serif" font-size="12.00">U</text>
<polygon fill="white" stroke="transparent" points="142.57,-279.36 142.57,-298.36 197.57,-298.36 197.57,-279.36 142.57,-279.36"/>
<polygon fill="none" stroke="black" points="142.57,-279.36 142.57,-298.36 197.57,-298.36 197.57,-279.36 142.57,-279.36"/>
<text text-anchor="start" x="145.57" y="-285.76" font-family="sans-serif" font-size="12.00">OHS, PL</text>
</g>
</g>
</svg>
