<svg width="2000px" height="1209px"
 viewBox="0.00 0.00 1238.75 749.43" xmlns="http://www.w3.org/2000/svg" xmlns:xlink="http://www.w3.org/1999/xlink">
<g id="graph0" class="graph" transform="scale(1.0 1.0) rotate(0) translate(4 745.43)">
<title>ContextMapGraph</title>
<polygon fill="white" stroke="transparent" points="-4,4 -4,-745.43 1234.75,-745.43 1234.75,4 -4,4"/>
<!-- AuthContext -->
<g id="node1" class="node">
<title>AuthContext</title>
<polygon fill="none" stroke="black" stroke-width="2" points="173.97,-658.86 179.59,-660.45 185.02,-662.13 190.22,-663.89 195.19,-665.73 199.89,-667.64 204.31,-669.61 208.43,-671.64 212.23,-673.72 215.7,-675.84 218.82,-677.99 221.59,-680.18 223.99,-682.38 226.01,-684.61 227.65,-686.84 228.9,-689.08 229.76,-691.31 230.23,-693.54 230.31,-695.75 230.01,-697.94 229.33,-700.11 228.27,-702.25 226.84,-704.36 225.06,-706.43 222.94,-708.46 220.48,-710.44 217.71,-712.37 214.63,-714.25 211.27,-716.07 207.65,-717.84 203.77,-719.54 199.66,-721.18 195.34,-722.75 190.83,-724.25 186.15,-725.68 181.31,-727.03 176.35,-728.31 171.27,-729.51 166.1,-730.63 160.85,-731.67 155.55,-732.62 150.21,-733.48 144.86,-734.26 139.5,-734.95 134.15,-735.54 128.82,-736.04 123.54,-736.45 118.31,-736.76 113.15,-736.98 108.06,-737.09 103.05,-737.11 98.14,-737.02 93.34,-736.83 88.64,-736.54 84.06,-736.14 79.59,-735.64 75.26,-735.04 71.05,-734.32 66.98,-733.51 63.04,-732.58 59.24,-731.56 55.58,-730.43 52.07,-729.2 48.7,-727.86 45.47,-726.43 42.4,-724.9 39.47,-723.28 36.69,-721.57 34.07,-719.76 31.61,-717.88 29.3,-715.91 27.15,-713.88 25.17,-711.77 23.36,-709.59 21.72,-707.36 20.26,-705.07 18.98,-702.74 17.89,-700.37 16.99,-697.97 16.29,-695.54 15.79,-693.09 15.51,-690.64 15.44,-688.18 15.6,-685.73 15.98,-683.3 16.6,-680.88 17.47,-678.5 18.58,-676.16 19.94,-673.87 21.56,-671.64 23.44,-669.47 25.58,-667.37 27.99,-665.35 30.67,-663.42 33.61,-661.58 36.82,-659.85 40.3,-658.22 44.03,-656.71 48.02,-655.31 52.26,-654.04 56.75,-652.9 61.46,-651.89 66.4,-651.01 71.55,-650.28 76.9,-649.68 82.44,-649.23 88.14,-648.92 93.99,-648.75 99.97,-648.73 106.06,-648.85 112.25,-649.11 118.5,-649.51 124.8,-650.05 131.12,-650.72 137.44,-651.53 143.74,-652.46 149.99,-653.51 156.16,-654.68 162.23,-655.97 168.17,-657.36 173.97,-658.86"/>
<text text-anchor="middle" x="115.1" y="-691.06" font-family="sans-serif" font-size="16.00">AuthContext</text>
</g>
<!-- ConversationContext -->
<g id="node2" class="node">
<title>ConversationContext</title>
<polygon fill="none" stroke="black" stroke-width="2" points="434.73,-451.33 425.2,-450.55 415.86,-449.66 406.73,-448.67 397.86,-447.57 389.28,-446.37 381.02,-445.07 373.12,-443.68 365.61,-442.2 358.52,-440.64 351.87,-438.99 345.68,-437.28 339.99,-435.49 334.8,-433.64 330.13,-431.74 325.99,-429.77 322.41,-427.76 319.37,-425.71 316.89,-423.61 314.96,-421.49 313.6,-419.34 312.78,-417.17 312.51,-414.98 312.77,-412.78 313.56,-410.57 314.85,-408.37 316.64,-406.17 318.91,-403.98 321.63,-401.81 324.79,-399.65 328.36,-397.53 332.32,-395.44 336.65,-393.38 341.32,-391.36 346.31,-389.39 351.59,-387.48 357.13,-385.61 362.91,-383.81 368.91,-382.07 375.09,-380.4 381.45,-378.81 387.95,-377.29 394.57,-375.85 401.29,-374.5 408.1,-373.23 414.96,-372.06 421.88,-370.98 428.82,-370 435.77,-369.12 442.73,-368.35 449.67,-367.68 456.6,-367.12 463.49,-366.68 470.33,-366.34 477.13,-366.12 483.88,-366.01 490.56,-366.03 497.17,-366.15 503.71,-366.4 510.18,-366.76 516.56,-367.24 522.86,-367.84 529.06,-368.55 535.18,-369.38 541.2,-370.32 547.11,-371.37 552.92,-372.53 558.61,-373.8 564.18,-375.17 569.63,-376.64 574.94,-378.2 580.11,-379.86 585.12,-381.61 589.96,-383.44 594.63,-385.35 599.11,-387.33 603.38,-389.38 607.44,-391.49 611.26,-393.66 614.83,-395.88 618.14,-398.14 621.16,-400.43 623.88,-402.76 626.29,-405.11 628.36,-407.48 630.07,-409.85 631.42,-412.22 632.37,-414.59 632.93,-416.95 633.07,-419.29 632.77,-421.6 632.04,-423.87 630.84,-426.1 629.18,-428.29 627.05,-430.42 624.44,-432.49 621.35,-434.49 617.78,-436.41 613.72,-438.26 609.18,-440.02 604.16,-441.69 598.68,-443.27 592.74,-444.75 586.37,-446.12 579.56,-447.38 572.35,-448.54 564.75,-449.58 556.79,-450.5 548.5,-451.3 539.89,-451.98 531.01,-452.54 521.88,-452.98 512.54,-453.29 503.03,-453.47 493.37,-453.53 483.62,-453.47 473.8,-453.28 463.97,-452.97 454.15,-452.54 444.39,-452 434.73,-451.33"/>
<text text-anchor="middle" x="478.1" y="-405.62" font-family="sans-serif" font-size="16.00">ConversationContext</text>
</g>
<!-- AuthContext&#45;&gt;ConversationContext -->
<g id="edge1" class="edge">
<title>AuthContext&#45;&gt;ConversationContext</title>
<path fill="none" stroke="black" stroke-width="2" d="M100.08,-648.66C89.1,-606.41 81.1,-543.84 113.1,-502.73 139.91,-468.3 238.02,-444.68 325.77,-429.96"/>
<text text-anchor="middle" x="188.6" y="-547.9" font-family="sans-serif" font-size="12.00"> &#160;&#160;&#160;&#160;&#160;&#160;&#160;&#160;&#160;&#160;&#160;&#160;&#160;&#160;&#160;&#160;&#160;&#160;&#160;&#160;&#160;&#160;&#160;&#160;&#160;&#160;&#160;&#160;&#160;&#160;&#160;&#160;&#160;&#160;&#160;&#160;&#160;&#160;&#160;</text>
<polygon fill="white" stroke="transparent" points="302.77,-419.96 302.77,-438.96 318.77,-438.96 318.77,-419.96 302.77,-419.96"/>
<polyline fill="none" stroke="black" points="318.77,-419.96 318.77,-438.96 "/>
<text text-anchor="start" x="305.77" y="-426.36" font-family="sans-serif" font-size="12.00">D</text>
<polygon fill="white" stroke="transparent" points="318.77,-419.96 318.77,-438.96 348.77,-438.96 348.77,-419.96 318.77,-419.96"/>
<polygon fill="none" stroke="black" points="318.77,-419.96 318.77,-438.96 348.77,-438.96 348.77,-419.96 318.77,-419.96"/>
<text text-anchor="start" x="321.77" y="-426.36" font-family="sans-serif" font-size="12.00">ACL</text>
<polygon fill="white" stroke="transparent" points="65.08,-638.66 65.08,-657.66 81.08,-657.66 81.08,-638.66 65.08,-638.66"/>
<polyline fill="none" stroke="black" points="81.08,-638.66 81.08,-657.66 "/>
<text text-anchor="start" x="68.08" y="-645.06" font-family="sans-serif" font-size="12.00">U</text>
<polygon fill="white" stroke="transparent" points="81.08,-638.66 81.08,-657.66 136.08,-657.66 136.08,-638.66 81.08,-638.66"/>
<polygon fill="none" stroke="black" points="81.08,-638.66 81.08,-657.66 136.08,-657.66 136.08,-638.66 81.08,-638.66"/>
<text text-anchor="start" x="84.08" y="-645.06" font-family="sans-serif" font-size="12.00">OHS, PL</text>
</g>
<!-- PaymentContext -->
<g id="node5" class="node">
<title>PaymentContext</title>
<polygon fill="none" stroke="black" stroke-width="2" points="511.44,-524.47 516.54,-526.71 521.33,-529.02 525.8,-531.37 529.91,-533.77 533.66,-536.2 537.02,-538.65 539.99,-541.12 542.55,-543.59 544.68,-546.05 546.38,-548.51 547.64,-550.95 548.45,-553.36 548.81,-555.74 548.72,-558.07 548.18,-560.36 547.19,-562.6 545.75,-564.77 543.88,-566.89 541.57,-568.93 538.84,-570.91 535.71,-572.8 532.18,-574.62 528.27,-576.35 524,-578 519.38,-579.57 514.44,-581.04 509.2,-582.43 503.68,-583.72 497.9,-584.93 491.89,-586.04 485.67,-587.06 479.26,-587.99 472.69,-588.83 465.99,-589.57 459.18,-590.23 452.28,-590.8 445.32,-591.27 438.33,-591.66 431.33,-591.96 424.34,-592.17 417.38,-592.3 410.47,-592.34 403.64,-592.29 396.91,-592.16 390.29,-591.94 383.8,-591.64 377.46,-591.26 371.28,-590.79 365.28,-590.23 359.47,-589.59 353.85,-588.87 348.45,-588.06 343.26,-587.17 338.3,-586.2 333.58,-585.14 329.09,-584 324.85,-582.77 320.85,-581.46 317.11,-580.07 313.62,-578.6 310.39,-577.05 307.41,-575.42 304.69,-573.71 302.23,-571.93 300.03,-570.07 298.08,-568.15 296.39,-566.16 294.96,-564.1 293.78,-561.99 292.85,-559.82 292.18,-557.6 291.77,-555.34 291.61,-553.04 291.7,-550.7 292.04,-548.34 292.63,-545.96 293.48,-543.56 294.58,-541.16 295.93,-538.76 297.54,-536.37 299.4,-534 301.51,-531.65 303.87,-529.35 306.49,-527.08 309.36,-524.87 312.49,-522.72 315.86,-520.64 319.48,-518.64 323.35,-516.73 327.47,-514.91 331.82,-513.19 336.42,-511.59 341.24,-510.11 346.29,-508.74 351.56,-507.51 357.03,-506.42 362.71,-505.47 368.58,-504.66 374.63,-504.01 380.85,-503.51 387.22,-503.16 393.73,-502.98 400.35,-502.95 407.09,-503.08 413.91,-503.37 420.79,-503.82 427.72,-504.43 434.68,-505.19 441.63,-506.09 448.57,-507.15 455.46,-508.35 462.29,-509.68 469.02,-511.15 475.63,-512.74 482.1,-514.44 488.4,-516.26 494.51,-518.18 500.4,-520.19 506.05,-522.29 511.44,-524.47"/>
<text text-anchor="middle" x="411.1" y="-547.2" font-family="sans-serif" font-size="16.00">PaymentContext</text>
</g>
<!-- AuthContext&#45;&gt;PaymentContext -->
<g id="edge2" class="edge">
<title>AuthContext&#45;&gt;PaymentContext</title>
<path fill="none" stroke="black" stroke-width="2" d="M175.84,-659.16C200.47,-645.54 229.37,-630.13 256.1,-617.28 279.79,-605.9 305.98,-594.45 329.98,-584.39"/>
<text text-anchor="middle" x="331.6" y="-620.68" font-family="sans-serif" font-size="12.00"> &#160;&#160;&#160;&#160;&#160;&#160;&#160;&#160;&#160;&#160;&#160;&#160;&#160;&#160;&#160;&#160;&#160;&#160;&#160;&#160;&#160;&#160;&#160;&#160;&#160;&#160;&#160;&#160;&#160;&#160;&#160;&#160;&#160;&#160;&#160;&#160;&#160;&#160;&#160;</text>
<polygon fill="white" stroke="transparent" points="306.98,-574.39 306.98,-593.39 322.98,-593.39 322.98,-574.39 306.98,-574.39"/>
<polyline fill="none" stroke="black" points="322.98,-574.39 322.98,-593.39 "/>
<text text-anchor="start" x="309.98" y="-580.79" font-family="sans-serif" font-size="12.00">D</text>
<polygon fill="white" stroke="transparent" points="322.98,-574.39 322.98,-593.39 352.98,-593.39 352.98,-574.39 322.98,-574.39"/>
<polygon fill="none" stroke="black" points="322.98,-574.39 322.98,-593.39 352.98,-593.39 352.98,-574.39 322.98,-574.39"/>
<text text-anchor="start" x="325.98" y="-580.79" font-family="sans-serif" font-size="12.00">ACL</text>
<polygon fill="white" stroke="transparent" points="140.84,-649.16 140.84,-668.16 156.84,-668.16 156.84,-649.16 140.84,-649.16"/>
<polyline fill="none" stroke="black" points="156.84,-649.16 156.84,-668.16 "/>
<text text-anchor="start" x="143.84" y="-655.56" font-family="sans-serif" font-size="12.00">U</text>
<polygon fill="white" stroke="transparent" points="156.84,-649.16 156.84,-668.16 211.84,-668.16 211.84,-649.16 156.84,-649.16"/>
<polygon fill="none" stroke="black" points="156.84,-649.16 156.84,-668.16 211.84,-668.16 211.84,-649.16 156.84,-649.16"/>
<text text-anchor="start" x="159.84" y="-655.56" font-family="sans-serif" font-size="12.00">OHS, PL</text>
</g>
<!-- ChatbotAndVoiceContext -->
<g id="node3" class="node">
<title>ChatbotAndVoiceContext</title>
<polygon fill="none" stroke="black" stroke-width="2" points="563.23,-84.31 553.07,-83.01 543.19,-81.62 533.63,-80.14 524.45,-78.56 515.67,-76.91 507.33,-75.17 499.46,-73.37 492.1,-71.49 485.27,-69.56 479.01,-67.58 473.32,-65.55 468.25,-63.47 463.79,-61.37 459.97,-59.23 456.79,-57.07 454.27,-54.89 452.4,-52.7 451.18,-50.5 450.63,-48.3 450.72,-46.11 451.45,-43.92 452.8,-41.75 454.77,-39.6 457.34,-37.47 460.48,-35.37 464.18,-33.31 468.4,-31.28 473.13,-29.29 478.33,-27.34 483.98,-25.45 490.05,-23.61 496.51,-21.82 503.31,-20.09 510.44,-18.43 517.86,-16.83 525.54,-15.31 533.44,-13.85 541.54,-12.47 549.8,-11.17 558.2,-9.95 566.69,-8.81 575.27,-7.76 583.89,-6.8 592.54,-5.93 601.19,-5.16 609.82,-4.48 618.4,-3.9 626.93,-3.42 635.37,-3.04 643.73,-2.77 651.97,-2.6 660.1,-2.54 668.09,-2.59 675.94,-2.74 683.63,-3.01 691.17,-3.39 698.55,-3.88 705.75,-4.49 712.78,-5.2 719.62,-6.03 726.28,-6.96 732.75,-8.01 739.03,-9.16 745.12,-10.42 751,-11.78 756.68,-13.25 762.14,-14.81 767.4,-16.47 772.43,-18.21 777.24,-20.05 781.82,-21.97 786.15,-23.97 790.23,-26.04 794.05,-28.17 797.61,-30.37 800.88,-32.63 803.85,-34.93 806.52,-37.28 808.87,-39.66 810.89,-42.07 812.55,-44.49 813.86,-46.94 814.79,-49.38 815.33,-51.83 815.46,-54.26 815.17,-56.67 814.45,-59.06 813.29,-61.41 811.67,-63.72 809.58,-65.97 807.02,-68.17 803.97,-70.31 800.44,-72.37 796.41,-74.35 791.89,-76.24 786.88,-78.04 781.37,-79.74 775.38,-81.33 768.91,-82.81 761.98,-84.18 754.58,-85.43 746.76,-86.56 738.51,-87.56 729.86,-88.43 720.83,-89.16 711.46,-89.77 701.77,-90.23 691.79,-90.57 681.55,-90.76 671.09,-90.82 660.45,-90.74 649.66,-90.53 638.77,-90.19 627.82,-89.72 616.84,-89.11 605.9,-88.39 595.02,-87.54 584.25,-86.57 573.64,-85.5 563.23,-84.31"/>
<text text-anchor="middle" x="644.1" y="-41.64" font-family="sans-serif" font-size="16.00">ChatbotAndVoiceContext</text>
</g>
<!-- ConversationContext&#45;&gt;ChatbotAndVoiceContext -->
<g id="edge3" class="edge">
<title>ConversationContext&#45;&gt;ChatbotAndVoiceContext</title>
<path fill="none" stroke="black" stroke-width="2" d="M587.43,-382.36C604.11,-373.76 619.32,-362.32 630.1,-347.12 658.49,-307.11 652.77,-164.06 647.7,-90.63"/>
<text text-anchor="middle" x="685.6" y="-183.59" font-family="sans-serif" font-size="12.00">Partnership</text>
</g>
<!-- LiveKitServer -->
<g id="node4" class="node">
<title>LiveKitServer</title>
<polygon fill="none" stroke="black" stroke-width="2" points="501.63,-230.18 494.7,-230.69 487.76,-231.08 480.85,-231.34 473.98,-231.47 467.19,-231.48 460.51,-231.36 453.95,-231.11 447.55,-230.72 441.32,-230.21 435.29,-229.58 429.48,-228.81 423.91,-227.92 418.59,-226.91 413.54,-225.77 408.77,-224.52 404.3,-223.16 400.14,-221.69 396.29,-220.11 392.77,-218.43 389.57,-216.65 386.7,-214.79 384.16,-212.84 381.95,-210.82 380.07,-208.72 378.52,-206.56 377.28,-204.34 376.37,-202.06 375.76,-199.75 375.46,-197.4 375.45,-195.02 375.72,-192.62 376.27,-190.2 377.08,-187.78 378.14,-185.36 379.44,-182.95 380.98,-180.55 382.73,-178.18 384.69,-175.84 386.84,-173.54 389.18,-171.29 391.7,-169.08 394.38,-166.93 397.22,-164.85 400.21,-162.84 403.33,-160.9 406.59,-159.04 409.97,-157.27 413.48,-155.59 417.09,-154 420.81,-152.51 424.64,-151.12 428.56,-149.83 432.58,-148.66 436.69,-147.59 440.89,-146.63 445.18,-145.79 449.55,-145.06 454,-144.45 458.52,-143.96 463.13,-143.58 467.8,-143.31 472.54,-143.17 477.35,-143.14 482.21,-143.22 487.14,-143.42 492.1,-143.73 497.12,-144.15 502.16,-144.68 507.23,-145.32 512.32,-146.06 517.42,-146.9 522.52,-147.84 527.59,-148.88 532.64,-150.02 537.65,-151.24 542.6,-152.55 547.47,-153.95 552.26,-155.42 556.94,-156.97 561.5,-158.6 565.92,-160.29 570.17,-162.06 574.25,-163.88 578.13,-165.76 581.79,-167.69 585.22,-169.67 588.39,-171.69 591.29,-173.75 593.9,-175.85 596.21,-177.98 598.2,-180.14 599.85,-182.31 601.15,-184.5 602.08,-186.7 602.65,-188.91 602.83,-191.11 602.63,-193.32 602.02,-195.51 601.02,-197.68 599.62,-199.83 597.82,-201.96 595.62,-204.06 593.02,-206.11 590.03,-208.13 586.66,-210.09 582.93,-212 578.83,-213.85 574.39,-215.64 569.62,-217.35 564.54,-218.99 559.17,-220.55 553.53,-222.02 547.64,-223.4 541.53,-224.69 535.22,-225.88 528.74,-226.96 522.11,-227.94 515.37,-228.8 508.53,-229.55 501.63,-230.18"/>
<text text-anchor="middle" x="484.1" y="-182.89" font-family="sans-serif" font-size="16.00">LiveKitServer</text>
</g>
<!-- ConversationContext&#45;&gt;LiveKitServer -->
<g id="edge4" class="edge">
<title>ConversationContext&#45;&gt;LiveKitServer</title>
<path fill="none" stroke="black" stroke-width="2" d="M477.55,-366.11C477.34,-334.52 477.46,-290.29 479.1,-251.5 479.38,-245.06 479.78,-238.26 480.25,-231.6"/>
<text text-anchor="middle" x="554.6" y="-296.21" font-family="sans-serif" font-size="12.00"> &#160;&#160;&#160;&#160;&#160;&#160;&#160;&#160;&#160;&#160;&#160;&#160;&#160;&#160;&#160;&#160;&#160;&#160;&#160;&#160;&#160;&#160;&#160;&#160;&#160;&#160;&#160;&#160;&#160;&#160;&#160;&#160;&#160;&#160;&#160;&#160;&#160;&#160;&#160;</text>
<polygon fill="white" stroke="transparent" points="461.25,-221.6 461.25,-240.6 477.25,-240.6 477.25,-221.6 461.25,-221.6"/>
<polyline fill="none" stroke="black" points="477.25,-221.6 477.25,-240.6 "/>
<text text-anchor="start" x="464.25" y="-228" font-family="sans-serif" font-size="12.00">D</text>
<polygon fill="white" stroke="transparent" points="477.25,-221.6 477.25,-240.6 499.25,-240.6 499.25,-221.6 477.25,-221.6"/>
<polygon fill="none" stroke="black" points="477.25,-221.6 477.25,-240.6 499.25,-240.6 499.25,-221.6 477.25,-221.6"/>
<text text-anchor="start" x="480.25" y="-228" font-family="sans-serif" font-size="12.00">CF</text>
<polygon fill="white" stroke="transparent" points="470.55,-357.11 470.55,-374.11 484.55,-374.11 484.55,-357.11 470.55,-357.11"/>
<text text-anchor="start" x="472.55" y="-362.51" font-family="sans-serif" font-size="12.00">U</text>
</g>
<!-- LiveKitServer&#45;&gt;ChatbotAndVoiceContext -->
<g id="edge5" class="edge">
<title>LiveKitServer&#45;&gt;ChatbotAndVoiceContext</title>
<path fill="none" stroke="black" stroke-width="2" d="M471.9,-143.17C470.86,-131.21 472.27,-118.78 479.1,-108.88 488.33,-95.52 500.81,-85.02 514.8,-76.76"/>
<text text-anchor="middle" x="554.6" y="-112.28" font-family="sans-serif" font-size="12.00"> &#160;&#160;&#160;&#160;&#160;&#160;&#160;&#160;&#160;&#160;&#160;&#160;&#160;&#160;&#160;&#160;&#160;&#160;&#160;&#160;&#160;&#160;&#160;&#160;&#160;&#160;&#160;&#160;&#160;&#160;&#160;&#160;&#160;&#160;&#160;&#160;&#160;&#160;&#160;</text>
<polygon fill="white" stroke="transparent" points="495.8,-66.76 495.8,-85.76 511.8,-85.76 511.8,-66.76 495.8,-66.76"/>
<polyline fill="none" stroke="black" points="511.8,-66.76 511.8,-85.76 "/>
<text text-anchor="start" x="498.8" y="-73.16" font-family="sans-serif" font-size="12.00">D</text>
<polygon fill="white" stroke="transparent" points="511.8,-66.76 511.8,-85.76 533.8,-85.76 533.8,-66.76 511.8,-66.76"/>
<polygon fill="none" stroke="black" points="511.8,-66.76 511.8,-85.76 533.8,-85.76 533.8,-66.76 511.8,-66.76"/>
<text text-anchor="start" x="514.8" y="-73.16" font-family="sans-serif" font-size="12.00">CF</text>
<polygon fill="white" stroke="transparent" points="464.9,-134.17 464.9,-151.17 478.9,-151.17 478.9,-134.17 464.9,-134.17"/>
<text text-anchor="start" x="466.9" y="-139.57" font-family="sans-serif" font-size="12.00">U</text>
</g>
<!-- PaymentContext&#45;&gt;ConversationContext -->
<g id="edge7" class="edge">
<title>PaymentContext&#45;&gt;ConversationContext</title>
<path fill="none" stroke="black" stroke-width="2" d="M432.86,-504.69C440.81,-488.13 449.76,-469.47 457.6,-453.14"/>
<text text-anchor="middle" x="524.6" y="-475.13" font-family="sans-serif" font-size="12.00"> &#160;&#160;&#160;&#160;&#160;&#160;&#160;&#160;&#160;&#160;&#160;&#160;&#160;&#160;&#160;&#160;&#160;&#160;&#160;&#160;&#160;&#160;&#160;&#160;&#160;&#160;&#160;&#160;&#160;&#160;&#160;&#160;&#160;&#160;&#160;&#160;&#160;&#160;&#160;</text>
<polygon fill="white" stroke="transparent" points="434.6,-443.14 434.6,-462.14 450.6,-462.14 450.6,-443.14 434.6,-443.14"/>
<polyline fill="none" stroke="black" points="450.6,-443.14 450.6,-462.14 "/>
<text text-anchor="start" x="437.6" y="-449.54" font-family="sans-serif" font-size="12.00">D</text>
<polygon fill="white" stroke="transparent" points="450.6,-443.14 450.6,-462.14 480.6,-462.14 480.6,-443.14 450.6,-443.14"/>
<polygon fill="none" stroke="black" points="450.6,-443.14 450.6,-462.14 480.6,-462.14 480.6,-443.14 450.6,-443.14"/>
<text text-anchor="start" x="453.6" y="-449.54" font-family="sans-serif" font-size="12.00">ACL</text>
<polygon fill="white" stroke="transparent" points="425.86,-495.69 425.86,-512.69 439.86,-512.69 439.86,-495.69 425.86,-495.69"/>
<text text-anchor="start" x="427.86" y="-501.09" font-family="sans-serif" font-size="12.00">U</text>
</g>
<!-- DocumentContext -->
<g id="node6" class="node">
<title>DocumentContext</title>
<polygon fill="none" stroke="black" stroke-width="2" points="403.08,-310.37 400.97,-313.15 398.51,-315.88 395.72,-318.55 392.59,-321.15 389.14,-323.67 385.38,-326.1 381.33,-328.43 376.99,-330.65 372.38,-332.75 367.51,-334.73 362.39,-336.58 357.05,-338.28 351.49,-339.85 345.73,-341.26 339.79,-342.52 333.68,-343.63 327.42,-344.58 321.03,-345.37 314.51,-346 307.9,-346.47 301.21,-346.78 294.44,-346.93 287.63,-346.93 280.78,-346.78 273.92,-346.49 267.06,-346.05 260.22,-345.47 253.42,-344.76 246.67,-343.92 239.98,-342.96 233.38,-341.89 226.88,-340.72 220.5,-339.44 214.26,-338.07 208.16,-336.61 202.22,-335.07 196.47,-333.47 190.9,-331.8 185.55,-330.07 180.41,-328.29 175.51,-326.46 170.86,-324.6 166.46,-322.71 162.34,-320.79 158.49,-318.85 154.95,-316.89 151.7,-314.92 148.77,-312.94 146.16,-310.96 143.88,-308.98 141.93,-307 140.33,-305.02 139.08,-303.06 138.19,-301.1 137.65,-299.16 137.48,-297.23 137.67,-295.31 138.22,-293.42 139.14,-291.54 140.43,-289.68 142.08,-287.84 144.09,-286.02 146.46,-284.23 149.18,-282.46 152.25,-280.71 155.65,-278.99 159.39,-277.31 163.46,-275.65 167.84,-274.03 172.52,-272.44 177.48,-270.89 182.73,-269.38 188.24,-267.92 194,-266.5 199.99,-265.14 206.2,-263.83 212.6,-262.59 219.19,-261.41 225.93,-260.3 232.82,-259.27 239.83,-258.31 246.94,-257.45 254.14,-256.67 261.39,-255.99 268.68,-255.41 275.98,-254.94 283.28,-254.58 290.56,-254.34 297.78,-254.22 304.93,-254.22 311.99,-254.36 318.93,-254.62 325.74,-255.02 332.4,-255.57 338.87,-256.25 345.16,-257.07 351.23,-258.04 357.07,-259.14 362.66,-260.39 367.99,-261.78 373.03,-263.31 377.78,-264.97 382.23,-266.77 386.35,-268.69 390.15,-270.73 393.6,-272.89 396.7,-275.15 399.44,-277.52 401.81,-279.98 403.82,-282.53 405.45,-285.15 406.7,-287.83 407.57,-290.57 408.06,-293.36 408.17,-296.18 407.89,-299.02 407.25,-301.87 406.22,-304.72 404.83,-307.56 403.08,-310.37"/>
<text text-anchor="middle" x="272.1" y="-295.51" font-family="sans-serif" font-size="16.00">DocumentContext</text>
</g>
<!-- PaymentContext&#45;&gt;DocumentContext -->
<g id="edge6" class="edge">
<title>PaymentContext&#45;&gt;DocumentContext</title>
<path fill="none" stroke="black" stroke-width="2" d="M322.35,-517.1C308.98,-508.49 296.78,-497.83 288.1,-484.73 260.96,-443.73 260.55,-385.86 264.61,-345.94"/>
<text text-anchor="middle" x="363.6" y="-475.13" font-family="sans-serif" font-size="12.00"> &#160;&#160;&#160;&#160;&#160;&#160;&#160;&#160;&#160;&#160;&#160;&#160;&#160;&#160;&#160;&#160;&#160;&#160;&#160;&#160;&#160;&#160;&#160;&#160;&#160;&#160;&#160;&#160;&#160;&#160;&#160;&#160;&#160;&#160;&#160;&#160;&#160;&#160;&#160;</text>
<polygon fill="white" stroke="transparent" points="241.61,-335.94 241.61,-354.94 257.61,-354.94 257.61,-335.94 241.61,-335.94"/>
<polyline fill="none" stroke="black" points="257.61,-335.94 257.61,-354.94 "/>
<text text-anchor="start" x="244.61" y="-342.34" font-family="sans-serif" font-size="12.00">D</text>
<polygon fill="white" stroke="transparent" points="257.61,-335.94 257.61,-354.94 287.61,-354.94 287.61,-335.94 257.61,-335.94"/>
<polygon fill="none" stroke="black" points="257.61,-335.94 257.61,-354.94 287.61,-354.94 287.61,-335.94 257.61,-335.94"/>
<text text-anchor="start" x="260.61" y="-342.34" font-family="sans-serif" font-size="12.00">ACL</text>
<polygon fill="white" stroke="transparent" points="315.35,-508.1 315.35,-525.1 329.35,-525.1 329.35,-508.1 315.35,-508.1"/>
<text text-anchor="start" x="317.35" y="-513.5" font-family="sans-serif" font-size="12.00">U</text>
</g>
<!-- DocumentContext&#45;&gt;ChatbotAndVoiceContext -->
<g id="edge8" class="edge">
<title>DocumentContext&#45;&gt;ChatbotAndVoiceContext</title>
<path fill="none" stroke="black" stroke-width="2" d="M259.05,-256.05C251.09,-221.21 246.73,-172.41 272.1,-139.88 298.47,-106.08 392.41,-82.64 479.28,-67.69"/>
<text text-anchor="middle" x="314.1" y="-183.59" font-family="sans-serif" font-size="12.00">Shared Kernel</text>
</g>
<!-- LawContext -->
<g id="node7" class="node">
<title>LawContext</title>
<polygon fill="none" stroke="black" stroke-width="2" points="834.28,-230.52 827.85,-230.48 821.47,-230.32 815.17,-230.04 808.96,-229.64 802.87,-229.12 796.93,-228.48 791.17,-227.72 785.59,-226.85 780.23,-225.87 775.1,-224.78 770.22,-223.58 765.61,-222.28 761.27,-220.88 757.23,-219.38 753.5,-217.79 750.07,-216.11 746.97,-214.35 744.2,-212.51 741.75,-210.6 739.64,-208.62 737.86,-206.57 736.42,-204.47 735.3,-202.32 734.51,-200.13 734.04,-197.9 733.88,-195.63 734.03,-193.34 734.47,-191.04 735.2,-188.72 736.21,-186.39 737.48,-184.07 738.99,-181.75 740.75,-179.45 742.73,-177.17 744.93,-174.91 747.32,-172.69 749.9,-170.52 752.65,-168.38 755.56,-166.3 758.62,-164.28 761.82,-162.32 765.13,-160.43 768.56,-158.62 772.1,-156.89 775.72,-155.24 779.43,-153.67 783.22,-152.21 787.07,-150.84 790.99,-149.56 794.96,-148.4 798.98,-147.34 803.04,-146.39 807.14,-145.55 811.28,-144.83 815.45,-144.22 819.65,-143.73 823.87,-143.36 828.12,-143.11 832.39,-142.97 836.67,-142.96 840.97,-143.07 845.28,-143.29 849.6,-143.63 853.93,-144.09 858.25,-144.67 862.57,-145.36 866.88,-146.16 871.18,-147.07 875.45,-148.08 879.7,-149.2 883.9,-150.42 888.07,-151.74 892.17,-153.14 896.21,-154.64 900.18,-156.23 904.05,-157.89 907.83,-159.63 911.49,-161.44 915.02,-163.32 918.41,-165.26 921.65,-167.26 924.71,-169.31 927.58,-171.41 930.26,-173.54 932.72,-175.71 934.95,-177.91 936.93,-180.14 938.65,-182.38 940.09,-184.63 941.25,-186.89 942.12,-189.14 942.67,-191.4 942.9,-193.64 942.8,-195.86 942.37,-198.06 941.59,-200.22 940.47,-202.36 939,-204.45 937.17,-206.5 935,-208.49 932.48,-210.43 929.61,-212.3 926.41,-214.11 922.88,-215.84 919.02,-217.5 914.86,-219.08 910.4,-220.57 905.66,-221.96 900.66,-223.27 895.41,-224.48 889.94,-225.58 884.26,-226.58 878.39,-227.47 872.37,-228.26 866.21,-228.92 859.94,-229.48 853.59,-229.92 847.18,-230.24 840.73,-230.44 834.28,-230.52"/>
<text text-anchor="middle" x="837.1" y="-182.89" font-family="sans-serif" font-size="16.00">LawContext</text>
</g>
<!-- LawContext&#45;&gt;ChatbotAndVoiceContext -->
<g id="edge9" class="edge">
<title>LawContext&#45;&gt;ChatbotAndVoiceContext</title>
<path fill="none" stroke="black" stroke-width="2" d="M788.15,-150.37C762.8,-132.08 731.62,-109.58 704.75,-90.2"/>
<text text-anchor="middle" x="821.6" y="-112.28" font-family="sans-serif" font-size="12.00"> &#160;&#160;&#160;&#160;&#160;&#160;&#160;&#160;&#160;&#160;&#160;&#160;&#160;&#160;&#160;&#160;&#160;&#160;&#160;&#160;&#160;&#160;&#160;&#160;&#160;&#160;&#160;&#160;&#160;&#160;&#160;&#160;&#160;&#160;&#160;&#160;&#160;&#160;&#160;</text>
<polygon fill="white" stroke="transparent" points="681.75,-80.2 681.75,-99.2 697.75,-99.2 697.75,-80.2 681.75,-80.2"/>
<polyline fill="none" stroke="black" points="697.75,-80.2 697.75,-99.2 "/>
<text text-anchor="start" x="684.75" y="-86.6" font-family="sans-serif" font-size="12.00">D</text>
<polygon fill="white" stroke="transparent" points="697.75,-80.2 697.75,-99.2 727.75,-99.2 727.75,-80.2 697.75,-80.2"/>
<polygon fill="none" stroke="black" points="697.75,-80.2 697.75,-99.2 727.75,-99.2 727.75,-80.2 697.75,-80.2"/>
<text text-anchor="start" x="700.75" y="-86.6" font-family="sans-serif" font-size="12.00">ACL</text>
<polygon fill="white" stroke="transparent" points="781.15,-141.37 781.15,-158.37 795.15,-158.37 795.15,-141.37 781.15,-141.37"/>
<text text-anchor="start" x="783.15" y="-146.77" font-family="sans-serif" font-size="12.00">U</text>
</g>
<!-- PaymentGateways -->
<g id="node8" class="node">
<title>PaymentGateways</title>
<polygon fill="none" stroke="black" stroke-width="2" points="352.28,-655.09 360.33,-653.82 368.49,-652.67 376.74,-651.64 385.03,-650.74 393.34,-649.97 401.64,-649.33 409.88,-648.84 418.05,-648.48 426.12,-648.27 434.05,-648.21 441.82,-648.29 449.42,-648.51 456.8,-648.89 463.96,-649.41 470.87,-650.07 477.51,-650.88 483.88,-651.82 489.95,-652.9 495.71,-654.12 501.15,-655.46 506.27,-656.93 511.05,-658.51 515.5,-660.21 519.6,-662.01 523.36,-663.91 526.78,-665.9 529.85,-667.98 532.58,-670.13 534.97,-672.36 537.03,-674.64 538.76,-676.97 540.17,-679.35 541.26,-681.77 542.03,-684.21 542.51,-686.67 542.69,-689.14 542.58,-691.61 542.19,-694.08 541.53,-696.53 540.6,-698.96 539.41,-701.36 537.97,-703.72 536.28,-706.04 534.35,-708.31 532.19,-710.52 529.79,-712.67 527.17,-714.75 524.33,-716.76 521.27,-718.69 517.99,-720.54 514.5,-722.3 510.79,-723.97 506.88,-725.56 502.76,-727.04 498.44,-728.43 493.92,-729.72 489.19,-730.91 484.27,-732 479.15,-732.99 473.84,-733.87 468.34,-734.65 462.65,-735.32 456.79,-735.89 450.76,-736.36 444.56,-736.72 438.21,-736.98 431.71,-737.14 425.08,-737.2 418.32,-737.16 411.45,-737.02 404.48,-736.79 397.43,-736.46 390.32,-736.03 383.16,-735.51 375.98,-734.9 368.79,-734.2 361.62,-733.41 354.49,-732.53 347.42,-731.57 340.44,-730.52 333.58,-729.39 326.85,-728.18 320.29,-726.89 313.93,-725.52 307.78,-724.08 301.89,-722.57 296.26,-720.98 290.93,-719.33 285.93,-717.61 281.28,-715.82 276.99,-713.98 273.1,-712.08 269.63,-710.12 266.59,-708.12 264,-706.06 261.88,-703.97 260.25,-701.83 259.1,-699.66 258.46,-697.46 258.33,-695.24 258.71,-692.99 259.61,-690.73 261.02,-688.47 262.95,-686.2 265.39,-683.94 268.32,-681.68 271.75,-679.45 275.66,-677.23 280.02,-675.05 284.84,-672.91 290.08,-670.81 295.72,-668.76 301.74,-666.77 308.12,-664.85 314.83,-663 321.84,-661.23 329.12,-659.55 336.64,-657.96 344.37,-656.47 352.28,-655.09"/>
<text text-anchor="middle" x="411.1" y="-691.06" font-family="sans-serif" font-size="16.00">PaymentGateways</text>
</g>
<!-- PaymentGateways&#45;&gt;PaymentContext -->
<g id="edge10" class="edge">
<title>PaymentGateways&#45;&gt;PaymentContext</title>
<path fill="none" stroke="black" stroke-width="2" d="M411.1,-648.58C411.1,-630.58 411.1,-610.04 411.1,-592.53"/>
<text text-anchor="middle" x="486.6" y="-620.68" font-family="sans-serif" font-size="12.00"> &#160;&#160;&#160;&#160;&#160;&#160;&#160;&#160;&#160;&#160;&#160;&#160;&#160;&#160;&#160;&#160;&#160;&#160;&#160;&#160;&#160;&#160;&#160;&#160;&#160;&#160;&#160;&#160;&#160;&#160;&#160;&#160;&#160;&#160;&#160;&#160;&#160;&#160;&#160;</text>
<polygon fill="white" stroke="transparent" points="388.1,-582.53 388.1,-601.53 404.1,-601.53 404.1,-582.53 388.1,-582.53"/>
<polyline fill="none" stroke="black" points="404.1,-582.53 404.1,-601.53 "/>
<text text-anchor="start" x="391.1" y="-588.93" font-family="sans-serif" font-size="12.00">D</text>
<polygon fill="white" stroke="transparent" points="404.1,-582.53 404.1,-601.53 434.1,-601.53 434.1,-582.53 404.1,-582.53"/>
<polygon fill="none" stroke="black" points="404.1,-582.53 404.1,-601.53 434.1,-601.53 434.1,-582.53 404.1,-582.53"/>
<text text-anchor="start" x="407.1" y="-588.93" font-family="sans-serif" font-size="12.00">ACL</text>
<polygon fill="white" stroke="transparent" points="404.1,-639.58 404.1,-656.58 418.1,-656.58 418.1,-639.58 404.1,-639.58"/>
<text text-anchor="start" x="406.1" y="-644.98" font-family="sans-serif" font-size="12.00">U</text>
</g>
<!-- PersonaContext -->
<g id="node9" class="node">
<title>PersonaContext</title>
<polygon fill="none" stroke="black" stroke-width="2" points="1040.36,-147.83 1047.35,-146.48 1054.44,-145.24 1061.62,-144.13 1068.85,-143.14 1076.11,-142.28 1083.37,-141.56 1090.6,-140.97 1097.77,-140.53 1104.87,-140.23 1111.87,-140.08 1118.73,-140.07 1125.46,-140.21 1132.01,-140.5 1138.38,-140.94 1144.54,-141.52 1150.48,-142.25 1156.19,-143.12 1161.65,-144.12 1166.85,-145.27 1171.78,-146.54 1176.44,-147.94 1180.81,-149.46 1184.9,-151.1 1188.7,-152.84 1192.2,-154.69 1195.4,-156.63 1198.31,-158.66 1200.93,-160.77 1203.25,-162.95 1205.29,-165.2 1207.04,-167.5 1208.51,-169.85 1209.7,-172.24 1210.62,-174.65 1211.28,-177.09 1211.68,-179.55 1211.82,-182 1211.71,-184.46 1211.36,-186.9 1210.78,-189.32 1209.96,-191.72 1208.91,-194.09 1207.65,-196.41 1206.16,-198.68 1204.47,-200.91 1202.56,-203.07 1200.45,-205.17 1198.13,-207.19 1195.61,-209.15 1192.9,-211.02 1189.99,-212.81 1186.88,-214.52 1183.58,-216.13 1180.09,-217.66 1176.41,-219.08 1172.54,-220.42 1168.48,-221.65 1164.24,-222.79 1159.82,-223.82 1155.22,-224.76 1150.44,-225.59 1145.49,-226.33 1140.37,-226.96 1135.09,-227.49 1129.66,-227.92 1124.08,-228.25 1118.36,-228.48 1112.51,-228.61 1106.54,-228.65 1100.46,-228.59 1094.29,-228.43 1088.04,-228.18 1081.72,-227.83 1075.35,-227.4 1068.96,-226.87 1062.55,-226.25 1056.14,-225.55 1049.76,-224.75 1043.43,-223.88 1037.17,-222.91 1031.01,-221.87 1024.96,-220.74 1019.05,-219.53 1013.3,-218.24 1007.74,-216.88 1002.39,-215.44 997.27,-213.93 992.41,-212.34 987.83,-210.69 983.55,-208.97 979.59,-207.18 975.98,-205.34 972.72,-203.43 969.85,-201.47 967.37,-199.46 965.3,-197.4 963.64,-195.3 962.43,-193.15 961.65,-190.97 961.32,-188.76 961.44,-186.53 962.01,-184.28 963.04,-182.01 964.53,-179.73 966.46,-177.46 968.83,-175.18 971.64,-172.92 974.88,-170.68 978.52,-168.46 982.56,-166.28 986.98,-164.14 991.77,-162.04 996.89,-159.99 1002.34,-158.01 1008.08,-156.1 1014.09,-154.27 1020.36,-152.51 1026.84,-150.85 1033.52,-149.29 1040.36,-147.83"/>
<text text-anchor="middle" x="1096.1" y="-182.89" font-family="sans-serif" font-size="16.00">PersonaContext</text>
</g>
<!-- PersonaContext&#45;&gt;ChatbotAndVoiceContext -->
<g id="edge11" class="edge">
<title>PersonaContext&#45;&gt;ChatbotAndVoiceContext</title>
<path fill="none" stroke="black" stroke-width="2" d="M1019.17,-152.57C983.64,-138.01 940.65,-121.41 901.1,-108.88 864.88,-97.41 825.23,-86.82 788.14,-77.76"/>
<text text-anchor="middle" x="1013.6" y="-112.28" font-family="sans-serif" font-size="12.00"> &#160;&#160;&#160;&#160;&#160;&#160;&#160;&#160;&#160;&#160;&#160;&#160;&#160;&#160;&#160;&#160;&#160;&#160;&#160;&#160;&#160;&#160;&#160;&#160;&#160;&#160;&#160;&#160;&#160;&#160;&#160;&#160;&#160;&#160;&#160;&#160;&#160;&#160;&#160;</text>
<polygon fill="white" stroke="transparent" points="765.14,-67.76 765.14,-86.76 781.14,-86.76 781.14,-67.76 765.14,-67.76"/>
<polyline fill="none" stroke="black" points="781.14,-67.76 781.14,-86.76 "/>
<text text-anchor="start" x="768.14" y="-74.16" font-family="sans-serif" font-size="12.00">D</text>
<polygon fill="white" stroke="transparent" points="781.14,-67.76 781.14,-86.76 811.14,-86.76 811.14,-67.76 781.14,-67.76"/>
<polygon fill="none" stroke="black" points="781.14,-67.76 781.14,-86.76 811.14,-86.76 811.14,-67.76 781.14,-67.76"/>
<text text-anchor="start" x="784.14" y="-74.16" font-family="sans-serif" font-size="12.00">ACL</text>
<polygon fill="white" stroke="transparent" points="984.17,-142.57 984.17,-161.57 1000.17,-161.57 1000.17,-142.57 984.17,-142.57"/>
<polyline fill="none" stroke="black" points="1000.17,-142.57 1000.17,-161.57 "/>
<text text-anchor="start" x="987.17" y="-148.97" font-family="sans-serif" font-size="12.00">U</text>
<polygon fill="white" stroke="transparent" points="1000.17,-142.57 1000.17,-161.57 1055.17,-161.57 1055.17,-142.57 1000.17,-142.57"/>
<polygon fill="none" stroke="black" points="1000.17,-142.57 1000.17,-161.57 1055.17,-161.57 1055.17,-142.57 1000.17,-142.57"/>
<text text-anchor="start" x="1003.17" y="-148.97" font-family="sans-serif" font-size="12.00">OHS, PL</text>
</g>
<!-- SettingContext -->
<g id="node10" class="node">
<title>SettingContext</title>
<polygon fill="none" stroke="black" stroke-width="2" points="636.95,-512.95 643.49,-511.46 650.15,-510.08 656.91,-508.83 663.75,-507.69 670.62,-506.69 677.51,-505.83 684.4,-505.1 691.25,-504.52 698.05,-504.08 704.77,-503.79 711.39,-503.66 717.88,-503.67 724.24,-503.84 730.43,-504.16 736.45,-504.63 742.28,-505.24 747.9,-506.01 753.31,-506.92 758.48,-507.97 763.41,-509.16 768.09,-510.48 772.52,-511.93 776.69,-513.5 780.59,-515.18 784.22,-516.97 787.58,-518.86 790.67,-520.85 793.49,-522.93 796.04,-525.08 798.31,-527.3 800.32,-529.58 802.07,-531.92 803.55,-534.3 804.78,-536.71 805.75,-539.16 806.48,-541.62 806.96,-544.09 807.2,-546.56 807.2,-549.03 806.98,-551.48 806.52,-553.9 805.85,-556.3 804.95,-558.66 803.84,-560.98 802.52,-563.25 800.98,-565.46 799.24,-567.62 797.29,-569.7 795.14,-571.71 792.79,-573.65 790.23,-575.51 787.48,-577.28 784.52,-578.97 781.37,-580.57 778.03,-582.08 774.48,-583.5 770.75,-584.82 766.82,-586.04 762.7,-587.17 758.4,-588.2 753.91,-589.13 749.24,-589.96 744.4,-590.69 739.39,-591.33 734.21,-591.86 728.88,-592.3 723.4,-592.64 717.78,-592.89 712.03,-593.04 706.17,-593.09 700.2,-593.05 694.14,-592.91 688,-592.69 681.81,-592.37 675.57,-591.96 669.3,-591.46 663.03,-590.87 656.78,-590.2 650.56,-589.43 644.39,-588.58 638.3,-587.65 632.31,-586.63 626.45,-585.52 620.73,-584.34 615.18,-583.07 609.82,-581.72 604.67,-580.3 599.77,-578.8 595.12,-577.22 590.76,-575.57 586.7,-573.85 582.95,-572.06 579.55,-570.2 576.51,-568.29 573.83,-566.31 571.55,-564.27 569.66,-562.19 568.19,-560.05 567.13,-557.88 566.5,-555.66 566.31,-553.41 566.55,-551.13 567.22,-548.83 568.33,-546.51 569.88,-544.18 571.85,-541.85 574.24,-539.52 577.04,-537.2 580.24,-534.9 583.83,-532.62 587.79,-530.38 592.11,-528.18 596.76,-526.03 601.73,-523.93 606.99,-521.9 612.53,-519.93 618.32,-518.05 624.34,-516.26 630.56,-514.55 636.95,-512.95"/>
<text text-anchor="middle" x="696.1" y="-547.2" font-family="sans-serif" font-size="16.00">SettingContext</text>
</g>
<!-- SettingContext&#45;&gt;ConversationContext -->
<g id="edge12" class="edge">
<title>SettingContext&#45;&gt;ConversationContext</title>
<path fill="none" stroke="black" stroke-width="2" d="M652.96,-509.4C638.11,-496.5 620.96,-482.74 604.1,-471.73 592.09,-463.88 578.92,-456.39 565.77,-449.51"/>
<text text-anchor="middle" x="695.6" y="-475.13" font-family="sans-serif" font-size="12.00"> &#160;&#160;&#160;&#160;&#160;&#160;&#160;&#160;&#160;&#160;&#160;&#160;&#160;&#160;&#160;&#160;&#160;&#160;&#160;&#160;&#160;&#160;&#160;&#160;&#160;&#160;&#160;&#160;&#160;&#160;&#160;&#160;&#160;&#160;&#160;&#160;&#160;&#160;&#160;</text>
<polygon fill="white" stroke="transparent" points="546.77,-439.51 546.77,-458.51 562.77,-458.51 562.77,-439.51 546.77,-439.51"/>
<polyline fill="none" stroke="black" points="562.77,-439.51 562.77,-458.51 "/>
<text text-anchor="start" x="549.77" y="-445.91" font-family="sans-serif" font-size="12.00">D</text>
<polygon fill="white" stroke="transparent" points="562.77,-439.51 562.77,-458.51 584.77,-458.51 584.77,-439.51 562.77,-439.51"/>
<polygon fill="none" stroke="black" points="562.77,-439.51 562.77,-458.51 584.77,-458.51 584.77,-439.51 562.77,-439.51"/>
<text text-anchor="start" x="565.77" y="-445.91" font-family="sans-serif" font-size="12.00">CF</text>
<polygon fill="white" stroke="transparent" points="617.96,-499.4 617.96,-518.4 633.96,-518.4 633.96,-499.4 617.96,-499.4"/>
<polyline fill="none" stroke="black" points="633.96,-499.4 633.96,-518.4 "/>
<text text-anchor="start" x="620.96" y="-505.8" font-family="sans-serif" font-size="12.00">U</text>
<polygon fill="white" stroke="transparent" points="633.96,-499.4 633.96,-518.4 688.96,-518.4 688.96,-499.4 633.96,-499.4"/>
<polygon fill="none" stroke="black" points="633.96,-499.4 633.96,-518.4 688.96,-518.4 688.96,-499.4 633.96,-499.4"/>
<text text-anchor="start" x="636.96" y="-505.8" font-family="sans-serif" font-size="12.00">OHS, PL</text>
</g>
</g>
</svg>
