<svg width="2000px" height="59px"
 viewBox="0.00 0.00 3600.89 105.76" xmlns="http://www.w3.org/2000/svg" xmlns:xlink="http://www.w3.org/1999/xlink">
<g id="graph0" class="graph" transform="scale(1.0 1.0) rotate(0) translate(4 101.76)">
<title>ContextMapGraph</title>
<polygon fill="white" stroke="transparent" points="-4,4 -4,-101.76 3596.89,-101.76 3596.89,4 -4,4"/>
<!-- CustomerSupportService -->
<g id="node1" class="node">
<title>CustomerSupportService</title>
<polygon fill="none" stroke="black" stroke-width="2" points="146.24,-91.54 135.13,-90.85 124.22,-90.05 113.54,-89.14 103.14,-88.12 93.06,-87 83.35,-85.77 74.03,-84.45 65.15,-83.04 56.74,-81.54 48.83,-79.95 41.45,-78.29 34.62,-76.55 28.37,-74.73 22.71,-72.86 17.67,-70.92 13.24,-68.93 9.45,-66.9 6.29,-64.81 3.77,-62.69 1.89,-60.54 0.65,-58.36 0.03,-56.16 0.02,-53.94 0.62,-51.71 1.81,-49.47 3.57,-47.24 5.88,-45.01 8.72,-42.79 12.07,-40.59 15.9,-38.42 20.18,-36.27 24.89,-34.15 30,-32.07 35.49,-30.04 41.31,-28.05 47.45,-26.12 53.88,-24.25 60.56,-22.43 67.47,-20.69 74.59,-19.02 81.88,-17.42 89.33,-15.9 96.9,-14.47 104.58,-13.13 112.35,-11.88 120.18,-10.72 128.06,-9.67 135.97,-8.71 143.89,-7.86 151.82,-7.12 159.73,-6.49 167.63,-5.96 175.49,-5.56 183.31,-5.26 191.08,-5.09 198.8,-5.03 206.45,-5.09 214.04,-5.28 221.55,-5.58 228.99,-5.99 236.35,-6.53 243.62,-7.19 250.79,-7.96 257.87,-8.84 264.85,-9.84 271.72,-10.95 278.47,-12.17 285.1,-13.5 291.59,-14.92 297.94,-16.44 304.14,-18.06 310.17,-19.77 316.02,-21.57 321.68,-23.44 327.12,-25.39 332.35,-27.41 337.32,-29.5 342.04,-31.65 346.48,-33.84 350.61,-36.09 354.42,-38.37 357.89,-40.69 360.99,-43.03 363.71,-45.39 366.02,-47.76 367.91,-50.14 369.34,-52.52 370.31,-54.89 370.8,-57.24 370.78,-59.57 370.25,-61.87 369.18,-64.13 367.57,-66.35 365.41,-68.52 362.69,-70.63 359.39,-72.67 355.53,-74.65 351.1,-76.55 346.11,-78.37 340.55,-80.11 334.44,-81.75 327.79,-83.3 320.62,-84.75 312.94,-86.09 304.77,-87.32 296.14,-88.45 287.08,-89.46 277.61,-90.35 267.77,-91.12 257.59,-91.78 247.11,-92.31 236.37,-92.72 225.41,-93 214.27,-93.16 203,-93.19 191.63,-93.11 180.23,-92.89 168.83,-92.56 157.49,-92.11 146.24,-91.54"/>
<text text-anchor="middle" x="190.48" y="-45.08" font-family="sans-serif" font-size="16.00">CustomerSupportService</text>
</g>
<!-- InventoryService -->
<g id="node2" class="node">
<title>InventoryService</title>
<polygon fill="none" stroke="black" stroke-width="2" points="515.85,-92.11 507.51,-91.67 499.29,-91.12 491.21,-90.45 483.3,-89.66 475.61,-88.77 468.16,-87.77 460.97,-86.67 454.09,-85.46 447.52,-84.16 441.3,-82.76 435.45,-81.27 429.99,-79.69 424.94,-78.04 420.3,-76.3 416.1,-74.49 412.34,-72.62 409.03,-70.68 406.18,-68.69 403.78,-66.64 401.85,-64.55 400.38,-62.42 399.36,-60.25 398.79,-58.05 398.66,-55.83 398.97,-53.59 399.69,-51.34 400.82,-49.08 402.34,-46.82 404.24,-44.57 406.5,-42.33 409.1,-40.1 412.02,-37.9 415.25,-35.73 418.76,-33.6 422.53,-31.5 426.55,-29.45 430.8,-27.46 435.24,-25.52 439.88,-23.64 444.68,-21.82 449.64,-20.08 454.72,-18.42 459.92,-16.83 465.22,-15.34 470.61,-13.93 476.07,-12.61 481.59,-11.39 487.16,-10.27 492.77,-9.26 498.41,-8.35 504.06,-7.55 509.73,-6.86 515.4,-6.28 521.08,-5.82 526.74,-5.48 532.4,-5.26 538.04,-5.15 543.67,-5.16 549.26,-5.3 554.84,-5.55 560.38,-5.92 565.89,-6.41 571.36,-7.02 576.79,-7.74 582.17,-8.58 587.51,-9.53 592.78,-10.59 597.99,-11.76 603.12,-13.03 608.18,-14.4 613.15,-15.87 618.02,-17.43 622.77,-19.08 627.41,-20.81 631.91,-22.63 636.27,-24.51 640.46,-26.47 644.47,-28.49 648.29,-30.57 651.9,-32.71 655.28,-34.89 658.42,-37.11 661.3,-39.36 663.9,-41.64 666.21,-43.94 668.2,-46.26 669.87,-48.58 671.18,-50.91 672.14,-53.23 672.72,-55.53 672.92,-57.82 672.71,-60.09 672.09,-62.32 671.06,-64.51 669.59,-66.66 667.7,-68.76 665.36,-70.81 662.59,-72.79 659.38,-74.7 655.74,-76.54 651.67,-78.3 647.18,-79.98 642.28,-81.57 636.98,-83.07 631.29,-84.47 625.24,-85.78 618.83,-86.97 612.1,-88.06 605.07,-89.05 597.75,-89.92 590.19,-90.67 582.39,-91.31 574.41,-91.83 566.26,-92.23 557.99,-92.51 549.62,-92.67 541.18,-92.71 532.72,-92.63 524.26,-92.43 515.85,-92.11"/>
<text text-anchor="middle" x="537.48" y="-45.08" font-family="sans-serif" font-size="16.00">InventoryService</text>
</g>
<!-- NotificationService -->
<g id="node3" class="node">
<title>NotificationService</title>
<polygon fill="none" stroke="black" stroke-width="2" points="822.48,-5.89 831.39,-5.34 840.32,-4.91 849.22,-4.6 858.07,-4.42 866.82,-4.36 875.45,-4.44 883.92,-4.64 892.19,-4.97 900.25,-5.43 908.06,-6.02 915.6,-6.74 922.83,-7.58 929.75,-8.55 936.32,-9.64 942.53,-10.84 948.37,-12.16 953.82,-13.59 958.87,-15.13 963.51,-16.77 967.73,-18.51 971.54,-20.33 974.92,-22.25 977.88,-24.24 980.42,-26.31 982.54,-28.44 984.25,-30.63 985.55,-32.88 986.46,-35.17 986.98,-37.5 987.13,-39.86 986.91,-42.24 986.34,-44.64 985.42,-47.04 984.19,-49.45 982.64,-51.85 980.8,-54.23 978.67,-56.59 976.27,-58.93 973.62,-61.22 970.72,-63.48 967.6,-65.68 964.26,-67.83 960.71,-69.91 956.97,-71.93 953.05,-73.87 948.95,-75.74 944.69,-77.52 940.26,-79.21 935.69,-80.81 930.97,-82.31 926.12,-83.72 921.13,-85.02 916.01,-86.21 910.77,-87.3 905.4,-88.28 899.92,-89.14 894.33,-89.9 888.63,-90.53 882.82,-91.06 876.9,-91.47 870.89,-91.76 864.78,-91.94 858.59,-92 852.31,-91.95 845.95,-91.79 839.53,-91.52 833.04,-91.14 826.51,-90.65 819.93,-90.05 813.33,-89.36 806.71,-88.56 800.09,-87.66 793.48,-86.66 786.91,-85.57 780.39,-84.4 773.93,-83.13 767.57,-81.78 761.31,-80.36 755.19,-78.85 749.23,-77.27 743.44,-75.62 737.85,-73.91 732.5,-72.13 727.39,-70.3 722.56,-68.41 718.04,-66.47 713.83,-64.48 709.98,-62.46 706.49,-60.4 703.4,-58.3 700.72,-56.18 698.47,-54.04 696.68,-51.88 695.35,-49.7 694.5,-47.52 694.14,-45.33 694.28,-43.15 694.94,-40.97 696.11,-38.81 697.8,-36.67 700.01,-34.55 702.73,-32.45 705.97,-30.4 709.71,-28.38 713.94,-26.41 718.66,-24.49 723.84,-22.62 729.47,-20.82 735.52,-19.09 741.98,-17.43 748.82,-15.85 756.01,-14.35 763.53,-12.94 771.33,-11.62 779.4,-10.4 787.7,-9.28 796.2,-8.26 804.85,-7.36 813.62,-6.57 822.48,-5.89"/>
<text text-anchor="middle" x="847.48" y="-45.08" font-family="sans-serif" font-size="16.00">NotificationService</text>
</g>
<!-- OrderProcessingService -->
<g id="node4" class="node">
<title>OrderProcessingService</title>
<polygon fill="none" stroke="black" stroke-width="2" points="1289.69,-11.24 1299.17,-12.66 1308.35,-14.17 1317.2,-15.78 1325.69,-17.47 1333.77,-19.23 1341.41,-21.07 1348.59,-22.97 1355.26,-24.93 1361.42,-26.94 1367.02,-29 1372.06,-31.1 1376.51,-33.23 1380.36,-35.39 1383.59,-37.57 1386.2,-39.76 1388.19,-41.96 1389.54,-44.17 1390.26,-46.37 1390.36,-48.57 1389.83,-50.75 1388.7,-52.92 1386.97,-55.07 1384.65,-57.18 1381.77,-59.27 1378.34,-61.32 1374.39,-63.33 1369.94,-65.29 1365.01,-67.21 1359.64,-69.08 1353.85,-70.89 1347.67,-72.65 1341.14,-74.34 1334.27,-75.97 1327.11,-77.53 1319.68,-79.03 1312.03,-80.45 1304.17,-81.79 1296.14,-83.06 1287.97,-84.25 1279.68,-85.35 1271.32,-86.38 1262.9,-87.31 1254.44,-88.15 1245.99,-88.9 1237.55,-89.56 1229.15,-90.12 1220.81,-90.59 1212.55,-90.96 1204.38,-91.22 1196.33,-91.38 1188.4,-91.44 1180.61,-91.39 1172.96,-91.24 1165.48,-90.98 1158.16,-90.61 1151.01,-90.13 1144.05,-89.55 1137.27,-88.85 1130.68,-88.05 1124.29,-87.14 1118.1,-86.12 1112.11,-84.99 1106.32,-83.76 1100.75,-82.43 1095.39,-80.99 1090.24,-79.46 1085.31,-77.83 1080.61,-76.11 1076.14,-74.31 1071.9,-72.42 1067.9,-70.44 1064.15,-68.4 1060.65,-66.28 1057.42,-64.11 1054.45,-61.87 1051.77,-59.58 1049.38,-57.25 1047.29,-54.88 1045.51,-52.47 1044.06,-50.05 1042.95,-47.61 1042.19,-45.16 1041.78,-42.71 1041.76,-40.27 1042.12,-37.85 1042.87,-35.45 1044.04,-33.08 1045.62,-30.75 1047.63,-28.48 1050.08,-26.26 1052.98,-24.1 1056.32,-22.02 1060.11,-20.01 1064.37,-18.09 1069.07,-16.27 1074.24,-14.54 1079.85,-12.92 1085.9,-11.41 1092.39,-10.02 1099.31,-8.75 1106.64,-7.6 1114.36,-6.58 1122.46,-5.7 1130.92,-4.94 1139.71,-4.33 1148.8,-3.85 1158.18,-3.51 1167.81,-3.31 1177.65,-3.25 1187.68,-3.33 1197.86,-3.55 1208.15,-3.9 1218.51,-4.39 1228.91,-5 1239.3,-5.74 1249.64,-6.61 1259.89,-7.6 1270.01,-8.7 1279.95,-9.92 1289.69,-11.24"/>
<text text-anchor="middle" x="1204.48" y="-45.08" font-family="sans-serif" font-size="16.00">OrderProcessingService</text>
</g>
<!-- PaymentGatewayService -->
<g id="node5" class="node">
<title>PaymentGatewayService</title>
<polygon fill="none" stroke="black" stroke-width="2" points="1752.33,-59.94 1749.61,-62.72 1746.44,-65.45 1742.83,-68.12 1738.8,-70.72 1734.35,-73.24 1729.51,-75.67 1724.28,-78 1718.69,-80.22 1712.74,-82.32 1706.47,-84.3 1699.87,-86.15 1692.98,-87.85 1685.82,-89.42 1678.39,-90.83 1670.73,-92.09 1662.86,-93.2 1654.79,-94.15 1646.55,-94.94 1638.15,-95.57 1629.63,-96.04 1620.99,-96.35 1612.27,-96.5 1603.49,-96.51 1594.67,-96.36 1585.82,-96.06 1576.98,-95.62 1568.16,-95.04 1559.39,-94.33 1550.68,-93.49 1542.07,-92.53 1533.56,-91.46 1525.18,-90.29 1516.96,-89.01 1508.9,-87.64 1501.04,-86.18 1493.39,-84.64 1485.97,-83.04 1478.8,-81.37 1471.89,-79.64 1465.27,-77.86 1458.95,-76.04 1452.95,-74.17 1447.29,-72.28 1441.97,-70.36 1437.02,-68.42 1432.44,-66.46 1428.26,-64.49 1424.48,-62.51 1421.11,-60.53 1418.17,-58.55 1415.67,-56.57 1413.61,-54.59 1411.99,-52.63 1410.84,-50.67 1410.15,-48.73 1409.92,-46.8 1410.16,-44.89 1410.88,-42.99 1412.07,-41.11 1413.72,-39.25 1415.85,-37.41 1418.44,-35.59 1421.5,-33.8 1425.01,-32.03 1428.96,-30.28 1433.36,-28.57 1438.18,-26.88 1443.42,-25.22 1449.06,-23.6 1455.09,-22.01 1461.5,-20.46 1468.26,-18.95 1475.36,-17.49 1482.79,-16.07 1490.51,-14.71 1498.51,-13.4 1506.77,-12.16 1515.26,-10.98 1523.96,-9.87 1532.84,-8.84 1541.87,-7.88 1551.04,-7.02 1560.31,-6.24 1569.66,-5.56 1579.06,-4.98 1588.48,-4.51 1597.89,-4.15 1607.26,-3.91 1616.58,-3.79 1625.79,-3.79 1634.89,-3.93 1643.85,-4.19 1652.62,-4.6 1661.2,-5.14 1669.55,-5.82 1677.65,-6.64 1685.48,-7.61 1693.01,-8.71 1700.22,-9.96 1707.08,-11.35 1713.59,-12.88 1719.72,-14.54 1725.44,-16.34 1730.76,-18.26 1735.65,-20.3 1740.1,-22.46 1744.09,-24.72 1747.63,-27.09 1750.69,-29.55 1753.28,-32.1 1755.38,-34.72 1756.99,-37.4 1758.11,-40.15 1758.74,-42.93 1758.88,-45.75 1758.53,-48.59 1757.7,-51.44 1756.38,-54.29 1754.59,-57.13 1752.33,-59.94"/>
<text text-anchor="middle" x="1583.48" y="-45.08" font-family="sans-serif" font-size="16.00">PaymentGatewayService</text>
</g>
<!-- ProductCatalogService -->
<g id="node6" class="node">
<title>ProductCatalogService</title>
<polygon fill="none" stroke="black" stroke-width="2" points="1932.88,-5.34 1943.28,-4.93 1953.68,-4.64 1964.02,-4.48 1974.28,-4.45 1984.4,-4.54 1994.35,-4.75 2004.09,-5.1 2013.59,-5.57 2022.81,-6.16 2031.72,-6.88 2040.28,-7.73 2048.48,-8.69 2056.28,-9.78 2063.66,-10.98 2070.61,-12.29 2077.09,-13.71 2083.11,-15.24 2088.65,-16.86 2093.69,-18.58 2098.24,-20.39 2102.28,-22.29 2105.82,-24.27 2108.85,-26.31 2111.39,-28.43 2113.43,-30.6 2114.98,-32.83 2116.06,-35.11 2116.66,-37.42 2116.82,-39.76 2116.53,-42.13 2115.82,-44.52 2114.7,-46.92 2113.18,-49.32 2111.29,-51.71 2109.04,-54.09 2106.45,-56.45 2103.54,-58.79 2100.32,-61.09 2096.81,-63.35 2093.03,-65.56 2089,-67.72 2084.73,-69.82 2080.23,-71.85 2075.52,-73.81 2070.61,-75.7 2065.52,-77.5 2060.25,-79.22 2054.82,-80.84 2049.23,-82.37 2043.49,-83.8 2037.61,-85.13 2031.59,-86.35 2025.45,-87.47 2019.19,-88.47 2012.8,-89.36 2006.31,-90.14 1999.7,-90.8 1992.99,-91.35 1986.17,-91.78 1979.26,-92.09 1972.26,-92.29 1965.17,-92.37 1958,-92.33 1950.76,-92.18 1943.45,-91.91 1936.08,-91.53 1928.66,-91.04 1921.21,-90.44 1913.73,-89.73 1906.23,-88.92 1898.74,-88.01 1891.27,-87 1883.83,-85.89 1876.44,-84.69 1869.14,-83.4 1861.93,-82.03 1854.83,-80.57 1847.88,-79.03 1841.1,-77.42 1834.51,-75.74 1828.15,-73.99 1822.03,-72.18 1816.18,-70.31 1810.64,-68.38 1805.42,-66.41 1800.57,-64.39 1796.09,-62.33 1792.03,-60.23 1788.4,-58.11 1785.23,-55.95 1782.55,-53.78 1780.36,-51.59 1778.7,-49.39 1777.59,-47.19 1777.02,-44.99 1777.03,-42.79 1777.62,-40.6 1778.8,-38.43 1780.57,-36.28 1782.93,-34.15 1785.89,-32.06 1789.44,-30.01 1793.57,-28 1798.28,-26.04 1803.55,-24.13 1809.37,-22.28 1815.71,-20.5 1822.56,-18.78 1829.89,-17.14 1837.67,-15.58 1845.88,-14.11 1854.47,-12.72 1863.42,-11.43 1872.7,-10.24 1882.26,-9.15 1892.06,-8.16 1902.06,-7.28 1912.23,-6.52 1922.52,-5.87 1932.88,-5.34"/>
<text text-anchor="middle" x="1953.48" y="-45.08" font-family="sans-serif" font-size="16.00">ProductCatalogService</text>
</g>
<!-- RecommendationService -->
<g id="node7" class="node">
<title>RecommendationService</title>
<polygon fill="none" stroke="black" stroke-width="2" points="2235.12,-83.81 2226.01,-82.09 2217.24,-80.28 2208.87,-78.38 2200.92,-76.42 2193.42,-74.39 2186.41,-72.31 2179.91,-70.18 2173.96,-68 2168.57,-65.79 2163.77,-63.55 2159.58,-61.29 2156.02,-59.01 2153.08,-56.73 2150.8,-54.44 2149.16,-52.16 2148.18,-49.89 2147.85,-47.64 2148.17,-45.41 2149.14,-43.21 2150.74,-41.04 2152.96,-38.91 2155.79,-36.82 2159.22,-34.78 2163.21,-32.78 2167.74,-30.84 2172.8,-28.96 2178.36,-27.13 2184.38,-25.37 2190.84,-23.68 2197.71,-22.05 2204.95,-20.49 2212.53,-19 2220.42,-17.59 2228.58,-16.26 2236.98,-15 2245.59,-13.83 2254.37,-12.73 2263.29,-11.72 2272.31,-10.8 2281.41,-9.96 2290.56,-9.21 2299.72,-8.54 2308.86,-7.97 2317.97,-7.49 2327.02,-7.1 2335.97,-6.81 2344.82,-6.61 2353.54,-6.51 2362.11,-6.51 2370.52,-6.61 2378.75,-6.8 2386.78,-7.1 2394.61,-7.5 2402.22,-8 2409.61,-8.6 2416.77,-9.31 2423.69,-10.12 2430.36,-11.04 2436.78,-12.05 2442.94,-13.17 2448.85,-14.39 2454.5,-15.71 2459.88,-17.13 2465,-18.64 2469.85,-20.25 2474.43,-21.95 2478.73,-23.74 2482.76,-25.61 2486.51,-27.56 2489.97,-29.59 2493.15,-31.69 2496.04,-33.86 2498.63,-36.09 2500.92,-38.37 2502.9,-40.71 2504.56,-43.08 2505.9,-45.49 2506.91,-47.93 2507.58,-50.4 2507.9,-52.87 2507.87,-55.35 2507.47,-57.82 2506.7,-60.29 2505.55,-62.73 2504,-65.14 2502.05,-67.52 2499.7,-69.85 2496.93,-72.13 2493.75,-74.34 2490.14,-76.49 2486.1,-78.55 2481.64,-80.53 2476.74,-82.42 2471.41,-84.2 2465.66,-85.87 2459.49,-87.43 2452.9,-88.87 2445.9,-90.19 2438.52,-91.38 2430.75,-92.43 2422.62,-93.34 2414.14,-94.11 2405.33,-94.74 2396.23,-95.22 2386.84,-95.55 2377.2,-95.73 2367.34,-95.77 2357.29,-95.66 2347.08,-95.41 2336.75,-95 2326.33,-94.46 2315.86,-93.78 2305.38,-92.96 2294.93,-92.01 2284.55,-90.93 2274.28,-89.73 2264.16,-88.41 2254.24,-86.98 2244.54,-85.45 2235.12,-83.81"/>
<text text-anchor="middle" x="2341.48" y="-45.08" font-family="sans-serif" font-size="16.00">RecommendationService</text>
</g>
<!-- ReviewAndRatingService -->
<g id="node8" class="node">
<title>ReviewAndRatingService</title>
<polygon fill="none" stroke="black" stroke-width="2" points="2856.45,-14.71 2865.45,-16.46 2874.11,-18.29 2882.37,-20.21 2890.2,-22.19 2897.57,-24.23 2904.45,-26.33 2910.81,-28.47 2916.63,-30.66 2921.87,-32.87 2926.52,-35.12 2930.56,-37.38 2933.98,-39.65 2936.76,-41.93 2938.89,-44.2 2940.38,-46.47 2941.2,-48.72 2941.38,-50.96 2940.9,-53.17 2939.78,-55.34 2938.03,-57.49 2935.65,-59.59 2932.67,-61.65 2929.1,-63.66 2924.97,-65.62 2920.29,-67.53 2915.09,-69.38 2909.39,-71.16 2903.24,-72.88 2896.65,-74.53 2889.66,-76.12 2882.3,-77.63 2874.6,-79.07 2866.6,-80.43 2858.33,-81.72 2849.83,-82.93 2841.12,-84.06 2832.25,-85.1 2823.25,-86.07 2814.14,-86.95 2804.97,-87.74 2795.75,-88.44 2786.53,-89.06 2777.33,-89.59 2768.17,-90.03 2759.08,-90.37 2750.09,-90.62 2741.21,-90.78 2732.47,-90.84 2723.88,-90.81 2715.47,-90.67 2707.24,-90.44 2699.21,-90.11 2691.39,-89.68 2683.8,-89.15 2676.44,-88.52 2669.32,-87.79 2662.44,-86.95 2655.82,-86.02 2649.46,-84.98 2643.36,-83.84 2637.52,-82.61 2631.96,-81.28 2626.66,-79.85 2621.64,-78.32 2616.89,-76.71 2612.42,-75 2608.24,-73.21 2604.33,-71.34 2600.71,-69.39 2597.38,-67.36 2594.34,-65.26 2591.6,-63.1 2589.15,-60.88 2587.02,-58.6 2585.2,-56.28 2583.7,-53.91 2582.52,-51.52 2581.68,-49.09 2581.17,-46.65 2581.02,-44.2 2581.22,-41.74 2581.79,-39.28 2582.74,-36.85 2584.06,-34.43 2585.78,-32.04 2587.89,-29.69 2590.41,-27.39 2593.34,-25.14 2596.68,-22.96 2600.45,-20.85 2604.64,-18.82 2609.25,-16.88 2614.28,-15.03 2619.74,-13.29 2625.62,-11.65 2631.91,-10.13 2638.61,-8.73 2645.71,-7.46 2653.19,-6.32 2661.05,-5.31 2669.26,-4.44 2677.81,-3.71 2686.67,-3.13 2695.83,-2.69 2705.26,-2.4 2714.92,-2.26 2724.8,-2.27 2734.87,-2.42 2745.08,-2.72 2755.4,-3.16 2765.8,-3.75 2776.24,-4.47 2786.68,-5.33 2797.08,-6.32 2807.41,-7.43 2817.62,-8.67 2827.66,-10.02 2837.51,-11.48 2847.12,-13.04 2856.45,-14.71"/>
<text text-anchor="middle" x="2747.48" y="-45.08" font-family="sans-serif" font-size="16.00">ReviewAndRatingService</text>
</g>
<!-- ShippingService -->
<g id="node9" class="node">
<title>ShippingService</title>
<polygon fill="none" stroke="black" stroke-width="2" points="2976.14,-66.25 2972.78,-63.64 2969.75,-61 2967.08,-58.33 2964.77,-55.66 2962.84,-52.98 2961.29,-50.32 2960.14,-47.67 2959.39,-45.05 2959.04,-42.47 2959.11,-39.94 2959.59,-37.47 2960.48,-35.05 2961.78,-32.71 2963.49,-30.45 2965.61,-28.27 2968.12,-26.18 2971.02,-24.18 2974.3,-22.28 2977.95,-20.49 2981.95,-18.8 2986.3,-17.22 2990.97,-15.75 2995.95,-14.39 3001.22,-13.14 3006.77,-12.01 3012.56,-10.99 3018.58,-10.08 3024.82,-9.29 3031.23,-8.6 3037.81,-8.03 3044.53,-7.56 3051.37,-7.19 3058.29,-6.93 3065.28,-6.76 3072.32,-6.7 3079.37,-6.73 3086.42,-6.85 3093.44,-7.06 3100.41,-7.35 3107.31,-7.73 3114.12,-8.2 3120.82,-8.74 3127.38,-9.36 3133.79,-10.05 3140.03,-10.82 3146.08,-11.66 3151.94,-12.56 3157.58,-13.54 3162.99,-14.58 3168.16,-15.69 3173.08,-16.87 3177.74,-18.11 3182.13,-19.41 3186.24,-20.77 3190.07,-22.2 3193.61,-23.69 3196.85,-25.24 3199.8,-26.84 3202.45,-28.51 3204.79,-30.24 3206.84,-32.02 3208.58,-33.85 3210.02,-35.74 3211.16,-37.68 3212,-39.67 3212.54,-41.7 3212.79,-43.78 3212.75,-45.9 3212.42,-48.05 3211.8,-50.24 3210.91,-52.45 3209.73,-54.69 3208.29,-56.94 3206.58,-59.2 3204.61,-61.47 3202.38,-63.74 3199.89,-66 3197.16,-68.24 3194.19,-70.46 3190.98,-72.65 3187.53,-74.8 3183.87,-76.9 3179.98,-78.95 3175.88,-80.93 3171.57,-82.84 3167.06,-84.67 3162.35,-86.41 3157.46,-88.05 3152.4,-89.58 3147.16,-91 3141.76,-92.31 3136.21,-93.48 3130.52,-94.52 3124.7,-95.42 3118.76,-96.17 3112.71,-96.77 3106.56,-97.22 3100.33,-97.51 3094.04,-97.64 3087.69,-97.61 3081.3,-97.41 3074.88,-97.04 3068.46,-96.51 3062.05,-95.82 3055.67,-94.96 3049.33,-93.95 3043.06,-92.78 3036.87,-91.45 3030.78,-89.99 3024.82,-88.38 3019,-86.63 3013.33,-84.76 3007.85,-82.77 3002.57,-80.67 2997.51,-78.47 2992.69,-76.17 2988.12,-73.79 2983.83,-71.34 2979.83,-68.82 2976.14,-66.25"/>
<text text-anchor="middle" x="3091.48" y="-45.08" font-family="sans-serif" font-size="16.00">ShippingService</text>
</g>
<!-- UserManagementService -->
<g id="node10" class="node">
<title>UserManagementService</title>
<polygon fill="none" stroke="black" stroke-width="2" points="3592.37,-47.84 3592.81,-50.71 3592.76,-53.57 3592.23,-56.41 3591.21,-59.2 3589.7,-61.95 3587.71,-64.63 3585.24,-67.25 3582.3,-69.79 3578.89,-72.24 3575.02,-74.59 3570.7,-76.83 3565.94,-78.96 3560.76,-80.97 3555.16,-82.85 3549.17,-84.61 3542.8,-86.23 3536.07,-87.7 3529,-89.04 3521.6,-90.23 3513.91,-91.28 3505.93,-92.18 3497.7,-92.94 3489.24,-93.55 3480.57,-94.02 3471.72,-94.35 3462.72,-94.54 3453.58,-94.59 3444.34,-94.51 3435.03,-94.31 3425.68,-93.98 3416.3,-93.54 3406.93,-92.98 3397.6,-92.32 3388.32,-91.55 3379.14,-90.69 3370.08,-89.74 3361.16,-88.7 3352.4,-87.58 3343.85,-86.39 3335.51,-85.13 3327.41,-83.81 3319.57,-82.42 3312.03,-80.98 3304.79,-79.5 3297.88,-77.96 3291.31,-76.39 3285.11,-74.77 3279.29,-73.12 3273.86,-71.44 3268.84,-69.73 3264.25,-67.99 3260.09,-66.22 3256.37,-64.43 3253.1,-62.62 3250.29,-60.79 3247.95,-58.94 3246.07,-57.07 3244.67,-55.19 3243.74,-53.28 3243.29,-51.37 3243.32,-49.44 3243.81,-47.51 3244.78,-45.56 3246.21,-43.6 3248.09,-41.64 3250.44,-39.67 3253.22,-37.7 3256.44,-35.74 3260.09,-33.77 3264.16,-31.82 3268.62,-29.87 3273.48,-27.94 3278.71,-26.04 3284.3,-24.15 3290.24,-22.3 3296.51,-20.48 3303.1,-18.7 3309.98,-16.97 3317.14,-15.29 3324.56,-13.67 3332.22,-12.12 3340.1,-10.65 3348.18,-9.25 3356.43,-7.94 3364.85,-6.73 3373.41,-5.62 3382.08,-4.62 3390.85,-3.73 3399.69,-2.97 3408.57,-2.33 3417.49,-1.82 3426.41,-1.46 3435.31,-1.24 3444.17,-1.17 3452.97,-1.24 3461.68,-1.48 3470.29,-1.87 3478.76,-2.41 3487.09,-3.12 3495.23,-3.99 3503.19,-5.01 3510.92,-6.19 3518.42,-7.53 3525.66,-9.02 3532.62,-10.65 3539.28,-12.43 3545.63,-14.35 3551.64,-16.39 3557.31,-18.56 3562.6,-20.84 3567.51,-23.23 3572.03,-25.71 3576.13,-28.29 3579.81,-30.94 3583.05,-33.65 3585.84,-36.43 3588.18,-39.24 3590.05,-42.09 3591.45,-44.96 3592.37,-47.84"/>
<text text-anchor="middle" x="3417.48" y="-45.08" font-family="sans-serif" font-size="16.00">UserManagementService</text>
</g>
</g>
</svg>
