<svg width="2000px" height="1727px"
 viewBox="0.00 0.00 879.57 759.91" xmlns="http://www.w3.org/2000/svg" xmlns:xlink="http://www.w3.org/1999/xlink">
<g id="graph0" class="graph" transform="scale(1.0 1.0) rotate(0) translate(4 755.91)">
<title>ContextMapGraph</title>
<polygon fill="white" stroke="transparent" points="-4,4 -4,-755.91 875.57,-755.91 875.57,4 -4,4"/>
<!-- AuthContext -->
<g id="node1" class="node">
<title>AuthContext</title>
<polygon fill="none" stroke="black" stroke-width="2" points="197.79,-743.07 191.72,-744.34 185.57,-745.49 179.35,-746.52 173.11,-747.42 166.84,-748.2 160.6,-748.83 154.38,-749.33 148.22,-749.68 142.15,-749.89 136.17,-749.96 130.31,-749.88 124.59,-749.65 119.03,-749.28 113.63,-748.76 108.43,-748.09 103.42,-747.29 98.62,-746.34 94.05,-745.26 89.71,-744.04 85.61,-742.7 81.75,-741.24 78.14,-739.65 74.8,-737.96 71.7,-736.15 68.87,-734.25 66.3,-732.26 63.98,-730.18 61.92,-728.03 60.12,-725.81 58.57,-723.53 57.27,-721.19 56.21,-718.81 55.39,-716.4 54.8,-713.95 54.44,-711.49 54.31,-709.02 54.39,-706.55 54.68,-704.09 55.18,-701.64 55.88,-699.21 56.78,-696.81 57.87,-694.44 59.14,-692.13 60.59,-689.86 62.22,-687.65 64.02,-685.5 66,-683.42 68.14,-681.41 70.45,-679.48 72.92,-677.63 75.55,-675.86 78.34,-674.19 81.29,-672.61 84.39,-671.12 87.65,-669.73 91.06,-668.44 94.62,-667.25 98.33,-666.16 102.19,-665.18 106.19,-664.29 110.33,-663.52 114.62,-662.84 119.03,-662.27 123.58,-661.81 128.25,-661.44 133.03,-661.18 137.93,-661.02 142.93,-660.96 148.03,-661 153.2,-661.14 158.45,-661.38 163.76,-661.71 169.12,-662.13 174.52,-662.65 179.93,-663.27 185.35,-663.97 190.75,-664.76 196.12,-665.63 201.45,-666.6 206.71,-667.65 211.88,-668.77 216.95,-669.99 221.89,-671.27 226.68,-672.64 231.31,-674.08 235.76,-675.6 240,-677.18 244.01,-678.84 247.78,-680.56 251.29,-682.34 254.52,-684.18 257.45,-686.09 260.06,-688.04 262.35,-690.05 264.3,-692.1 265.9,-694.2 267.13,-696.33 268,-698.5 268.48,-700.7 268.58,-702.93 268.29,-705.17 267.62,-707.43 266.55,-709.7 265.1,-711.96 263.26,-714.23 261.05,-716.48 258.47,-718.72 255.52,-720.93 252.23,-723.11 248.61,-725.26 244.66,-727.36 240.41,-729.41 235.87,-731.39 231.06,-733.32 226.01,-735.16 220.72,-736.93 215.24,-738.62 209.57,-740.2 203.75,-741.69 197.79,-743.07"/>
<text text-anchor="middle" x="153.46" y="-699.51" font-family="sans-serif" font-size="16.00">AuthContext</text>
</g>
<!-- ConversationContext -->
<g id="node2" class="node">
<title>ConversationContext</title>
<polygon fill="none" stroke="black" stroke-width="2" points="53.3,-418.51 51.37,-415.69 49.87,-412.88 48.8,-410.07 48.17,-407.27 47.98,-404.51 48.24,-401.79 48.94,-399.11 50.1,-396.5 51.7,-393.96 53.75,-391.49 56.24,-389.11 59.16,-386.83 62.51,-384.65 66.29,-382.57 70.47,-380.61 75.05,-378.77 80.02,-377.05 85.35,-375.45 91.04,-373.99 97.07,-372.66 103.41,-371.46 110.05,-370.39 116.96,-369.45 124.13,-368.65 131.53,-367.98 139.14,-367.44 146.93,-367.03 154.88,-366.74 162.96,-366.58 171.14,-366.53 179.41,-366.6 187.73,-366.78 196.08,-367.07 204.43,-367.46 212.75,-367.95 221.03,-368.53 229.22,-369.2 237.32,-369.96 245.29,-370.8 253.11,-371.71 260.75,-372.7 268.2,-373.75 275.44,-374.87 282.44,-376.05 289.18,-377.29 295.65,-378.59 301.83,-379.93 307.7,-381.33 313.26,-382.77 318.47,-384.26 323.34,-385.79 327.86,-387.37 332.01,-388.98 335.78,-390.64 339.17,-392.33 342.17,-394.06 344.79,-395.83 347,-397.63 348.82,-399.46 350.24,-401.33 351.25,-403.23 351.87,-405.15 352.1,-407.11 351.93,-409.09 351.37,-411.1 350.42,-413.13 349.1,-415.17 347.4,-417.24 345.33,-419.31 342.91,-421.4 340.13,-423.49 337.01,-425.58 333.56,-427.66 329.79,-429.74 325.7,-431.79 321.32,-433.83 316.64,-435.84 311.68,-437.81 306.45,-439.75 300.97,-441.63 295.25,-443.46 289.3,-445.22 283.14,-446.91 276.77,-448.52 270.22,-450.05 263.49,-451.48 256.61,-452.8 249.58,-454.02 242.43,-455.12 235.16,-456.1 227.8,-456.94 220.36,-457.65 212.86,-458.22 205.31,-458.64 197.74,-458.91 190.15,-459.02 182.58,-458.97 175.03,-458.77 167.52,-458.4 160.08,-457.86 152.72,-457.17 145.46,-456.31 138.32,-455.29 131.32,-454.1 124.48,-452.77 117.82,-451.28 111.35,-449.64 105.1,-447.87 99.09,-445.96 93.33,-443.92 87.84,-441.76 82.63,-439.49 77.73,-437.12 73.16,-434.65 68.92,-432.1 65.04,-429.48 61.52,-426.8 58.38,-424.07 55.64,-421.3 53.3,-418.51"/>
<text text-anchor="middle" x="202.46" y="-406.82" font-family="sans-serif" font-size="16.00">ConversationContext</text>
</g>
<!-- AuthContext&#45;&gt;ConversationContext -->
<g id="edge1" class="edge">
<title>AuthContext&#45;&gt;ConversationContext</title>
<path fill="none" stroke="black" stroke-width="2" d="M147.07,-660.68C142.35,-620.87 138.71,-559.46 151.46,-508.07 155.66,-491.15 163.42,-473.94 171.65,-458.83"/>
<text text-anchor="middle" x="226.96" y="-553.79" font-family="sans-serif" font-size="12.00"> &#160;&#160;&#160;&#160;&#160;&#160;&#160;&#160;&#160;&#160;&#160;&#160;&#160;&#160;&#160;&#160;&#160;&#160;&#160;&#160;&#160;&#160;&#160;&#160;&#160;&#160;&#160;&#160;&#160;&#160;&#160;&#160;&#160;&#160;&#160;&#160;&#160;&#160;&#160;</text>
<polygon fill="white" stroke="transparent" points="148.65,-448.83 148.65,-467.83 164.65,-467.83 164.65,-448.83 148.65,-448.83"/>
<polyline fill="none" stroke="black" points="164.65,-448.83 164.65,-467.83 "/>
<text text-anchor="start" x="151.65" y="-455.23" font-family="sans-serif" font-size="12.00">D</text>
<polygon fill="white" stroke="transparent" points="164.65,-448.83 164.65,-467.83 194.65,-467.83 194.65,-448.83 164.65,-448.83"/>
<polygon fill="none" stroke="black" points="164.65,-448.83 164.65,-467.83 194.65,-467.83 194.65,-448.83 164.65,-448.83"/>
<text text-anchor="start" x="167.65" y="-455.23" font-family="sans-serif" font-size="12.00">ACL</text>
<polygon fill="white" stroke="transparent" points="112.07,-650.68 112.07,-669.68 128.07,-669.68 128.07,-650.68 112.07,-650.68"/>
<polyline fill="none" stroke="black" points="128.07,-650.68 128.07,-669.68 "/>
<text text-anchor="start" x="115.07" y="-657.08" font-family="sans-serif" font-size="12.00">U</text>
<polygon fill="white" stroke="transparent" points="128.07,-650.68 128.07,-669.68 183.07,-669.68 183.07,-650.68 128.07,-650.68"/>
<polygon fill="none" stroke="black" points="128.07,-650.68 128.07,-669.68 183.07,-669.68 183.07,-650.68 128.07,-650.68"/>
<text text-anchor="start" x="131.07" y="-657.08" font-family="sans-serif" font-size="12.00">OHS, PL</text>
</g>
<!-- PaymentContext -->
<g id="node5" class="node">
<title>PaymentContext</title>
<polygon fill="none" stroke="black" stroke-width="2" points="557.39,-536.77 561.28,-539.29 564.84,-541.85 568.05,-544.44 570.9,-547.05 573.37,-549.67 575.45,-552.29 577.13,-554.9 578.41,-557.49 579.27,-560.05 579.71,-562.57 579.73,-565.05 579.32,-567.48 578.49,-569.84 577.23,-572.14 575.55,-574.36 573.46,-576.51 570.96,-578.57 568.06,-580.54 564.76,-582.41 561.1,-584.19 557.06,-585.87 552.68,-587.45 547.97,-588.93 542.95,-590.3 537.63,-591.56 532.03,-592.72 526.19,-593.77 520.11,-594.71 513.83,-595.55 507.36,-596.28 500.73,-596.92 493.96,-597.45 487.09,-597.88 480.12,-598.21 473.1,-598.45 466.03,-598.59 458.95,-598.64 451.88,-598.6 444.85,-598.48 437.87,-598.26 430.96,-597.97 424.15,-597.59 417.46,-597.14 410.91,-596.6 404.51,-595.99 398.28,-595.3 392.24,-594.54 386.4,-593.7 380.77,-592.79 375.38,-591.81 370.22,-590.76 365.31,-589.64 360.66,-588.45 356.27,-587.19 352.15,-585.86 348.31,-584.47 344.75,-583 341.48,-581.47 338.5,-579.88 335.8,-578.22 333.4,-576.49 331.29,-574.71 329.47,-572.86 327.94,-570.96 326.7,-568.99 325.75,-566.98 325.09,-564.92 324.7,-562.81 324.6,-560.65 324.78,-558.46 325.23,-556.23 325.96,-553.98 326.95,-551.7 328.21,-549.4 329.72,-547.09 331.5,-544.78 333.53,-542.47 335.82,-540.16 338.35,-537.88 341.12,-535.62 344.14,-533.4 347.39,-531.21 350.87,-529.08 354.57,-527.01 358.5,-525 362.65,-523.07 367.01,-521.22 371.57,-519.47 376.33,-517.82 381.29,-516.27 386.43,-514.84 391.75,-513.54 397.23,-512.37 402.88,-511.33 408.67,-510.43 414.61,-509.68 420.67,-509.09 426.84,-508.65 433.12,-508.37 439.48,-508.25 445.91,-508.29 452.41,-508.5 458.94,-508.87 465.49,-509.41 472.05,-510.1 478.59,-510.96 485.11,-511.98 491.56,-513.14 497.95,-514.46 504.24,-515.92 510.42,-517.51 516.46,-519.24 522.35,-521.09 528.05,-523.05 533.56,-525.12 538.84,-527.29 543.89,-529.55 548.68,-531.89 553.18,-534.3 557.39,-536.77"/>
<text text-anchor="middle" x="445.46" y="-553.09" font-family="sans-serif" font-size="16.00">PaymentContext</text>
</g>
<!-- AuthContext&#45;&gt;PaymentContext -->
<g id="edge2" class="edge">
<title>AuthContext&#45;&gt;PaymentContext</title>
<path fill="none" stroke="black" stroke-width="2" d="M209.62,-668.07C234.09,-653.68 263.33,-637.19 290.46,-623.7 314.41,-611.8 341.05,-600 365.38,-589.74"/>
<text text-anchor="middle" x="365.96" y="-627.1" font-family="sans-serif" font-size="12.00"> &#160;&#160;&#160;&#160;&#160;&#160;&#160;&#160;&#160;&#160;&#160;&#160;&#160;&#160;&#160;&#160;&#160;&#160;&#160;&#160;&#160;&#160;&#160;&#160;&#160;&#160;&#160;&#160;&#160;&#160;&#160;&#160;&#160;&#160;&#160;&#160;&#160;&#160;&#160;</text>
<polygon fill="white" stroke="transparent" points="342.38,-579.74 342.38,-598.74 358.38,-598.74 358.38,-579.74 342.38,-579.74"/>
<polyline fill="none" stroke="black" points="358.38,-579.74 358.38,-598.74 "/>
<text text-anchor="start" x="345.38" y="-586.14" font-family="sans-serif" font-size="12.00">D</text>
<polygon fill="white" stroke="transparent" points="358.38,-579.74 358.38,-598.74 388.38,-598.74 388.38,-579.74 358.38,-579.74"/>
<polygon fill="none" stroke="black" points="358.38,-579.74 358.38,-598.74 388.38,-598.74 388.38,-579.74 358.38,-579.74"/>
<text text-anchor="start" x="361.38" y="-586.14" font-family="sans-serif" font-size="12.00">ACL</text>
<polygon fill="white" stroke="transparent" points="174.62,-658.07 174.62,-677.07 190.62,-677.07 190.62,-658.07 174.62,-658.07"/>
<polyline fill="none" stroke="black" points="190.62,-658.07 190.62,-677.07 "/>
<text text-anchor="start" x="177.62" y="-664.47" font-family="sans-serif" font-size="12.00">U</text>
<polygon fill="white" stroke="transparent" points="190.62,-658.07 190.62,-677.07 245.62,-677.07 245.62,-658.07 190.62,-658.07"/>
<polygon fill="none" stroke="black" points="190.62,-658.07 190.62,-677.07 245.62,-677.07 245.62,-658.07 190.62,-658.07"/>
<text text-anchor="start" x="193.62" y="-664.47" font-family="sans-serif" font-size="12.00">OHS, PL</text>
</g>
<!-- LiveKitServer -->
<g id="node3" class="node">
<title>LiveKitServer</title>
<polygon fill="none" stroke="black" stroke-width="2" points="103.87,-231.11 96.86,-230.87 89.92,-230.51 83.09,-230.03 76.38,-229.44 69.83,-228.73 63.45,-227.91 57.29,-226.98 51.35,-225.94 45.67,-224.8 40.26,-223.55 35.13,-222.21 30.32,-220.77 25.83,-219.23 21.68,-217.61 17.87,-215.91 14.42,-214.13 11.34,-212.28 8.62,-210.36 6.28,-208.38 4.32,-206.34 2.73,-204.25 1.51,-202.11 0.66,-199.93 0.17,-197.72 0.04,-195.48 0.26,-193.22 0.81,-190.95 1.69,-188.66 2.88,-186.37 4.38,-184.08 6.16,-181.81 8.21,-179.55 10.53,-177.31 13.08,-175.1 15.86,-172.92 18.85,-170.78 22.04,-168.69 25.41,-166.65 28.94,-164.67 32.63,-162.75 36.45,-160.9 40.4,-159.12 44.45,-157.42 48.61,-155.8 52.85,-154.26 57.16,-152.82 61.55,-151.48 65.99,-150.23 70.48,-149.09 75.01,-148.05 79.58,-147.12 84.18,-146.3 88.8,-145.59 93.44,-145 98.1,-144.52 102.76,-144.16 107.44,-143.92 112.12,-143.8 116.8,-143.8 121.48,-143.92 126.15,-144.16 130.82,-144.52 135.48,-145 140.12,-145.59 144.74,-146.3 149.34,-147.12 153.91,-148.05 158.44,-149.09 162.93,-150.23 167.37,-151.48 171.75,-152.82 176.07,-154.26 180.31,-155.8 184.47,-157.42 188.52,-159.12 192.47,-160.9 196.29,-162.75 199.97,-164.67 203.51,-166.65 206.88,-168.69 210.07,-170.78 213.06,-172.92 215.84,-175.1 218.39,-177.31 220.71,-179.55 222.76,-181.81 224.54,-184.08 226.04,-186.37 227.23,-188.66 228.11,-190.95 228.66,-193.22 228.88,-195.48 228.75,-197.72 228.26,-199.93 227.41,-202.11 226.19,-204.25 224.6,-206.34 222.64,-208.38 220.3,-210.36 217.58,-212.28 214.5,-214.13 211.05,-215.91 207.24,-217.61 203.09,-219.23 198.6,-220.77 193.78,-222.21 188.66,-223.55 183.25,-224.8 177.57,-225.94 171.63,-226.98 165.46,-227.91 159.09,-228.73 152.54,-229.44 145.83,-230.03 139,-230.51 132.06,-230.87 125.05,-231.11 117.99,-231.23 110.93,-231.23 103.87,-231.11"/>
<text text-anchor="middle" x="114.46" y="-183.71" font-family="sans-serif" font-size="16.00">LiveKitServer</text>
</g>
<!-- ConversationContext&#45;&gt;LiveKitServer -->
<g id="edge3" class="edge">
<title>ConversationContext&#45;&gt;LiveKitServer</title>
<path fill="none" stroke="black" stroke-width="2" d="M132.78,-367.49C125.85,-360.55 119.79,-352.78 115.46,-344.16 97.85,-309.16 99.87,-263.88 104.93,-231.18"/>
<text text-anchor="middle" x="190.96" y="-293.89" font-family="sans-serif" font-size="12.00"> &#160;&#160;&#160;&#160;&#160;&#160;&#160;&#160;&#160;&#160;&#160;&#160;&#160;&#160;&#160;&#160;&#160;&#160;&#160;&#160;&#160;&#160;&#160;&#160;&#160;&#160;&#160;&#160;&#160;&#160;&#160;&#160;&#160;&#160;&#160;&#160;&#160;&#160;&#160;</text>
<polygon fill="white" stroke="transparent" points="85.93,-221.18 85.93,-240.18 101.93,-240.18 101.93,-221.18 85.93,-221.18"/>
<polyline fill="none" stroke="black" points="101.93,-221.18 101.93,-240.18 "/>
<text text-anchor="start" x="88.93" y="-227.58" font-family="sans-serif" font-size="12.00">D</text>
<polygon fill="white" stroke="transparent" points="101.93,-221.18 101.93,-240.18 123.93,-240.18 123.93,-221.18 101.93,-221.18"/>
<polygon fill="none" stroke="black" points="101.93,-221.18 101.93,-240.18 123.93,-240.18 123.93,-221.18 101.93,-221.18"/>
<text text-anchor="start" x="104.93" y="-227.58" font-family="sans-serif" font-size="12.00">CF</text>
<polygon fill="white" stroke="transparent" points="125.78,-358.49 125.78,-375.49 139.78,-375.49 139.78,-358.49 125.78,-358.49"/>
<text text-anchor="start" x="127.78" y="-363.89" font-family="sans-serif" font-size="12.00">U</text>
</g>
<!-- ChatbotAndVoiceContext -->
<g id="node4" class="node">
<title>ChatbotAndVoiceContext</title>
<polygon fill="none" stroke="black" stroke-width="2" points="506.72,-49.14 506.36,-52.01 505.53,-54.86 504.22,-57.68 502.43,-60.45 500.17,-63.17 497.45,-65.81 494.27,-68.38 490.64,-70.86 486.57,-73.24 482.07,-75.51 477.15,-77.68 471.83,-79.72 466.12,-81.63 460.03,-83.42 453.59,-85.06 446.81,-86.56 439.7,-87.92 432.3,-89.13 424.61,-90.19 416.67,-91.1 408.48,-91.86 400.09,-92.47 391.5,-92.93 382.75,-93.24 373.85,-93.42 364.84,-93.45 355.74,-93.34 346.57,-93.1 337.37,-92.73 328.15,-92.24 318.94,-91.64 309.78,-90.92 300.68,-90.09 291.67,-89.16 282.77,-88.14 274.02,-87.03 265.43,-85.84 257.03,-84.57 248.85,-83.23 240.9,-81.83 233.21,-80.36 225.8,-78.85 218.69,-77.28 211.9,-75.67 205.45,-74.02 199.35,-72.33 193.63,-70.61 188.3,-68.86 183.36,-67.09 178.84,-65.29 174.75,-63.48 171.1,-61.64 167.9,-59.79 165.15,-57.93 162.86,-56.05 161.04,-54.16 159.69,-52.27 158.82,-50.36 158.42,-48.45 158.5,-46.53 159.06,-44.61 160.08,-42.69 161.58,-40.76 163.55,-38.83 165.97,-36.91 168.84,-34.99 172.16,-33.07 175.9,-31.17 180.08,-29.27 184.66,-27.39 189.64,-25.53 195,-23.69 200.73,-21.88 206.82,-20.1 213.24,-18.35 219.98,-16.65 227.02,-14.99 234.35,-13.38 241.93,-11.84 249.76,-10.35 257.8,-8.94 266.05,-7.61 274.47,-6.36 283.05,-5.2 291.76,-4.13 300.58,-3.18 309.48,-2.33 318.45,-1.6 327.45,-0.99 336.47,-0.51 345.47,-0.17 354.45,0.04 363.36,0.11 372.2,0.02 380.93,-0.21 389.53,-0.59 397.99,-1.13 406.26,-1.83 414.35,-2.68 422.21,-3.69 429.84,-4.85 437.21,-6.16 444.3,-7.63 451.09,-9.24 457.56,-10.99 463.7,-12.88 469.48,-14.91 474.9,-17.05 479.93,-19.31 484.57,-21.68 488.8,-24.15 492.6,-26.71 495.97,-29.35 498.89,-32.06 501.37,-34.82 503.38,-37.64 504.93,-40.49 506,-43.36 506.6,-46.25 506.72,-49.14"/>
<text text-anchor="middle" x="332.46" y="-43.31" font-family="sans-serif" font-size="16.00">ChatbotAndVoiceContext</text>
</g>
<!-- ConversationContext&#45;&gt;ChatbotAndVoiceContext -->
<g id="edge4" class="edge">
<title>ConversationContext&#45;&gt;ChatbotAndVoiceContext</title>
<path fill="none" stroke="black" stroke-width="2" d="M248.28,-371.06C255.46,-362.91 261.98,-353.82 266.46,-344.16 304.2,-262.78 260.96,-229.51 285.46,-143.21 290.54,-125.32 298.93,-106.74 307.22,-90.8"/>
<text text-anchor="middle" x="319.96" y="-184.41" font-family="sans-serif" font-size="12.00">Partnership</text>
</g>
<!-- LiveKitServer&#45;&gt;ChatbotAndVoiceContext -->
<g id="edge5" class="edge">
<title>LiveKitServer&#45;&gt;ChatbotAndVoiceContext</title>
<path fill="none" stroke="black" stroke-width="2" d="M106.33,-143.82C106.39,-132.6 108.68,-121.16 115.46,-112.21 127.29,-96.6 162.85,-83.42 201.85,-73.15"/>
<text text-anchor="middle" x="190.96" y="-115.61" font-family="sans-serif" font-size="12.00"> &#160;&#160;&#160;&#160;&#160;&#160;&#160;&#160;&#160;&#160;&#160;&#160;&#160;&#160;&#160;&#160;&#160;&#160;&#160;&#160;&#160;&#160;&#160;&#160;&#160;&#160;&#160;&#160;&#160;&#160;&#160;&#160;&#160;&#160;&#160;&#160;&#160;&#160;&#160;</text>
<polygon fill="white" stroke="transparent" points="182.85,-63.15 182.85,-82.15 198.85,-82.15 198.85,-63.15 182.85,-63.15"/>
<polyline fill="none" stroke="black" points="198.85,-63.15 198.85,-82.15 "/>
<text text-anchor="start" x="185.85" y="-69.55" font-family="sans-serif" font-size="12.00">D</text>
<polygon fill="white" stroke="transparent" points="198.85,-63.15 198.85,-82.15 220.85,-82.15 220.85,-63.15 198.85,-63.15"/>
<polygon fill="none" stroke="black" points="198.85,-63.15 198.85,-82.15 220.85,-82.15 220.85,-63.15 198.85,-63.15"/>
<text text-anchor="start" x="201.85" y="-69.55" font-family="sans-serif" font-size="12.00">CF</text>
<polygon fill="white" stroke="transparent" points="99.33,-134.82 99.33,-151.82 113.33,-151.82 113.33,-134.82 99.33,-134.82"/>
<text text-anchor="start" x="101.33" y="-140.22" font-family="sans-serif" font-size="12.00">U</text>
</g>
<!-- PaymentContext&#45;&gt;ConversationContext -->
<g id="edge6" class="edge">
<title>PaymentContext&#45;&gt;ConversationContext</title>
<path fill="none" stroke="black" stroke-width="2" d="M350.72,-529.11C324.1,-519.18 296.02,-506.29 272.46,-490.07 259.08,-480.86 246.54,-468.57 235.88,-456.45"/>
<text text-anchor="middle" x="347.96" y="-480.47" font-family="sans-serif" font-size="12.00"> &#160;&#160;&#160;&#160;&#160;&#160;&#160;&#160;&#160;&#160;&#160;&#160;&#160;&#160;&#160;&#160;&#160;&#160;&#160;&#160;&#160;&#160;&#160;&#160;&#160;&#160;&#160;&#160;&#160;&#160;&#160;&#160;&#160;&#160;&#160;&#160;&#160;&#160;&#160;</text>
<polygon fill="white" stroke="transparent" points="212.88,-446.45 212.88,-465.45 228.88,-465.45 228.88,-446.45 212.88,-446.45"/>
<polyline fill="none" stroke="black" points="228.88,-446.45 228.88,-465.45 "/>
<text text-anchor="start" x="215.88" y="-452.85" font-family="sans-serif" font-size="12.00">D</text>
<polygon fill="white" stroke="transparent" points="228.88,-446.45 228.88,-465.45 258.88,-465.45 258.88,-446.45 228.88,-446.45"/>
<polygon fill="none" stroke="black" points="228.88,-446.45 228.88,-465.45 258.88,-465.45 258.88,-446.45 228.88,-446.45"/>
<text text-anchor="start" x="231.88" y="-452.85" font-family="sans-serif" font-size="12.00">ACL</text>
<polygon fill="white" stroke="transparent" points="343.72,-520.11 343.72,-537.11 357.72,-537.11 357.72,-520.11 343.72,-520.11"/>
<text text-anchor="start" x="345.72" y="-525.51" font-family="sans-serif" font-size="12.00">U</text>
</g>
<!-- DocumentContext -->
<g id="node6" class="node">
<title>DocumentContext</title>
<polygon fill="none" stroke="black" stroke-width="2" points="513.89,-335.04 506.33,-336.53 498.62,-337.91 490.8,-339.17 482.89,-340.3 474.94,-341.3 466.97,-342.17 459,-342.9 451.07,-343.48 443.21,-343.91 435.44,-344.2 427.78,-344.34 420.27,-344.32 412.91,-344.16 405.75,-343.84 398.78,-343.37 392.04,-342.75 385.54,-341.99 379.29,-341.08 373.3,-340.02 367.6,-338.84 362.18,-337.52 357.06,-336.07 352.23,-334.5 347.72,-332.82 343.52,-331.02 339.63,-329.13 336.06,-327.14 332.8,-325.07 329.85,-322.92 327.22,-320.7 324.9,-318.41 322.88,-316.08 321.16,-313.7 319.74,-311.28 318.62,-308.84 317.78,-306.38 317.22,-303.91 316.94,-301.44 316.94,-298.97 317.2,-296.52 317.72,-294.09 318.5,-291.69 319.54,-289.33 320.82,-287.01 322.35,-284.74 324.13,-282.53 326.14,-280.38 328.4,-278.3 330.89,-276.28 333.61,-274.35 336.57,-272.49 339.75,-270.71 343.17,-269.02 346.82,-267.42 350.69,-265.92 354.79,-264.5 359.11,-263.18 363.65,-261.96 368.42,-260.83 373.39,-259.8 378.59,-258.87 383.99,-258.04 389.59,-257.3 395.39,-256.67 401.37,-256.13 407.54,-255.7 413.88,-255.35 420.38,-255.11 427.03,-254.96 433.82,-254.91 440.72,-254.95 447.73,-255.08 454.83,-255.31 462,-255.63 469.22,-256.04 476.46,-256.53 483.72,-257.12 490.96,-257.8 498.15,-258.56 505.29,-259.41 512.33,-260.35 519.26,-261.37 526.05,-262.47 532.66,-263.66 539.08,-264.93 545.28,-266.27 551.23,-267.7 556.91,-269.2 562.28,-270.78 567.33,-272.43 572.03,-274.15 576.36,-275.94 580.29,-277.79 583.82,-279.71 586.91,-281.69 589.55,-283.72 591.73,-285.81 593.44,-287.94 594.66,-290.12 595.39,-292.34 595.61,-294.59 595.34,-296.87 594.56,-299.17 593.27,-301.49 591.49,-303.82 589.21,-306.15 586.44,-308.48 583.2,-310.79 579.49,-313.1 575.34,-315.37 570.76,-317.61 565.77,-319.82 560.39,-321.97 554.64,-324.07 548.55,-326.1 542.14,-328.06 535.44,-329.94 528.48,-331.74 521.29,-333.44 513.89,-335.04"/>
<text text-anchor="middle" x="445.46" y="-293.19" font-family="sans-serif" font-size="16.00">DocumentContext</text>
</g>
<!-- PaymentContext&#45;&gt;DocumentContext -->
<g id="edge7" class="edge">
<title>PaymentContext&#45;&gt;DocumentContext</title>
<path fill="none" stroke="black" stroke-width="2" d="M445.46,-508.28C445.46,-461.42 445.46,-390.33 445.46,-344.02"/>
<text text-anchor="middle" x="520.96" y="-480.47" font-family="sans-serif" font-size="12.00"> &#160;&#160;&#160;&#160;&#160;&#160;&#160;&#160;&#160;&#160;&#160;&#160;&#160;&#160;&#160;&#160;&#160;&#160;&#160;&#160;&#160;&#160;&#160;&#160;&#160;&#160;&#160;&#160;&#160;&#160;&#160;&#160;&#160;&#160;&#160;&#160;&#160;&#160;&#160;</text>
<polygon fill="white" stroke="transparent" points="422.46,-334.02 422.46,-353.02 438.46,-353.02 438.46,-334.02 422.46,-334.02"/>
<polyline fill="none" stroke="black" points="438.46,-334.02 438.46,-353.02 "/>
<text text-anchor="start" x="425.46" y="-340.42" font-family="sans-serif" font-size="12.00">D</text>
<polygon fill="white" stroke="transparent" points="438.46,-334.02 438.46,-353.02 468.46,-353.02 468.46,-334.02 438.46,-334.02"/>
<polygon fill="none" stroke="black" points="438.46,-334.02 438.46,-353.02 468.46,-353.02 468.46,-334.02 438.46,-334.02"/>
<text text-anchor="start" x="441.46" y="-340.42" font-family="sans-serif" font-size="12.00">ACL</text>
<polygon fill="white" stroke="transparent" points="438.46,-499.28 438.46,-516.28 452.46,-516.28 452.46,-499.28 438.46,-499.28"/>
<text text-anchor="start" x="440.46" y="-504.68" font-family="sans-serif" font-size="12.00">U</text>
</g>
<!-- DocumentContext&#45;&gt;ChatbotAndVoiceContext -->
<g id="edge8" class="edge">
<title>DocumentContext&#45;&gt;ChatbotAndVoiceContext</title>
<path fill="none" stroke="black" stroke-width="2" d="M409.78,-255.34C404.18,-247.83 398.81,-239.82 394.46,-231.82 370.24,-187.32 353.07,-131.65 343.03,-93.32"/>
<text text-anchor="middle" x="436.46" y="-184.41" font-family="sans-serif" font-size="12.00">Shared Kernel</text>
</g>
<!-- PaymentGateways -->
<g id="node7" class="node">
<title>PaymentGateways</title>
<polygon fill="none" stroke="black" stroke-width="2" points="329.44,-726.87 324.53,-724.46 319.96,-722.01 315.77,-719.51 311.97,-716.98 308.57,-714.43 305.59,-711.87 303.05,-709.31 300.95,-706.75 299.32,-704.21 298.15,-701.7 297.45,-699.21 297.23,-696.77 297.49,-694.38 298.23,-692.04 299.44,-689.76 301.13,-687.54 303.28,-685.41 305.89,-683.34 308.95,-681.36 312.45,-679.47 316.37,-677.66 320.69,-675.94 325.4,-674.32 330.48,-672.8 335.91,-671.37 341.67,-670.04 347.73,-668.81 354.07,-667.68 360.66,-666.65 367.48,-665.71 374.51,-664.88 381.71,-664.14 389.06,-663.5 396.53,-662.96 404.09,-662.51 411.72,-662.15 419.39,-661.88 427.08,-661.7 434.75,-661.62 442.39,-661.61 449.97,-661.7 457.46,-661.87 464.85,-662.12 472.11,-662.46 479.23,-662.88 486.18,-663.38 492.94,-663.96 499.51,-664.62 505.87,-665.36 511.99,-666.18 517.88,-667.07 523.52,-668.05 528.9,-669.1 534.01,-670.23 538.84,-671.43 543.39,-672.71 547.65,-674.07 551.62,-675.51 555.3,-677.01 558.68,-678.6 561.76,-680.25 564.54,-681.98 567.02,-683.77 569.2,-685.63 571.08,-687.56 572.66,-689.55 573.95,-691.6 574.94,-693.7 575.64,-695.86 576.05,-698.06 576.17,-700.3 576,-702.59 575.54,-704.9 574.81,-707.24 573.79,-709.6 572.49,-711.97 570.92,-714.35 569.07,-716.73 566.94,-719.09 564.55,-721.44 561.89,-723.76 558.96,-726.05 555.76,-728.29 552.3,-730.48 548.59,-732.61 544.61,-734.67 540.39,-736.66 535.91,-738.55 531.19,-740.35 526.24,-742.05 521.05,-743.64 515.63,-745.11 509.99,-746.45 504.15,-747.66 498.1,-748.74 491.86,-749.67 485.45,-750.45 478.86,-751.08 472.13,-751.55 465.25,-751.86 458.26,-752.01 451.15,-752 443.96,-751.83 436.7,-751.49 429.39,-750.99 422.05,-750.33 414.7,-749.52 407.37,-748.54 400.08,-747.42 392.85,-746.15 385.7,-744.74 378.67,-743.2 371.78,-741.52 365.05,-739.73 358.5,-737.82 352.17,-735.8 346.07,-733.69 340.24,-731.49 334.68,-729.22 329.44,-726.87"/>
<text text-anchor="middle" x="445.46" y="-699.51" font-family="sans-serif" font-size="16.00">PaymentGateways</text>
</g>
<!-- PaymentGateways&#45;&gt;PaymentContext -->
<g id="edge9" class="edge">
<title>PaymentGateways&#45;&gt;PaymentContext</title>
<path fill="none" stroke="black" stroke-width="2" d="M445.46,-661.31C445.46,-641.63 445.46,-618.12 445.46,-598.49"/>
<text text-anchor="middle" x="520.96" y="-627.1" font-family="sans-serif" font-size="12.00"> &#160;&#160;&#160;&#160;&#160;&#160;&#160;&#160;&#160;&#160;&#160;&#160;&#160;&#160;&#160;&#160;&#160;&#160;&#160;&#160;&#160;&#160;&#160;&#160;&#160;&#160;&#160;&#160;&#160;&#160;&#160;&#160;&#160;&#160;&#160;&#160;&#160;&#160;&#160;</text>
<polygon fill="white" stroke="transparent" points="422.46,-588.49 422.46,-607.49 438.46,-607.49 438.46,-588.49 422.46,-588.49"/>
<polyline fill="none" stroke="black" points="438.46,-588.49 438.46,-607.49 "/>
<text text-anchor="start" x="425.46" y="-594.89" font-family="sans-serif" font-size="12.00">D</text>
<polygon fill="white" stroke="transparent" points="438.46,-588.49 438.46,-607.49 468.46,-607.49 468.46,-588.49 438.46,-588.49"/>
<polygon fill="none" stroke="black" points="438.46,-588.49 438.46,-607.49 468.46,-607.49 468.46,-588.49 438.46,-588.49"/>
<text text-anchor="start" x="441.46" y="-594.89" font-family="sans-serif" font-size="12.00">ACL</text>
<polygon fill="white" stroke="transparent" points="438.46,-652.31 438.46,-669.31 452.46,-669.31 452.46,-652.31 438.46,-652.31"/>
<text text-anchor="start" x="440.46" y="-657.71" font-family="sans-serif" font-size="12.00">U</text>
</g>
<!-- PersonaContext -->
<g id="node8" class="node">
<title>PersonaContext</title>
<polygon fill="none" stroke="black" stroke-width="2" points="584.76,-229.42 577.14,-228.64 569.67,-227.75 562.37,-226.76 555.27,-225.66 548.4,-224.46 541.8,-223.16 535.48,-221.77 529.47,-220.29 523.8,-218.73 518.48,-217.08 513.53,-215.37 508.97,-213.58 504.82,-211.73 501.09,-209.83 497.78,-207.86 494.91,-205.85 492.48,-203.8 490.5,-201.71 488.96,-199.58 487.86,-197.43 487.21,-195.26 486.99,-193.07 487.2,-190.87 487.83,-188.66 488.87,-186.46 490.3,-184.26 492.11,-182.07 494.29,-179.9 496.82,-177.74 499.68,-175.62 502.84,-173.53 506.31,-171.47 510.04,-169.45 514.03,-167.48 518.25,-165.57 522.69,-163.7 527.31,-161.9 532.11,-160.16 537.06,-158.49 542.14,-156.9 547.34,-155.38 552.64,-153.94 558.02,-152.59 563.46,-151.32 568.95,-150.15 574.48,-149.07 580.03,-148.09 585.6,-147.21 591.16,-146.44 596.72,-145.77 602.25,-145.21 607.77,-144.77 613.24,-144.43 618.68,-144.21 624.08,-144.11 629.42,-144.12 634.71,-144.24 639.94,-144.49 645.11,-144.85 650.22,-145.33 655.26,-145.93 660.22,-146.64 665.12,-147.47 669.93,-148.41 674.66,-149.46 679.31,-150.62 683.86,-151.89 688.32,-153.26 692.67,-154.73 696.92,-156.29 701.06,-157.95 705.06,-159.7 708.94,-161.53 712.67,-163.44 716.26,-165.42 719.68,-167.47 722.92,-169.58 725.98,-171.75 728.83,-173.97 731.48,-176.23 733.9,-178.52 736.07,-180.85 738,-183.2 739.65,-185.57 741.02,-187.94 742.1,-190.32 742.87,-192.68 743.31,-195.04 743.42,-197.38 743.19,-199.69 742.6,-201.96 741.64,-204.19 740.31,-206.38 738.61,-208.51 736.52,-210.58 734.05,-212.58 731.19,-214.5 727.94,-216.35 724.31,-218.11 720.3,-219.78 715.91,-221.36 711.16,-222.84 706.06,-224.21 700.62,-225.47 694.85,-226.63 688.77,-227.67 682.41,-228.59 675.77,-229.39 668.89,-230.07 661.78,-230.63 654.48,-231.07 647.01,-231.38 639.4,-231.56 631.67,-231.62 623.87,-231.56 616.02,-231.37 608.15,-231.06 600.29,-230.63 592.49,-230.09 584.76,-229.42"/>
<text text-anchor="middle" x="619.46" y="-183.71" font-family="sans-serif" font-size="16.00">PersonaContext</text>
</g>
<!-- PersonaContext&#45;&gt;ChatbotAndVoiceContext -->
<g id="edge10" class="edge">
<title>PersonaContext&#45;&gt;ChatbotAndVoiceContext</title>
<path fill="none" stroke="black" stroke-width="2" d="M552.17,-154.06C512.99,-135.17 463.12,-111.12 420.81,-90.71"/>
<text text-anchor="middle" x="559.96" y="-115.61" font-family="sans-serif" font-size="12.00"> &#160;&#160;&#160;&#160;&#160;&#160;&#160;&#160;&#160;&#160;&#160;&#160;&#160;&#160;&#160;&#160;&#160;&#160;&#160;&#160;&#160;&#160;&#160;&#160;&#160;&#160;&#160;&#160;&#160;&#160;&#160;&#160;&#160;&#160;&#160;&#160;&#160;&#160;&#160;</text>
<polygon fill="white" stroke="transparent" points="397.81,-80.71 397.81,-99.71 413.81,-99.71 413.81,-80.71 397.81,-80.71"/>
<polyline fill="none" stroke="black" points="413.81,-80.71 413.81,-99.71 "/>
<text text-anchor="start" x="400.81" y="-87.11" font-family="sans-serif" font-size="12.00">D</text>
<polygon fill="white" stroke="transparent" points="413.81,-80.71 413.81,-99.71 443.81,-99.71 443.81,-80.71 413.81,-80.71"/>
<polygon fill="none" stroke="black" points="413.81,-80.71 413.81,-99.71 443.81,-99.71 443.81,-80.71 413.81,-80.71"/>
<text text-anchor="start" x="416.81" y="-87.11" font-family="sans-serif" font-size="12.00">ACL</text>
<polygon fill="white" stroke="transparent" points="517.17,-144.06 517.17,-163.06 533.17,-163.06 533.17,-144.06 517.17,-144.06"/>
<polyline fill="none" stroke="black" points="533.17,-144.06 533.17,-163.06 "/>
<text text-anchor="start" x="520.17" y="-150.46" font-family="sans-serif" font-size="12.00">U</text>
<polygon fill="white" stroke="transparent" points="533.17,-144.06 533.17,-163.06 588.17,-163.06 588.17,-144.06 533.17,-144.06"/>
<polygon fill="none" stroke="black" points="533.17,-144.06 533.17,-163.06 588.17,-163.06 588.17,-144.06 533.17,-144.06"/>
<text text-anchor="start" x="536.17" y="-150.46" font-family="sans-serif" font-size="12.00">OHS, PL</text>
</g>
<!-- SettingContext -->
<g id="node9" class="node">
<title>SettingContext</title>
<polygon fill="none" stroke="black" stroke-width="2" points="785.97,-744.11 778.94,-745.25 771.84,-746.26 764.68,-747.15 757.5,-747.92 750.32,-748.55 743.18,-749.05 736.1,-749.4 729.1,-749.62 722.21,-749.7 715.45,-749.63 708.85,-749.42 702.42,-749.06 696.19,-748.56 690.17,-747.92 684.39,-747.14 678.85,-746.22 673.57,-745.17 668.55,-743.99 663.82,-742.67 659.38,-741.24 655.23,-739.68 651.38,-738.02 647.83,-736.24 644.59,-734.37 641.66,-732.41 639.03,-730.35 636.71,-728.22 634.68,-726.02 632.96,-723.75 631.52,-721.43 630.38,-719.07 629.51,-716.66 628.92,-714.22 628.6,-711.77 628.54,-709.3 628.73,-706.82 629.17,-704.35 629.84,-701.88 630.75,-699.44 631.88,-697.02 633.22,-694.64 634.78,-692.3 636.53,-690.01 638.49,-687.77 640.64,-685.59 642.97,-683.48 645.49,-681.44 648.19,-679.48 651.07,-677.59 654.11,-675.8 657.33,-674.09 660.71,-672.48 664.26,-670.96 667.97,-669.54 671.84,-668.22 675.87,-667 680.05,-665.89 684.39,-664.89 688.89,-663.99 693.53,-663.19 698.31,-662.51 703.24,-661.93 708.31,-661.45 713.5,-661.09 718.82,-660.83 724.26,-660.67 729.82,-660.62 735.47,-660.67 741.21,-660.83 747.04,-661.08 752.93,-661.44 758.88,-661.89 764.87,-662.43 770.89,-663.07 776.91,-663.81 782.93,-664.63 788.92,-665.54 794.87,-666.54 800.74,-667.62 806.53,-668.79 812.22,-670.04 817.77,-671.36 823.17,-672.76 828.39,-674.24 833.42,-675.78 838.22,-677.4 842.79,-679.08 847.09,-680.83 851.11,-682.63 854.82,-684.5 858.2,-686.41 861.25,-688.38 863.93,-690.4 866.24,-692.46 868.15,-694.56 869.66,-696.69 870.76,-698.86 871.43,-701.05 871.67,-703.27 871.48,-705.5 870.84,-707.74 869.76,-709.98 868.24,-712.23 866.28,-714.46 863.9,-716.69 861.08,-718.9 857.86,-721.08 854.23,-723.23 850.21,-725.34 845.82,-727.41 841.07,-729.42 835.98,-731.38 830.58,-733.27 824.89,-735.08 818.92,-736.82 812.72,-738.48 806.29,-740.04 799.67,-741.5 792.89,-742.86 785.97,-744.11"/>
<text text-anchor="middle" x="741.46" y="-699.51" font-family="sans-serif" font-size="16.00">SettingContext</text>
</g>
</g>
</svg>
