<svg width="2000px" height="1246px"
 viewBox="0.00 0.00 1206.77 752.25" xmlns="http://www.w3.org/2000/svg" xmlns:xlink="http://www.w3.org/1999/xlink">
<g id="graph0" class="graph" transform="scale(1.0 1.0) rotate(0) translate(4 748.25)">
<title>ContextMapGraph</title>
<polygon fill="white" stroke="transparent" points="-4,4 -4,-748.25 1202.77,-748.25 1202.77,4 -4,4"/>
<!-- AuthContext -->
<g id="node1" class="node">
<title>AuthContext</title>
<polygon fill="none" stroke="black" stroke-width="2" points="205.8,-682.35 207.91,-685.06 209.73,-687.8 211.26,-690.54 212.48,-693.28 213.4,-696.01 214.01,-698.71 214.3,-701.38 214.27,-704.01 213.92,-706.58 213.24,-709.1 212.24,-711.54 210.92,-713.9 209.28,-716.18 207.32,-718.37 205.06,-720.45 202.49,-722.44 199.63,-724.31 196.48,-726.08 193.05,-727.73 189.37,-729.26 185.43,-730.67 181.25,-731.96 176.84,-733.13 172.23,-734.18 167.42,-735.1 162.43,-735.9 157.29,-736.58 152,-737.15 146.58,-737.59 141.06,-737.93 135.46,-738.15 129.78,-738.26 124.06,-738.27 118.31,-738.18 112.54,-737.99 106.78,-737.7 101.05,-737.33 95.37,-736.86 89.74,-736.31 84.19,-735.68 78.75,-734.98 73.41,-734.2 68.2,-733.34 63.13,-732.42 58.22,-731.43 53.48,-730.38 48.91,-729.26 44.55,-728.09 40.38,-726.86 36.43,-725.56 32.7,-724.22 29.19,-722.82 25.93,-721.37 22.9,-719.86 20.13,-718.31 17.6,-716.7 15.33,-715.04 13.32,-713.34 11.57,-711.59 10.07,-709.79 8.84,-707.95 7.87,-706.06 7.16,-704.13 6.7,-702.17 6.51,-700.16 6.56,-698.12 6.87,-696.05 7.43,-693.95 8.23,-691.82 9.27,-689.67 10.55,-687.51 12.06,-685.33 13.79,-683.14 15.75,-680.96 17.92,-678.78 20.3,-676.61 22.88,-674.45 25.67,-672.33 28.64,-670.23 31.81,-668.17 35.15,-666.16 38.67,-664.21 42.35,-662.32 46.19,-660.5 50.18,-658.76 54.31,-657.11 58.59,-655.56 62.98,-654.1 67.5,-652.76 72.13,-651.54 76.86,-650.45 81.69,-649.48 86.6,-648.66 91.57,-647.98 96.62,-647.44 101.71,-647.07 106.84,-646.85 112,-646.78 117.18,-646.89 122.36,-647.15 127.54,-647.58 132.69,-648.18 137.8,-648.94 142.87,-649.86 147.88,-650.94 152.8,-652.18 157.64,-653.57 162.37,-655.11 166.99,-656.79 171.47,-658.61 175.8,-660.55 179.96,-662.61 183.95,-664.79 187.75,-667.07 191.34,-669.44 194.72,-671.89 197.87,-674.42 200.77,-677.02 203.42,-679.66 205.8,-682.35"/>
<text text-anchor="middle" x="107.27" y="-691.6" font-family="sans-serif" font-size="16.00">AuthContext</text>
</g>
<!-- ConversationContext -->
<g id="node2" class="node">
<title>ConversationContext</title>
<polygon fill="none" stroke="black" stroke-width="2" points="473.41,-458.08 463.57,-458.39 453.75,-458.58 444,-458.64 434.34,-458.58 424.83,-458.39 415.49,-458.08 406.36,-457.65 397.48,-457.09 388.87,-456.41 380.58,-455.61 372.62,-454.68 365.02,-453.64 357.81,-452.49 351.01,-451.23 344.63,-449.85 338.69,-448.38 333.21,-446.8 328.2,-445.13 323.66,-443.37 319.6,-441.52 316.02,-439.59 312.93,-437.59 310.32,-435.53 308.19,-433.4 306.53,-431.21 305.34,-428.98 304.6,-426.7 304.3,-424.4 304.44,-422.06 305,-419.7 305.96,-417.33 307.3,-414.96 309.02,-412.58 311.08,-410.22 313.49,-407.87 316.21,-405.54 319.23,-403.24 322.54,-400.98 326.11,-398.77 329.93,-396.6 333.99,-394.49 338.26,-392.44 342.74,-390.46 347.41,-388.55 352.25,-386.72 357.26,-384.97 362.43,-383.31 367.74,-381.75 373.19,-380.28 378.76,-378.91 384.45,-377.64 390.26,-376.48 396.18,-375.43 402.19,-374.49 408.31,-373.66 414.52,-372.95 420.81,-372.35 427.2,-371.87 433.66,-371.51 440.2,-371.26 446.81,-371.13 453.5,-371.12 460.24,-371.23 467.04,-371.45 473.89,-371.78 480.78,-372.23 487.7,-372.79 494.64,-373.46 501.6,-374.23 508.55,-375.11 515.5,-376.09 522.41,-377.17 529.27,-378.34 536.08,-379.6 542.8,-380.96 549.42,-382.39 555.92,-383.91 562.28,-385.51 568.46,-387.18 574.46,-388.92 580.24,-390.72 585.79,-392.58 591.06,-394.5 596.05,-396.47 600.72,-398.49 605.05,-400.54 609.01,-402.64 612.58,-404.76 615.74,-406.91 618.46,-409.09 620.73,-411.27 622.52,-413.47 623.82,-415.68 624.6,-417.88 624.87,-420.08 624.59,-422.27 623.78,-424.45 622.41,-426.6 620.48,-428.72 618,-430.81 614.97,-432.87 611.38,-434.88 607.24,-436.84 602.58,-438.75 597.39,-440.6 591.69,-442.39 585.51,-444.1 578.85,-445.74 571.76,-447.31 564.25,-448.79 556.35,-450.18 548.09,-451.47 539.51,-452.68 530.64,-453.78 521.51,-454.77 512.17,-455.66 502.65,-456.44 492.99,-457.1 483.23,-457.65 473.41,-458.08"/>
<text text-anchor="middle" x="459.27" y="-410.73" font-family="sans-serif" font-size="16.00">ConversationContext</text>
</g>
<!-- AuthContext&#45;&gt;ConversationContext -->
<g id="edge1" class="edge">
<title>AuthContext&#45;&gt;ConversationContext</title>
<path fill="none" stroke="black" stroke-width="2" d="M89.89,-647.94C77.77,-606.78 68.66,-547.28 99.27,-507.84 125.72,-473.75 222.8,-450.08 309.48,-435.25"/>
<text text-anchor="middle" x="174.77" y="-549.59" font-family="sans-serif" font-size="12.00"> &#160;&#160;&#160;&#160;&#160;&#160;&#160;&#160;&#160;&#160;&#160;&#160;&#160;&#160;&#160;&#160;&#160;&#160;&#160;&#160;&#160;&#160;&#160;&#160;&#160;&#160;&#160;&#160;&#160;&#160;&#160;&#160;&#160;&#160;&#160;&#160;&#160;&#160;&#160;</text>
<polygon fill="white" stroke="transparent" points="286.48,-425.25 286.48,-444.25 302.48,-444.25 302.48,-425.25 286.48,-425.25"/>
<polyline fill="none" stroke="black" points="302.48,-425.25 302.48,-444.25 "/>
<text text-anchor="start" x="289.48" y="-431.65" font-family="sans-serif" font-size="12.00">D</text>
<polygon fill="white" stroke="transparent" points="302.48,-425.25 302.48,-444.25 332.48,-444.25 332.48,-425.25 302.48,-425.25"/>
<polygon fill="none" stroke="black" points="302.48,-425.25 302.48,-444.25 332.48,-444.25 332.48,-425.25 302.48,-425.25"/>
<text text-anchor="start" x="305.48" y="-431.65" font-family="sans-serif" font-size="12.00">ACL</text>
<polygon fill="white" stroke="transparent" points="54.89,-637.94 54.89,-656.94 70.89,-656.94 70.89,-637.94 54.89,-637.94"/>
<polyline fill="none" stroke="black" points="70.89,-637.94 70.89,-656.94 "/>
<text text-anchor="start" x="57.89" y="-644.34" font-family="sans-serif" font-size="12.00">U</text>
<polygon fill="white" stroke="transparent" points="70.89,-637.94 70.89,-656.94 125.89,-656.94 125.89,-637.94 70.89,-637.94"/>
<polygon fill="none" stroke="black" points="70.89,-637.94 70.89,-656.94 125.89,-656.94 125.89,-637.94 70.89,-637.94"/>
<text text-anchor="start" x="73.89" y="-644.34" font-family="sans-serif" font-size="12.00">OHS, PL</text>
</g>
<!-- PaymentContext -->
<g id="node5" class="node">
<title>PaymentContext</title>
<polygon fill="none" stroke="black" stroke-width="2" points="378.68,-596.19 370.49,-595.9 362.39,-595.5 354.41,-594.97 346.58,-594.33 338.95,-593.58 331.53,-592.71 324.36,-591.74 317.47,-590.66 310.87,-589.47 304.6,-588.19 298.67,-586.81 293.11,-585.33 287.93,-583.77 283.15,-582.12 278.78,-580.39 274.83,-578.59 271.31,-576.72 268.23,-574.78 265.59,-572.78 263.39,-570.73 261.63,-568.63 260.32,-566.48 259.43,-564.3 258.97,-562.09 258.93,-559.85 259.3,-557.59 260.06,-555.32 261.2,-553.04 262.72,-550.76 264.58,-548.48 266.78,-546.22 269.3,-543.97 272.12,-541.75 275.22,-539.56 278.58,-537.4 282.19,-535.29 286.03,-533.22 290.08,-531.21 294.31,-529.25 298.72,-527.36 303.29,-525.53 308,-523.78 312.83,-522.11 317.77,-520.52 322.82,-519.02 327.94,-517.61 333.14,-516.3 338.4,-515.08 343.72,-513.97 349.07,-512.96 354.47,-512.06 359.89,-511.28 365.34,-510.6 370.8,-510.04 376.27,-509.6 381.75,-509.28 387.24,-509.07 392.72,-508.98 398.2,-509.02 403.67,-509.17 409.13,-509.44 414.58,-509.83 420.01,-510.34 425.41,-510.97 430.78,-511.71 436.12,-512.56 441.42,-513.52 446.68,-514.59 451.88,-515.77 457.01,-517.05 462.08,-518.42 467.06,-519.9 471.95,-521.46 476.73,-523.1 481.39,-524.83 485.92,-526.64 490.3,-528.52 494.52,-530.46 498.55,-532.47 502.39,-534.53 506.02,-536.65 509.42,-538.8 512.56,-541 515.44,-543.23 518.04,-545.48 520.33,-547.76 522.3,-550.05 523.93,-552.34 525.22,-554.64 526.13,-556.93 526.66,-559.21 526.8,-561.47 526.54,-563.71 525.86,-565.92 524.75,-568.09 523.22,-570.21 521.25,-572.29 518.85,-574.32 516.01,-576.28 512.74,-578.18 509.03,-580.01 504.91,-581.77 500.37,-583.44 495.42,-585.03 490.09,-586.53 484.38,-587.93 478.32,-589.24 471.92,-590.45 465.21,-591.55 458.21,-592.55 450.94,-593.44 443.44,-594.21 435.74,-594.87 427.86,-595.42 419.83,-595.84 411.69,-596.15 403.47,-596.34 395.21,-596.41 386.93,-596.36 378.68,-596.19"/>
<text text-anchor="middle" x="393.27" y="-548.89" font-family="sans-serif" font-size="16.00">PaymentContext</text>
</g>
<!-- AuthContext&#45;&gt;PaymentContext -->
<g id="edge2" class="edge">
<title>AuthContext&#45;&gt;PaymentContext</title>
<path fill="none" stroke="black" stroke-width="2" d="M166.12,-656.2C188.29,-642.55 214.01,-627.59 238.27,-615.55 258.25,-605.63 280.23,-596.08 301.21,-587.58"/>
<text text-anchor="middle" x="313.77" y="-618.95" font-family="sans-serif" font-size="12.00"> &#160;&#160;&#160;&#160;&#160;&#160;&#160;&#160;&#160;&#160;&#160;&#160;&#160;&#160;&#160;&#160;&#160;&#160;&#160;&#160;&#160;&#160;&#160;&#160;&#160;&#160;&#160;&#160;&#160;&#160;&#160;&#160;&#160;&#160;&#160;&#160;&#160;&#160;&#160;</text>
<polygon fill="white" stroke="transparent" points="278.21,-577.58 278.21,-596.58 294.21,-596.58 294.21,-577.58 278.21,-577.58"/>
<polyline fill="none" stroke="black" points="294.21,-577.58 294.21,-596.58 "/>
<text text-anchor="start" x="281.21" y="-583.98" font-family="sans-serif" font-size="12.00">D</text>
<polygon fill="white" stroke="transparent" points="294.21,-577.58 294.21,-596.58 324.21,-596.58 324.21,-577.58 294.21,-577.58"/>
<polygon fill="none" stroke="black" points="294.21,-577.58 294.21,-596.58 324.21,-596.58 324.21,-577.58 294.21,-577.58"/>
<text text-anchor="start" x="297.21" y="-583.98" font-family="sans-serif" font-size="12.00">ACL</text>
<polygon fill="white" stroke="transparent" points="131.12,-646.2 131.12,-665.2 147.12,-665.2 147.12,-646.2 131.12,-646.2"/>
<polyline fill="none" stroke="black" points="147.12,-646.2 147.12,-665.2 "/>
<text text-anchor="start" x="134.12" y="-652.6" font-family="sans-serif" font-size="12.00">U</text>
<polygon fill="white" stroke="transparent" points="147.12,-646.2 147.12,-665.2 202.12,-665.2 202.12,-646.2 147.12,-646.2"/>
<polygon fill="none" stroke="black" points="147.12,-646.2 147.12,-665.2 202.12,-665.2 202.12,-646.2 147.12,-646.2"/>
<text text-anchor="start" x="150.12" y="-652.6" font-family="sans-serif" font-size="12.00">OHS, PL</text>
</g>
<!-- ChatbotAndVoiceContext -->
<g id="node3" class="node">
<title>ChatbotAndVoiceContext</title>
<polygon fill="none" stroke="black" stroke-width="2" points="677.31,-87.53 666.48,-88.43 655.58,-89.21 644.64,-89.86 633.71,-90.38 622.84,-90.77 612.06,-91.03 601.41,-91.16 590.94,-91.14 580.68,-90.99 570.67,-90.7 560.94,-90.28 551.52,-89.71 542.43,-89.01 533.72,-88.18 525.39,-87.22 517.48,-86.12 510,-84.9 502.96,-83.56 496.39,-82.1 490.28,-80.53 484.66,-78.85 479.51,-77.07 474.86,-75.19 470.69,-73.23 467.01,-71.18 463.81,-69.06 461.1,-66.86 458.85,-64.61 457.07,-62.3 455.74,-59.95 454.85,-57.56 454.4,-55.14 454.36,-52.71 454.73,-50.25 455.49,-47.8 456.63,-45.35 458.13,-42.9 459.98,-40.48 462.17,-38.08 464.68,-35.72 467.49,-33.4 470.61,-31.13 474.01,-28.91 477.69,-26.75 481.63,-24.65 485.83,-22.63 490.27,-20.69 494.96,-18.83 499.87,-17.05 505.02,-15.37 510.38,-13.78 515.96,-12.29 521.75,-10.9 527.75,-9.61 533.96,-8.42 540.36,-7.35 546.96,-6.38 553.75,-5.52 560.74,-4.78 567.9,-4.14 575.25,-3.62 582.76,-3.2 590.45,-2.9 598.29,-2.71 606.29,-2.62 614.42,-2.65 622.68,-2.78 631.06,-3.01 639.54,-3.36 648.11,-3.8 656.74,-4.34 665.42,-4.99 674.13,-5.72 682.84,-6.56 691.54,-7.48 700.19,-8.5 708.78,-9.6 717.26,-10.79 725.62,-12.05 733.81,-13.4 741.82,-14.83 749.61,-16.32 757.15,-17.89 764.4,-19.53 771.33,-21.23 777.92,-22.99 784.12,-24.81 789.9,-26.68 795.25,-28.61 800.11,-30.58 804.48,-32.6 808.32,-34.65 811.61,-36.74 814.33,-38.87 816.45,-41.01 817.96,-43.18 818.84,-45.37 819.08,-47.57 818.68,-49.78 817.62,-51.98 815.9,-54.19 813.52,-56.38 810.49,-58.56 806.82,-60.72 802.5,-62.85 797.57,-64.95 792.02,-67.01 785.89,-69.03 779.19,-71 771.95,-72.9 764.21,-74.75 755.98,-76.52 747.31,-78.22 738.22,-79.84 728.77,-81.37 718.98,-82.81 708.89,-84.15 698.56,-85.39 688.02,-86.52 677.31,-87.53"/>
<text text-anchor="middle" x="625.27" y="-41.75" font-family="sans-serif" font-size="16.00">ChatbotAndVoiceContext</text>
</g>
<!-- ConversationContext&#45;&gt;ChatbotAndVoiceContext -->
<g id="edge3" class="edge">
<title>ConversationContext&#45;&gt;ChatbotAndVoiceContext</title>
<path fill="none" stroke="black" stroke-width="2" d="M568.98,-387.28C585.51,-378.7 600.57,-367.32 611.27,-352.23 640.22,-311.38 634.13,-164.96 628.9,-90.58"/>
<text text-anchor="middle" x="667.77" y="-185.3" font-family="sans-serif" font-size="12.00">Partnership</text>
</g>
<!-- LiveKitServer -->
<g id="node4" class="node">
<title>LiveKitServer</title>
<polygon fill="none" stroke="black" stroke-width="2" points="491.94,-231.14 485.16,-231.9 478.35,-232.53 471.53,-233.04 464.73,-233.42 457.98,-233.67 451.31,-233.79 444.74,-233.77 438.29,-233.62 431.99,-233.33 425.86,-232.91 419.92,-232.35 414.19,-231.66 408.69,-230.84 403.43,-229.89 398.43,-228.82 393.69,-227.62 389.24,-226.3 385.08,-224.86 381.22,-223.31 377.66,-221.66 374.41,-219.9 371.47,-218.05 368.84,-216.1 366.53,-214.08 364.52,-211.98 362.83,-209.81 361.43,-207.58 360.34,-205.29 359.54,-202.96 359.02,-200.58 358.78,-198.18 358.81,-195.75 359.1,-193.31 359.64,-190.86 360.42,-188.4 361.44,-185.96 362.67,-183.54 364.12,-181.13 365.78,-178.76 367.62,-176.43 369.66,-174.14 371.87,-171.9 374.25,-169.72 376.79,-167.61 379.48,-165.57 382.33,-163.6 385.31,-161.71 388.44,-159.91 391.69,-158.19 395.07,-156.57 398.58,-155.05 402.21,-153.63 405.95,-152.31 409.81,-151.1 413.79,-150 417.87,-149.01 422.06,-148.13 426.35,-147.36 430.74,-146.7 435.24,-146.16 439.83,-145.73 444.51,-145.41 449.29,-145.21 454.14,-145.12 459.07,-145.14 464.08,-145.28 469.15,-145.52 474.28,-145.87 479.46,-146.32 484.68,-146.88 489.92,-147.54 495.19,-148.3 500.46,-149.15 505.72,-150.1 510.96,-151.14 516.15,-152.27 521.3,-153.49 526.37,-154.79 531.36,-156.17 536.23,-157.63 540.98,-159.16 545.59,-160.77 550.03,-162.44 554.28,-164.17 558.34,-165.97 562.16,-167.82 565.75,-169.73 569.07,-171.68 572.12,-173.68 574.86,-175.72 577.3,-177.8 579.4,-179.91 581.16,-182.04 582.56,-184.21 583.59,-186.39 584.24,-188.58 584.5,-190.78 584.37,-192.99 583.84,-195.19 582.9,-197.39 581.56,-199.57 579.82,-201.74 577.67,-203.89 575.13,-206 572.2,-208.08 568.89,-210.12 565.22,-212.11 561.18,-214.05 556.8,-215.93 552.1,-217.74 547.1,-219.49 541.8,-221.16 536.24,-222.75 530.44,-224.25 524.42,-225.66 518.21,-226.97 511.83,-228.18 505.31,-229.28 498.67,-230.27 491.94,-231.14"/>
<text text-anchor="middle" x="465.27" y="-184.6" font-family="sans-serif" font-size="16.00">LiveKitServer</text>
</g>
<!-- ConversationContext&#45;&gt;LiveKitServer -->
<g id="edge4" class="edge">
<title>ConversationContext&#45;&gt;LiveKitServer</title>
<path fill="none" stroke="black" stroke-width="2" d="M458.73,-371.04C458.52,-339.04 458.64,-294.1 460.27,-254.7 460.55,-247.88 460.97,-240.67 461.46,-233.63"/>
<text text-anchor="middle" x="535.77" y="-300.36" font-family="sans-serif" font-size="12.00"> &#160;&#160;&#160;&#160;&#160;&#160;&#160;&#160;&#160;&#160;&#160;&#160;&#160;&#160;&#160;&#160;&#160;&#160;&#160;&#160;&#160;&#160;&#160;&#160;&#160;&#160;&#160;&#160;&#160;&#160;&#160;&#160;&#160;&#160;&#160;&#160;&#160;&#160;&#160;</text>
<polygon fill="white" stroke="transparent" points="442.46,-223.63 442.46,-242.63 458.46,-242.63 458.46,-223.63 442.46,-223.63"/>
<polyline fill="none" stroke="black" points="458.46,-223.63 458.46,-242.63 "/>
<text text-anchor="start" x="445.46" y="-230.03" font-family="sans-serif" font-size="12.00">D</text>
<polygon fill="white" stroke="transparent" points="458.46,-223.63 458.46,-242.63 480.46,-242.63 480.46,-223.63 458.46,-223.63"/>
<polygon fill="none" stroke="black" points="458.46,-223.63 458.46,-242.63 480.46,-242.63 480.46,-223.63 458.46,-223.63"/>
<text text-anchor="start" x="461.46" y="-230.03" font-family="sans-serif" font-size="12.00">CF</text>
<polygon fill="white" stroke="transparent" points="451.73,-362.04 451.73,-379.04 465.73,-379.04 465.73,-362.04 451.73,-362.04"/>
<text text-anchor="start" x="453.73" y="-367.44" font-family="sans-serif" font-size="12.00">U</text>
</g>
<!-- LiveKitServer&#45;&gt;ChatbotAndVoiceContext -->
<g id="edge5" class="edge">
<title>LiveKitServer&#45;&gt;ChatbotAndVoiceContext</title>
<path fill="none" stroke="black" stroke-width="2" d="M452.97,-144.87C451.79,-132.43 453.15,-119.42 460.27,-109.1 468.19,-97.63 478.5,-88.26 490.11,-80.61"/>
<text text-anchor="middle" x="535.77" y="-112.5" font-family="sans-serif" font-size="12.00"> &#160;&#160;&#160;&#160;&#160;&#160;&#160;&#160;&#160;&#160;&#160;&#160;&#160;&#160;&#160;&#160;&#160;&#160;&#160;&#160;&#160;&#160;&#160;&#160;&#160;&#160;&#160;&#160;&#160;&#160;&#160;&#160;&#160;&#160;&#160;&#160;&#160;&#160;&#160;</text>
<polygon fill="white" stroke="transparent" points="471.11,-70.61 471.11,-89.61 487.11,-89.61 487.11,-70.61 471.11,-70.61"/>
<polyline fill="none" stroke="black" points="487.11,-70.61 487.11,-89.61 "/>
<text text-anchor="start" x="474.11" y="-77.01" font-family="sans-serif" font-size="12.00">D</text>
<polygon fill="white" stroke="transparent" points="487.11,-70.61 487.11,-89.61 509.11,-89.61 509.11,-70.61 487.11,-70.61"/>
<polygon fill="none" stroke="black" points="487.11,-70.61 487.11,-89.61 509.11,-89.61 509.11,-70.61 487.11,-70.61"/>
<text text-anchor="start" x="490.11" y="-77.01" font-family="sans-serif" font-size="12.00">CF</text>
<polygon fill="white" stroke="transparent" points="445.97,-135.87 445.97,-152.87 459.97,-152.87 459.97,-135.87 445.97,-135.87"/>
<text text-anchor="start" x="447.97" y="-141.27" font-family="sans-serif" font-size="12.00">U</text>
</g>
<!-- PaymentContext&#45;&gt;ConversationContext -->
<g id="edge7" class="edge">
<title>PaymentContext&#45;&gt;ConversationContext</title>
<path fill="none" stroke="black" stroke-width="2" d="M413.61,-509.73C421.41,-493.63 430.33,-475.24 438.19,-459.01"/>
<text text-anchor="middle" x="503.77" y="-480.24" font-family="sans-serif" font-size="12.00"> &#160;&#160;&#160;&#160;&#160;&#160;&#160;&#160;&#160;&#160;&#160;&#160;&#160;&#160;&#160;&#160;&#160;&#160;&#160;&#160;&#160;&#160;&#160;&#160;&#160;&#160;&#160;&#160;&#160;&#160;&#160;&#160;&#160;&#160;&#160;&#160;&#160;&#160;&#160;</text>
<polygon fill="white" stroke="transparent" points="415.19,-449.01 415.19,-468.01 431.19,-468.01 431.19,-449.01 415.19,-449.01"/>
<polyline fill="none" stroke="black" points="431.19,-449.01 431.19,-468.01 "/>
<text text-anchor="start" x="418.19" y="-455.41" font-family="sans-serif" font-size="12.00">D</text>
<polygon fill="white" stroke="transparent" points="431.19,-449.01 431.19,-468.01 461.19,-468.01 461.19,-449.01 431.19,-449.01"/>
<polygon fill="none" stroke="black" points="431.19,-449.01 431.19,-468.01 461.19,-468.01 461.19,-449.01 431.19,-449.01"/>
<text text-anchor="start" x="434.19" y="-455.41" font-family="sans-serif" font-size="12.00">ACL</text>
<polygon fill="white" stroke="transparent" points="406.61,-500.73 406.61,-517.73 420.61,-517.73 420.61,-500.73 406.61,-500.73"/>
<text text-anchor="start" x="408.61" y="-506.13" font-family="sans-serif" font-size="12.00">U</text>
</g>
<!-- DocumentContext -->
<g id="node6" class="node">
<title>DocumentContext</title>
<polygon fill="none" stroke="black" stroke-width="2" points="383.12,-291.15 385.73,-293.88 387.97,-296.63 389.83,-299.38 391.29,-302.13 392.35,-304.86 393,-307.56 393.24,-310.23 393.05,-312.86 392.45,-315.42 391.43,-317.93 389.99,-320.36 388.12,-322.71 385.85,-324.97 383.17,-327.14 380.09,-329.21 376.62,-331.18 372.76,-333.03 368.54,-334.77 363.97,-336.39 359.05,-337.9 353.81,-339.28 348.26,-340.53 342.42,-341.67 336.32,-342.68 329.96,-343.57 323.39,-344.33 316.6,-344.97 309.64,-345.5 302.52,-345.9 295.27,-346.19 287.91,-346.37 280.47,-346.45 272.96,-346.41 265.43,-346.28 257.88,-346.05 250.35,-345.72 242.86,-345.3 235.43,-344.79 228.09,-344.2 220.85,-343.53 213.75,-342.79 206.79,-341.97 200.01,-341.08 193.42,-340.12 187.03,-339.09 180.87,-338.01 174.96,-336.86 169.29,-335.65 163.9,-334.39 158.79,-333.07 153.97,-331.7 149.46,-330.28 145.25,-328.8 141.37,-327.28 137.82,-325.7 134.59,-324.08 131.71,-322.41 129.16,-320.69 126.96,-318.93 125.1,-317.12 123.58,-315.27 122.41,-313.38 121.58,-311.45 121.09,-309.48 120.94,-307.48 121.13,-305.44 121.64,-303.37 122.49,-301.27 123.65,-299.15 125.13,-297.02 126.92,-294.86 129.02,-292.7 131.41,-290.53 134.09,-288.36 137.05,-286.2 140.29,-284.05 143.79,-281.91 147.56,-279.81 151.57,-277.74 155.83,-275.71 160.32,-273.72 165.03,-271.8 169.96,-269.94 175.09,-268.15 180.42,-266.44 185.93,-264.82 191.61,-263.3 197.45,-261.88 203.45,-260.58 209.58,-259.39 215.84,-258.33 222.22,-257.4 228.7,-256.62 235.26,-255.97 241.9,-255.48 248.59,-255.14 255.33,-254.95 262.1,-254.93 268.88,-255.07 275.66,-255.38 282.41,-255.84 289.13,-256.48 295.8,-257.27 302.39,-258.23 308.89,-259.35 315.29,-260.63 321.55,-262.05 327.67,-263.62 333.63,-265.33 339.4,-267.18 344.97,-269.15 350.32,-271.25 355.43,-273.45 360.29,-275.75 364.87,-278.15 369.16,-280.63 373.15,-283.18 376.81,-285.79 380.14,-288.45 383.12,-291.15"/>
<text text-anchor="middle" x="253.27" y="-299.66" font-family="sans-serif" font-size="16.00">DocumentContext</text>
</g>
<!-- PaymentContext&#45;&gt;DocumentContext -->
<g id="edge6" class="edge">
<title>PaymentContext&#45;&gt;DocumentContext</title>
<path fill="none" stroke="black" stroke-width="2" d="M308.37,-523.44C293.54,-514.86 279.82,-503.86 270.27,-489.84 241.33,-447.37 241.78,-386.15 246.28,-345.85"/>
<text text-anchor="middle" x="345.77" y="-480.24" font-family="sans-serif" font-size="12.00"> &#160;&#160;&#160;&#160;&#160;&#160;&#160;&#160;&#160;&#160;&#160;&#160;&#160;&#160;&#160;&#160;&#160;&#160;&#160;&#160;&#160;&#160;&#160;&#160;&#160;&#160;&#160;&#160;&#160;&#160;&#160;&#160;&#160;&#160;&#160;&#160;&#160;&#160;&#160;</text>
<polygon fill="white" stroke="transparent" points="223.28,-335.85 223.28,-354.85 239.28,-354.85 239.28,-335.85 223.28,-335.85"/>
<polyline fill="none" stroke="black" points="239.28,-335.85 239.28,-354.85 "/>
<text text-anchor="start" x="226.28" y="-342.25" font-family="sans-serif" font-size="12.00">D</text>
<polygon fill="white" stroke="transparent" points="239.28,-335.85 239.28,-354.85 269.28,-354.85 269.28,-335.85 239.28,-335.85"/>
<polygon fill="none" stroke="black" points="239.28,-335.85 239.28,-354.85 269.28,-354.85 269.28,-335.85 239.28,-335.85"/>
<text text-anchor="start" x="242.28" y="-342.25" font-family="sans-serif" font-size="12.00">ACL</text>
<polygon fill="white" stroke="transparent" points="301.37,-514.44 301.37,-531.44 315.37,-531.44 315.37,-514.44 301.37,-514.44"/>
<text text-anchor="start" x="303.37" y="-519.84" font-family="sans-serif" font-size="12.00">U</text>
</g>
<!-- DocumentContext&#45;&gt;ChatbotAndVoiceContext -->
<g id="edge8" class="edge">
<title>DocumentContext&#45;&gt;ChatbotAndVoiceContext</title>
<path fill="none" stroke="black" stroke-width="2" d="M239.09,-255.54C231.47,-220.14 228.14,-172.34 253.27,-140.1 279.78,-106.1 374.66,-82.56 461.96,-67.6"/>
<text text-anchor="middle" x="295.27" y="-185.3" font-family="sans-serif" font-size="12.00">Shared Kernel</text>
</g>
<!-- LawContext -->
<g id="node7" class="node">
<title>LawContext</title>
<polygon fill="none" stroke="black" stroke-width="2" points="714.91,-194.76 713.89,-191.94 713.13,-189.12 712.66,-186.31 712.47,-183.52 712.56,-180.76 712.94,-178.05 713.61,-175.4 714.56,-172.81 715.8,-170.29 717.32,-167.85 719.12,-165.51 721.19,-163.26 723.54,-161.12 726.15,-159.09 729.02,-157.18 732.13,-155.39 735.49,-153.73 739.07,-152.19 742.87,-150.79 746.89,-149.52 751.09,-148.39 755.48,-147.39 760.04,-146.53 764.75,-145.81 769.6,-145.21 774.58,-144.75 779.66,-144.42 784.84,-144.22 790.09,-144.13 795.41,-144.17 800.76,-144.32 806.15,-144.59 811.54,-144.96 816.92,-145.43 822.28,-146 827.6,-146.66 832.86,-147.42 838.06,-148.25 843.16,-149.16 848.16,-150.15 853.04,-151.21 857.79,-152.34 862.39,-153.53 866.84,-154.77 871.12,-156.08 875.21,-157.43 879.11,-158.83 882.81,-160.28 886.3,-161.78 889.57,-163.31 892.61,-164.89 895.41,-166.5 897.97,-168.15 900.29,-169.84 902.36,-171.56 904.17,-173.31 905.73,-175.1 907.02,-176.92 908.06,-178.76 908.83,-180.64 909.34,-182.54 909.59,-184.46 909.59,-186.41 909.32,-188.39 908.8,-190.38 908.03,-192.39 907.01,-194.42 905.75,-196.46 904.24,-198.5 902.51,-200.55 900.55,-202.61 898.36,-204.66 895.96,-206.7 893.35,-208.73 890.54,-210.74 887.53,-212.73 884.34,-214.68 880.97,-216.6 877.43,-218.47 873.73,-220.29 869.88,-222.05 865.88,-223.75 861.75,-225.37 857.49,-226.91 853.12,-228.36 848.65,-229.72 844.08,-230.97 839.43,-232.11 834.7,-233.14 829.92,-234.04 825.08,-234.81 820.2,-235.44 815.29,-235.93 810.36,-236.27 805.43,-236.46 800.5,-236.5 795.59,-236.37 790.71,-236.09 785.87,-235.65 781.08,-235.04 776.37,-234.27 771.73,-233.34 767.18,-232.25 762.73,-231.01 758.4,-229.61 754.19,-228.06 750.13,-226.36 746.21,-224.53 742.46,-222.57 738.89,-220.48 735.49,-218.27 732.3,-215.96 729.31,-213.55 726.53,-211.04 723.98,-208.46 721.67,-205.81 719.6,-203.11 717.78,-200.36 716.21,-197.57 714.91,-194.76"/>
<text text-anchor="middle" x="812.27" y="-184.6" font-family="sans-serif" font-size="16.00">LawContext</text>
</g>
<!-- LawContext&#45;&gt;ChatbotAndVoiceContext -->
<g id="edge9" class="edge">
<title>LawContext&#45;&gt;ChatbotAndVoiceContext</title>
<path fill="none" stroke="black" stroke-width="2" d="M758.18,-146.66C733.48,-128.06 704.28,-106.07 679.56,-87.44"/>
<text text-anchor="middle" x="799.77" y="-112.5" font-family="sans-serif" font-size="12.00"> &#160;&#160;&#160;&#160;&#160;&#160;&#160;&#160;&#160;&#160;&#160;&#160;&#160;&#160;&#160;&#160;&#160;&#160;&#160;&#160;&#160;&#160;&#160;&#160;&#160;&#160;&#160;&#160;&#160;&#160;&#160;&#160;&#160;&#160;&#160;&#160;&#160;&#160;&#160;</text>
<polygon fill="white" stroke="transparent" points="656.56,-77.44 656.56,-96.44 672.56,-96.44 672.56,-77.44 656.56,-77.44"/>
<polyline fill="none" stroke="black" points="672.56,-77.44 672.56,-96.44 "/>
<text text-anchor="start" x="659.56" y="-83.84" font-family="sans-serif" font-size="12.00">D</text>
<polygon fill="white" stroke="transparent" points="672.56,-77.44 672.56,-96.44 702.56,-96.44 702.56,-77.44 672.56,-77.44"/>
<polygon fill="none" stroke="black" points="672.56,-77.44 672.56,-96.44 702.56,-96.44 702.56,-77.44 672.56,-77.44"/>
<text text-anchor="start" x="675.56" y="-83.84" font-family="sans-serif" font-size="12.00">ACL</text>
<polygon fill="white" stroke="transparent" points="751.18,-137.66 751.18,-154.66 765.18,-154.66 765.18,-137.66 751.18,-137.66"/>
<text text-anchor="start" x="753.18" y="-143.06" font-family="sans-serif" font-size="12.00">U</text>
</g>
<!-- PaymentGateways -->
<g id="node8" class="node">
<title>PaymentGateways</title>
<polygon fill="none" stroke="black" stroke-width="2" points="275.12,-673.08 279.58,-670.59 284.33,-668.19 289.37,-665.87 294.67,-663.65 300.21,-661.53 305.98,-659.53 311.95,-657.65 318.1,-655.9 324.42,-654.29 330.88,-652.82 337.46,-651.5 344.15,-650.33 350.92,-649.32 357.76,-648.48 364.64,-647.79 371.56,-647.27 378.48,-646.92 385.4,-646.73 392.3,-646.7 399.15,-646.84 405.95,-647.14 412.68,-647.59 419.32,-648.2 425.87,-648.95 432.3,-649.85 438.61,-650.89 444.78,-652.05 450.8,-653.34 456.66,-654.75 462.35,-656.27 467.86,-657.89 473.18,-659.6 478.29,-661.4 483.2,-663.27 487.88,-665.22 492.34,-667.23 496.57,-669.28 500.55,-671.39 504.28,-673.53 507.74,-675.7 510.95,-677.89 513.87,-680.1 516.52,-682.31 518.88,-684.53 520.95,-686.74 522.71,-688.94 524.17,-691.12 525.32,-693.29 526.15,-695.43 526.66,-697.54 526.85,-699.61 526.7,-701.65 526.22,-703.66 525.4,-705.62 524.24,-707.54 522.75,-709.41 520.91,-711.23 518.72,-713.01 516.2,-714.73 513.34,-716.41 510.14,-718.03 506.6,-719.6 502.74,-721.12 498.56,-722.58 494.06,-723.98 489.25,-725.33 484.14,-726.62 478.74,-727.85 473.07,-729.02 467.13,-730.14 460.95,-731.18 454.53,-732.17 447.89,-733.08 441.05,-733.93 434.03,-734.71 426.85,-735.41 419.53,-736.03 412.09,-736.58 404.55,-737.05 396.94,-737.43 389.28,-737.72 381.59,-737.92 373.91,-738.02 366.25,-738.03 358.64,-737.94 351.11,-737.74 343.68,-737.43 336.38,-737.02 329.23,-736.49 322.26,-735.85 315.49,-735.09 308.95,-734.22 302.66,-733.22 296.64,-732.11 290.91,-730.88 285.5,-729.52 280.41,-728.05 275.68,-726.47 271.31,-724.77 267.31,-722.95 263.71,-721.03 260.52,-719.01 257.74,-716.89 255.38,-714.67 253.44,-712.37 251.94,-709.99 250.88,-707.53 250.26,-705.01 250.07,-702.43 250.32,-699.8 250.99,-697.13 252.1,-694.44 253.62,-691.72 255.55,-689 257.88,-686.28 260.61,-683.57 263.71,-680.88 267.17,-678.23 270.98,-675.63 275.12,-673.08"/>
<text text-anchor="middle" x="393.27" y="-691.6" font-family="sans-serif" font-size="16.00">PaymentGateways</text>
</g>
<!-- PaymentGateways&#45;&gt;PaymentContext -->
<g id="edge10" class="edge">
<title>PaymentGateways&#45;&gt;PaymentContext</title>
<path fill="none" stroke="black" stroke-width="2" d="M393.27,-646.37C393.27,-630.29 393.27,-612.47 393.27,-596.79"/>
<text text-anchor="middle" x="468.77" y="-618.95" font-family="sans-serif" font-size="12.00"> &#160;&#160;&#160;&#160;&#160;&#160;&#160;&#160;&#160;&#160;&#160;&#160;&#160;&#160;&#160;&#160;&#160;&#160;&#160;&#160;&#160;&#160;&#160;&#160;&#160;&#160;&#160;&#160;&#160;&#160;&#160;&#160;&#160;&#160;&#160;&#160;&#160;&#160;&#160;</text>
<polygon fill="white" stroke="transparent" points="370.27,-586.79 370.27,-605.79 386.27,-605.79 386.27,-586.79 370.27,-586.79"/>
<polyline fill="none" stroke="black" points="386.27,-586.79 386.27,-605.79 "/>
<text text-anchor="start" x="373.27" y="-593.19" font-family="sans-serif" font-size="12.00">D</text>
<polygon fill="white" stroke="transparent" points="386.27,-586.79 386.27,-605.79 416.27,-605.79 416.27,-586.79 386.27,-586.79"/>
<polygon fill="none" stroke="black" points="386.27,-586.79 386.27,-605.79 416.27,-605.79 416.27,-586.79 386.27,-586.79"/>
<text text-anchor="start" x="389.27" y="-593.19" font-family="sans-serif" font-size="12.00">ACL</text>
<polygon fill="white" stroke="transparent" points="386.27,-637.37 386.27,-654.37 400.27,-654.37 400.27,-637.37 386.27,-637.37"/>
<text text-anchor="start" x="388.27" y="-642.77" font-family="sans-serif" font-size="12.00">U</text>
</g>
<!-- PersonaContext -->
<g id="node9" class="node">
<title>PersonaContext</title>
<polygon fill="none" stroke="black" stroke-width="2" points="1008.05,-227.27 1000.98,-225.98 994.11,-224.58 987.47,-223.1 981.09,-221.52 974.98,-219.87 969.18,-218.13 963.72,-216.33 958.6,-214.46 953.85,-212.52 949.5,-210.54 945.55,-208.51 942.02,-206.44 938.92,-204.33 936.26,-202.19 934.05,-200.03 932.3,-197.85 931,-195.66 930.16,-193.46 929.77,-191.26 929.83,-189.07 930.34,-186.88 931.28,-184.71 932.65,-182.56 934.44,-180.43 936.62,-178.33 939.19,-176.27 942.13,-174.24 945.41,-172.25 949.03,-170.31 952.96,-168.41 957.18,-166.57 961.66,-164.78 966.4,-163.06 971.35,-161.39 976.51,-159.79 981.85,-158.27 987.34,-156.81 992.97,-155.43 998.71,-154.13 1004.55,-152.91 1010.45,-151.77 1016.41,-150.72 1022.41,-149.76 1028.42,-148.89 1034.43,-148.12 1040.43,-147.44 1046.4,-146.86 1052.33,-146.38 1058.2,-146 1064,-145.73 1069.74,-145.56 1075.38,-145.5 1080.94,-145.55 1086.39,-145.71 1091.75,-145.97 1096.99,-146.35 1102.11,-146.85 1107.12,-147.45 1112,-148.16 1116.76,-148.99 1121.39,-149.93 1125.89,-150.97 1130.26,-152.12 1134.49,-153.38 1138.57,-154.74 1142.52,-156.21 1146.32,-157.77 1149.98,-159.43 1153.48,-161.18 1156.82,-163.01 1160,-164.93 1163.01,-166.93 1165.85,-169 1168.5,-171.13 1170.97,-173.33 1173.25,-175.59 1175.32,-177.89 1177.17,-180.24 1178.8,-182.62 1180.21,-185.03 1181.37,-187.46 1182.27,-189.9 1182.92,-192.34 1183.29,-194.79 1183.38,-197.22 1183.19,-199.63 1182.69,-202.02 1181.88,-204.37 1180.75,-206.68 1179.3,-208.94 1177.52,-211.13 1175.4,-213.27 1172.94,-215.33 1170.14,-217.31 1167,-219.2 1163.51,-221 1159.69,-222.7 1155.52,-224.29 1151.03,-225.78 1146.2,-227.14 1141.07,-228.39 1135.63,-229.52 1129.89,-230.52 1123.88,-231.39 1117.61,-232.12 1111.09,-232.73 1104.35,-233.19 1097.41,-233.53 1090.3,-233.72 1083.02,-233.78 1075.63,-233.7 1068.13,-233.49 1060.56,-233.15 1052.94,-232.68 1045.32,-232.07 1037.71,-231.35 1030.14,-230.5 1022.66,-229.54 1015.28,-228.46 1008.05,-227.27"/>
<text text-anchor="middle" x="1064.27" y="-184.6" font-family="sans-serif" font-size="16.00">PersonaContext</text>
</g>
<!-- PersonaContext&#45;&gt;ChatbotAndVoiceContext -->
<g id="edge11" class="edge">
<title>PersonaContext&#45;&gt;ChatbotAndVoiceContext</title>
<path fill="none" stroke="black" stroke-width="2" d="M994.56,-154.8C960.32,-139.58 918.15,-122.03 879.27,-109.1 841.23,-96.46 799.24,-85.1 760.53,-75.64"/>
<text text-anchor="middle" x="990.77" y="-112.5" font-family="sans-serif" font-size="12.00"> &#160;&#160;&#160;&#160;&#160;&#160;&#160;&#160;&#160;&#160;&#160;&#160;&#160;&#160;&#160;&#160;&#160;&#160;&#160;&#160;&#160;&#160;&#160;&#160;&#160;&#160;&#160;&#160;&#160;&#160;&#160;&#160;&#160;&#160;&#160;&#160;&#160;&#160;&#160;</text>
<polygon fill="white" stroke="transparent" points="737.53,-65.64 737.53,-84.64 753.53,-84.64 753.53,-65.64 737.53,-65.64"/>
<polyline fill="none" stroke="black" points="753.53,-65.64 753.53,-84.64 "/>
<text text-anchor="start" x="740.53" y="-72.04" font-family="sans-serif" font-size="12.00">D</text>
<polygon fill="white" stroke="transparent" points="753.53,-65.64 753.53,-84.64 783.53,-84.64 783.53,-65.64 753.53,-65.64"/>
<polygon fill="none" stroke="black" points="753.53,-65.64 753.53,-84.64 783.53,-84.64 783.53,-65.64 753.53,-65.64"/>
<text text-anchor="start" x="756.53" y="-72.04" font-family="sans-serif" font-size="12.00">ACL</text>
<polygon fill="white" stroke="transparent" points="959.56,-144.8 959.56,-163.8 975.56,-163.8 975.56,-144.8 959.56,-144.8"/>
<polyline fill="none" stroke="black" points="975.56,-144.8 975.56,-163.8 "/>
<text text-anchor="start" x="962.56" y="-151.2" font-family="sans-serif" font-size="12.00">U</text>
<polygon fill="white" stroke="transparent" points="975.56,-144.8 975.56,-163.8 1030.56,-163.8 1030.56,-144.8 975.56,-144.8"/>
<polygon fill="none" stroke="black" points="975.56,-144.8 975.56,-163.8 1030.56,-163.8 1030.56,-144.8 975.56,-144.8"/>
<text text-anchor="start" x="978.56" y="-151.2" font-family="sans-serif" font-size="12.00">OHS, PL</text>
</g>
<!-- SettingContext -->
<g id="node10" class="node">
<title>SettingContext</title>
<polygon fill="none" stroke="black" stroke-width="2" points="652.23,-509.76 659.7,-509.15 667.19,-508.67 674.66,-508.31 682.1,-508.08 689.46,-507.98 696.72,-508 703.86,-508.16 710.84,-508.45 717.64,-508.87 724.24,-509.41 730.61,-510.09 736.74,-510.9 742.6,-511.83 748.18,-512.88 753.46,-514.06 758.44,-515.35 763.09,-516.75 767.41,-518.26 771.39,-519.88 775.02,-521.6 778.31,-523.41 781.25,-525.31 783.83,-527.29 786.06,-529.34 787.95,-531.47 789.49,-533.66 790.69,-535.9 791.56,-538.19 792.11,-540.52 792.34,-542.88 792.27,-545.27 791.9,-547.68 791.24,-550.09 790.32,-552.51 789.13,-554.92 787.69,-557.32 786.01,-559.7 784.1,-562.05 781.97,-564.37 779.64,-566.64 777.12,-568.87 774.41,-571.04 771.52,-573.15 768.47,-575.19 765.26,-577.16 761.9,-579.05 758.39,-580.86 754.75,-582.58 750.98,-584.2 747.08,-585.74 743.06,-587.17 738.92,-588.5 734.67,-589.73 730.31,-590.85 725.85,-591.86 721.28,-592.75 716.6,-593.54 711.83,-594.21 706.97,-594.77 702.01,-595.21 696.97,-595.53 691.84,-595.75 686.63,-595.85 681.34,-595.83 675.99,-595.7 670.57,-595.47 665.1,-595.12 659.57,-594.67 654.01,-594.1 648.42,-593.44 642.82,-592.68 637.21,-591.81 631.6,-590.85 626.02,-589.8 620.48,-588.65 614.99,-587.42 609.57,-586.11 604.24,-584.71 599.02,-583.23 593.93,-581.68 588.98,-580.06 584.2,-578.38 579.61,-576.62 575.23,-574.81 571.08,-572.95 567.18,-571.03 563.55,-569.07 560.21,-567.06 557.18,-565.01 554.49,-562.93 552.13,-560.82 550.14,-558.68 548.53,-556.53 547.31,-554.35 546.49,-552.17 546.09,-549.98 546.11,-547.79 546.56,-545.61 547.44,-543.44 548.76,-541.28 550.52,-539.14 552.72,-537.03 555.34,-534.95 558.4,-532.91 561.87,-530.91 565.74,-528.96 570.01,-527.06 574.67,-525.23 579.68,-523.46 585.04,-521.76 590.72,-520.13 596.7,-518.59 602.95,-517.14 609.46,-515.77 616.19,-514.5 623.12,-513.34 630.22,-512.27 637.46,-511.32 644.8,-510.48 652.23,-509.76"/>
<text text-anchor="middle" x="675.27" y="-548.89" font-family="sans-serif" font-size="16.00">SettingContext</text>
</g>
<!-- SettingContext&#45;&gt;ConversationContext -->
<g id="edge12" class="edge">
<title>SettingContext&#45;&gt;ConversationContext</title>
<path fill="none" stroke="black" stroke-width="2" d="M630.47,-511.89C615.93,-499.9 599.38,-487.19 583.27,-476.84 569.93,-468.27 555.23,-460.04 540.75,-452.55"/>
<text text-anchor="middle" x="676.77" y="-480.24" font-family="sans-serif" font-size="12.00"> &#160;&#160;&#160;&#160;&#160;&#160;&#160;&#160;&#160;&#160;&#160;&#160;&#160;&#160;&#160;&#160;&#160;&#160;&#160;&#160;&#160;&#160;&#160;&#160;&#160;&#160;&#160;&#160;&#160;&#160;&#160;&#160;&#160;&#160;&#160;&#160;&#160;&#160;&#160;</text>
<polygon fill="white" stroke="transparent" points="521.75,-442.55 521.75,-461.55 537.75,-461.55 537.75,-442.55 521.75,-442.55"/>
<polyline fill="none" stroke="black" points="537.75,-442.55 537.75,-461.55 "/>
<text text-anchor="start" x="524.75" y="-448.95" font-family="sans-serif" font-size="12.00">D</text>
<polygon fill="white" stroke="transparent" points="537.75,-442.55 537.75,-461.55 559.75,-461.55 559.75,-442.55 537.75,-442.55"/>
<polygon fill="none" stroke="black" points="537.75,-442.55 537.75,-461.55 559.75,-461.55 559.75,-442.55 537.75,-442.55"/>
<text text-anchor="start" x="540.75" y="-448.95" font-family="sans-serif" font-size="12.00">CF</text>
<polygon fill="white" stroke="transparent" points="595.47,-501.89 595.47,-520.89 611.47,-520.89 611.47,-501.89 595.47,-501.89"/>
<polyline fill="none" stroke="black" points="611.47,-501.89 611.47,-520.89 "/>
<text text-anchor="start" x="598.47" y="-508.29" font-family="sans-serif" font-size="12.00">U</text>
<polygon fill="white" stroke="transparent" points="611.47,-501.89 611.47,-520.89 666.47,-520.89 666.47,-501.89 611.47,-501.89"/>
<polygon fill="none" stroke="black" points="611.47,-501.89 611.47,-520.89 666.47,-520.89 666.47,-501.89 611.47,-501.89"/>
<text text-anchor="start" x="614.47" y="-508.29" font-family="sans-serif" font-size="12.00">OHS, PL</text>
</g>
</g>
</svg>
