<svg width="2000px" height="1177px"
 viewBox="0.00 0.00 1294.87 761.81" xmlns="http://www.w3.org/2000/svg" xmlns:xlink="http://www.w3.org/1999/xlink">
<g id="graph0" class="graph" transform="scale(1.0 1.0) rotate(0) translate(4 757.81)">
<title>ContextMapGraph</title>
<polygon fill="white" stroke="transparent" points="-4,4 -4,-757.81 1290.87,-757.81 1290.87,4 -4,4"/>
<!-- AuthContext -->
<g id="node1" class="node">
<title>AuthContext</title>
<polygon fill="none" stroke="black" stroke-width="2" points="150.28,-751.14 143.56,-751.4 136.86,-751.54 130.2,-751.55 123.62,-751.44 117.13,-751.21 110.77,-750.85 104.56,-750.36 98.53,-749.75 92.69,-749.02 87.06,-748.17 81.67,-747.2 76.53,-746.11 71.66,-744.91 67.07,-743.6 62.77,-742.18 58.78,-740.66 55.11,-739.04 51.76,-737.33 48.73,-735.53 46.04,-733.64 43.68,-731.68 41.65,-729.65 39.96,-727.55 38.59,-725.39 37.55,-723.17 36.83,-720.91 36.42,-718.61 36.32,-716.28 36.51,-713.92 36.98,-711.55 37.73,-709.16 38.75,-706.77 40.02,-704.38 41.52,-702.01 43.26,-699.65 45.21,-697.31 47.37,-695.01 49.72,-692.74 52.25,-690.53 54.94,-688.36 57.8,-686.25 60.8,-684.2 63.93,-682.22 67.2,-680.32 70.58,-678.5 74.07,-676.76 77.66,-675.11 81.35,-673.56 85.12,-672.1 88.98,-670.75 92.92,-669.5 96.93,-668.36 101.01,-667.32 105.15,-666.41 109.36,-665.6 113.62,-664.91 117.94,-664.34 122.31,-663.89 126.74,-663.56 131.21,-663.34 135.73,-663.25 140.29,-663.27 144.88,-663.41 149.51,-663.67 154.17,-664.04 158.85,-664.53 163.55,-665.13 168.26,-665.84 172.97,-666.65 177.68,-667.58 182.38,-668.6 187.05,-669.72 191.68,-670.94 196.27,-672.25 200.8,-673.65 205.26,-675.14 209.63,-676.7 213.9,-678.35 218.05,-680.06 222.07,-681.85 225.94,-683.7 229.65,-685.6 233.17,-687.57 236.49,-689.58 239.59,-691.64 242.46,-693.74 245.07,-695.87 247.42,-698.03 249.49,-700.22 251.26,-702.43 252.71,-704.65 253.84,-706.88 254.64,-709.11 255.08,-711.34 255.17,-713.56 254.9,-715.77 254.25,-717.96 253.23,-720.12 251.83,-722.26 250.05,-724.36 247.89,-726.41 245.36,-728.43 242.46,-730.39 239.2,-732.29 235.58,-734.13 231.62,-735.9 227.33,-737.6 222.73,-739.22 217.82,-740.77 212.64,-742.22 207.19,-743.58 201.5,-744.85 195.6,-746.02 189.5,-747.09 183.24,-748.04 176.83,-748.89 170.3,-749.63 163.68,-750.25 157,-750.76 150.28,-751.14"/>
<text text-anchor="middle" x="142.43" y="-703.31" font-family="sans-serif" font-size="16.00">AuthContext</text>
</g>
<!-- ConversationContext -->
<g id="node2" class="node">
<title>ConversationContext</title>
<polygon fill="none" stroke="black" stroke-width="2" points="239.89,-379.32 249.22,-380.3 258.33,-381.38 267.21,-382.57 275.8,-383.85 284.08,-385.23 292.01,-386.71 299.57,-388.27 306.71,-389.9 313.42,-391.62 319.66,-393.4 325.43,-395.26 330.68,-397.17 335.42,-399.13 339.62,-401.14 343.27,-403.2 346.37,-405.29 348.91,-407.42 350.88,-409.58 352.29,-411.75 353.13,-413.94 353.42,-416.14 353.17,-418.35 352.37,-420.55 351.05,-422.76 349.22,-424.95 346.9,-427.12 344.11,-429.27 340.87,-431.4 337.19,-433.5 333.11,-435.57 328.65,-437.59 323.83,-439.57 318.68,-441.5 313.22,-443.38 307.49,-445.2 301.5,-446.96 295.29,-448.66 288.88,-450.28 282.3,-451.83 275.56,-453.31 268.7,-454.7 261.74,-456.02 254.7,-457.24 247.6,-458.37 240.46,-459.41 233.29,-460.36 226.12,-461.2 218.97,-461.94 211.83,-462.58 204.73,-463.11 197.68,-463.53 190.7,-463.84 183.77,-464.04 176.93,-464.12 170.17,-464.09 163.5,-463.94 156.93,-463.68 150.45,-463.3 144.09,-462.8 137.83,-462.19 131.68,-461.46 125.65,-460.62 119.75,-459.67 113.96,-458.6 108.31,-457.42 102.79,-456.14 97.41,-454.75 92.18,-453.26 87.09,-451.67 82.17,-449.99 77.41,-448.21 72.83,-446.36 68.43,-444.42 64.23,-442.4 60.24,-440.32 56.46,-438.17 52.92,-435.97 49.63,-433.71 46.6,-431.41 43.84,-429.07 41.38,-426.7 39.23,-424.31 37.39,-421.9 35.9,-419.48 34.76,-417.06 33.99,-414.64 33.61,-412.24 33.62,-409.86 34.05,-407.51 34.9,-405.19 36.19,-402.92 37.92,-400.7 40.11,-398.54 42.75,-396.44 45.86,-394.41 49.43,-392.47 53.47,-390.6 57.97,-388.83 62.93,-387.15 68.34,-385.57 74.19,-384.1 80.48,-382.73 87.18,-381.48 94.28,-380.35 101.76,-379.34 109.6,-378.45 117.78,-377.68 126.26,-377.04 135.01,-376.53 144.02,-376.15 153.24,-375.9 162.65,-375.78 172.19,-375.78 181.85,-375.92 191.58,-376.18 201.34,-376.57 211.09,-377.08 220.79,-377.71 230.4,-378.46 239.89,-379.32"/>
<text text-anchor="middle" x="186.43" y="-416.77" font-family="sans-serif" font-size="16.00">ConversationContext</text>
</g>
<!-- AuthContext&#45;&gt;ConversationContext -->
<g id="edge1" class="edge">
<title>AuthContext&#45;&gt;ConversationContext</title>
<path fill="none" stroke="black" stroke-width="2" d="M136.19,-663.17C131.84,-623.85 128.68,-564.33 140.43,-514.21 144.49,-496.9 152.29,-479.13 160.33,-463.83"/>
<text text-anchor="middle" x="215.93" y="-559.72" font-family="sans-serif" font-size="12.00"> &#160;&#160;&#160;&#160;&#160;&#160;&#160;&#160;&#160;&#160;&#160;&#160;&#160;&#160;&#160;&#160;&#160;&#160;&#160;&#160;&#160;&#160;&#160;&#160;&#160;&#160;&#160;&#160;&#160;&#160;&#160;&#160;&#160;&#160;&#160;&#160;&#160;&#160;&#160;</text>
<polygon fill="white" stroke="transparent" points="137.33,-453.83 137.33,-472.83 153.33,-472.83 153.33,-453.83 137.33,-453.83"/>
<polyline fill="none" stroke="black" points="153.33,-453.83 153.33,-472.83 "/>
<text text-anchor="start" x="140.33" y="-460.23" font-family="sans-serif" font-size="12.00">D</text>
<polygon fill="white" stroke="transparent" points="153.33,-453.83 153.33,-472.83 183.33,-472.83 183.33,-453.83 153.33,-453.83"/>
<polygon fill="none" stroke="black" points="153.33,-453.83 153.33,-472.83 183.33,-472.83 183.33,-453.83 153.33,-453.83"/>
<text text-anchor="start" x="156.33" y="-460.23" font-family="sans-serif" font-size="12.00">ACL</text>
<polygon fill="white" stroke="transparent" points="101.19,-653.17 101.19,-672.17 117.19,-672.17 117.19,-653.17 101.19,-653.17"/>
<polyline fill="none" stroke="black" points="117.19,-653.17 117.19,-672.17 "/>
<text text-anchor="start" x="104.19" y="-659.57" font-family="sans-serif" font-size="12.00">U</text>
<polygon fill="white" stroke="transparent" points="117.19,-653.17 117.19,-672.17 172.19,-672.17 172.19,-653.17 117.19,-653.17"/>
<polygon fill="none" stroke="black" points="117.19,-653.17 117.19,-672.17 172.19,-672.17 172.19,-653.17 117.19,-653.17"/>
<text text-anchor="start" x="120.19" y="-659.57" font-family="sans-serif" font-size="12.00">OHS, PL</text>
</g>
<!-- PaymentContext -->
<g id="node5" class="node">
<title>PaymentContext</title>
<polygon fill="none" stroke="black" stroke-width="2" points="329.79,-586.38 325.27,-583.97 321.07,-581.51 317.22,-579.02 313.72,-576.49 310.6,-573.94 307.86,-571.38 305.53,-568.82 303.6,-566.26 302.1,-563.72 301.02,-561.2 300.38,-558.72 300.18,-556.28 300.41,-553.88 301.09,-551.54 302.21,-549.27 303.76,-547.05 305.74,-544.91 308.14,-542.85 310.95,-540.87 314.17,-538.97 317.77,-537.17 321.74,-535.45 326.07,-533.83 330.74,-532.31 335.74,-530.88 341.03,-529.55 346.6,-528.32 352.42,-527.19 358.49,-526.16 364.76,-525.22 371.21,-524.39 377.83,-523.65 384.59,-523.01 391.45,-522.46 398.4,-522.01 405.42,-521.65 412.47,-521.39 419.53,-521.21 426.59,-521.12 433.61,-521.12 440.58,-521.21 447.46,-521.38 454.26,-521.63 460.93,-521.97 467.47,-522.39 473.86,-522.89 480.08,-523.47 486.12,-524.13 491.96,-524.87 497.59,-525.68 503.01,-526.58 508.19,-527.55 513.13,-528.6 517.83,-529.73 522.27,-530.94 526.45,-532.22 530.37,-533.58 534.02,-535.01 537.4,-536.52 540.51,-538.1 543.34,-539.76 545.89,-541.48 548.17,-543.28 550.18,-545.14 551.91,-547.07 553.36,-549.06 554.55,-551.1 555.46,-553.21 556.1,-555.36 556.47,-557.57 556.58,-559.81 556.43,-562.09 556.01,-564.41 555.33,-566.75 554.4,-569.11 553.2,-571.48 551.76,-573.86 550.06,-576.23 548.11,-578.6 545.9,-580.95 543.46,-583.27 540.76,-585.55 537.83,-587.8 534.65,-589.99 531.23,-592.12 527.58,-594.18 523.69,-596.16 519.58,-598.06 515.24,-599.86 510.69,-601.56 505.91,-603.15 500.94,-604.62 495.76,-605.96 490.38,-607.17 484.82,-608.24 479.09,-609.17 473.19,-609.95 467.14,-610.58 460.95,-611.06 454.63,-611.37 448.2,-611.52 441.67,-611.51 435.05,-611.34 428.38,-611 421.66,-610.5 414.91,-609.84 408.16,-609.02 401.42,-608.05 394.71,-606.93 388.07,-605.66 381.5,-604.25 375.04,-602.7 368.7,-601.03 362.51,-599.23 356.5,-597.33 350.68,-595.31 345.07,-593.2 339.71,-591 334.61,-588.73 329.79,-586.38"/>
<text text-anchor="middle" x="436.43" y="-559.02" font-family="sans-serif" font-size="16.00">PaymentContext</text>
</g>
<!-- AuthContext&#45;&gt;PaymentContext -->
<g id="edge2" class="edge">
<title>AuthContext&#45;&gt;PaymentContext</title>
<path fill="none" stroke="black" stroke-width="2" d="M199.21,-673.04C224.13,-658.98 253.92,-642.79 281.43,-629.42 304.82,-618.05 330.69,-606.66 354.47,-596.63"/>
<text text-anchor="middle" x="356.93" y="-632.82" font-family="sans-serif" font-size="12.00"> &#160;&#160;&#160;&#160;&#160;&#160;&#160;&#160;&#160;&#160;&#160;&#160;&#160;&#160;&#160;&#160;&#160;&#160;&#160;&#160;&#160;&#160;&#160;&#160;&#160;&#160;&#160;&#160;&#160;&#160;&#160;&#160;&#160;&#160;&#160;&#160;&#160;&#160;&#160;</text>
<polygon fill="white" stroke="transparent" points="331.47,-586.63 331.47,-605.63 347.47,-605.63 347.47,-586.63 331.47,-586.63"/>
<polyline fill="none" stroke="black" points="347.47,-586.63 347.47,-605.63 "/>
<text text-anchor="start" x="334.47" y="-593.03" font-family="sans-serif" font-size="12.00">D</text>
<polygon fill="white" stroke="transparent" points="347.47,-586.63 347.47,-605.63 377.47,-605.63 377.47,-586.63 347.47,-586.63"/>
<polygon fill="none" stroke="black" points="347.47,-586.63 347.47,-605.63 377.47,-605.63 377.47,-586.63 347.47,-586.63"/>
<text text-anchor="start" x="350.47" y="-593.03" font-family="sans-serif" font-size="12.00">ACL</text>
<polygon fill="white" stroke="transparent" points="164.21,-663.04 164.21,-682.04 180.21,-682.04 180.21,-663.04 164.21,-663.04"/>
<polyline fill="none" stroke="black" points="180.21,-663.04 180.21,-682.04 "/>
<text text-anchor="start" x="167.21" y="-669.44" font-family="sans-serif" font-size="12.00">U</text>
<polygon fill="white" stroke="transparent" points="180.21,-663.04 180.21,-682.04 235.21,-682.04 235.21,-663.04 180.21,-663.04"/>
<polygon fill="none" stroke="black" points="180.21,-663.04 180.21,-682.04 235.21,-682.04 235.21,-663.04 180.21,-663.04"/>
<text text-anchor="start" x="183.21" y="-669.44" font-family="sans-serif" font-size="12.00">OHS, PL</text>
</g>
<!-- LiveKitServer -->
<g id="node3" class="node">
<title>LiveKitServer</title>
<polygon fill="none" stroke="black" stroke-width="2" points="190.96,-162.32 196.29,-164.2 201.38,-166.17 206.23,-168.2 210.8,-170.3 215.07,-172.45 219.04,-174.65 222.68,-176.9 225.98,-179.17 228.93,-181.47 231.51,-183.79 233.71,-186.12 235.52,-188.45 236.94,-190.78 237.96,-193.1 238.58,-195.4 238.8,-197.68 238.62,-199.93 238.04,-202.15 237.07,-204.32 235.71,-206.46 233.98,-208.54 231.88,-210.58 229.42,-212.56 226.62,-214.47 223.49,-216.33 220.05,-218.12 216.31,-219.84 212.3,-221.49 208.03,-223.07 203.52,-224.57 198.79,-225.99 193.86,-227.34 188.76,-228.61 183.5,-229.79 178.1,-230.9 172.59,-231.92 166.99,-232.85 161.32,-233.7 155.6,-234.47 149.85,-235.14 144.08,-235.73 138.32,-236.23 132.58,-236.64 126.88,-236.96 121.24,-237.18 115.67,-237.32 110.18,-237.36 104.78,-237.31 99.5,-237.16 94.33,-236.91 89.29,-236.57 84.39,-236.13 79.63,-235.6 75.02,-234.96 70.56,-234.23 66.27,-233.4 62.14,-232.47 58.19,-231.44 54.4,-230.31 50.79,-229.09 47.35,-227.77 44.09,-226.35 41.02,-224.84 38.12,-223.24 35.4,-221.55 32.87,-219.78 30.52,-217.92 28.35,-215.98 26.37,-213.97 24.58,-211.89 22.98,-209.73 21.57,-207.52 20.35,-205.25 19.33,-202.94 18.51,-200.57 17.89,-198.17 17.47,-195.75 17.26,-193.3 17.27,-190.83 17.49,-188.36 17.93,-185.89 18.6,-183.43 19.49,-180.98 20.62,-178.57 21.99,-176.19 23.59,-173.85 25.44,-171.57 27.53,-169.35 29.87,-167.2 32.46,-165.12 35.3,-163.14 38.4,-161.24 41.74,-159.45 45.32,-157.77 49.16,-156.2 53.23,-154.75 57.54,-153.43 62.07,-152.24 66.83,-151.19 71.8,-150.28 76.97,-149.51 82.33,-148.9 87.86,-148.43 93.56,-148.11 99.41,-147.94 105.38,-147.93 111.47,-148.06 117.65,-148.35 123.9,-148.79 130.2,-149.37 136.53,-150.1 142.87,-150.96 149.19,-151.96 155.47,-153.1 161.69,-154.35 167.82,-155.73 173.84,-157.22 179.71,-158.83 185.43,-160.53 190.96,-162.32"/>
<text text-anchor="middle" x="119.43" y="-191.47" font-family="sans-serif" font-size="16.00">LiveKitServer</text>
</g>
<!-- ConversationContext&#45;&gt;LiveKitServer -->
<g id="edge3" class="edge">
<title>ConversationContext&#45;&gt;LiveKitServer</title>
<path fill="none" stroke="black" stroke-width="2" d="M131.9,-376.51C127.31,-370.75 123.33,-364.53 120.43,-357.92 103.71,-319.75 106.05,-271.47 110.97,-237.65"/>
<text text-anchor="middle" x="195.93" y="-306.79" font-family="sans-serif" font-size="12.00"> &#160;&#160;&#160;&#160;&#160;&#160;&#160;&#160;&#160;&#160;&#160;&#160;&#160;&#160;&#160;&#160;&#160;&#160;&#160;&#160;&#160;&#160;&#160;&#160;&#160;&#160;&#160;&#160;&#160;&#160;&#160;&#160;&#160;&#160;&#160;&#160;&#160;&#160;&#160;</text>
<polygon fill="white" stroke="transparent" points="91.97,-227.65 91.97,-246.65 107.97,-246.65 107.97,-227.65 91.97,-227.65"/>
<polyline fill="none" stroke="black" points="107.97,-227.65 107.97,-246.65 "/>
<text text-anchor="start" x="94.97" y="-234.05" font-family="sans-serif" font-size="12.00">D</text>
<polygon fill="white" stroke="transparent" points="107.97,-227.65 107.97,-246.65 129.97,-246.65 129.97,-227.65 107.97,-227.65"/>
<polygon fill="none" stroke="black" points="107.97,-227.65 107.97,-246.65 129.97,-246.65 129.97,-227.65 107.97,-227.65"/>
<text text-anchor="start" x="110.97" y="-234.05" font-family="sans-serif" font-size="12.00">CF</text>
<polygon fill="white" stroke="transparent" points="124.9,-367.51 124.9,-384.51 138.9,-384.51 138.9,-367.51 124.9,-367.51"/>
<text text-anchor="start" x="126.9" y="-372.91" font-family="sans-serif" font-size="12.00">U</text>
</g>
<!-- ChatbotAndVoiceContext -->
<g id="node4" class="node">
<title>ChatbotAndVoiceContext</title>
<polygon fill="none" stroke="black" stroke-width="2" points="657.22,-71.17 651.57,-73.66 645.54,-76.06 639.15,-78.38 632.43,-80.6 625.41,-82.72 618.1,-84.72 610.53,-86.6 602.73,-88.35 594.72,-89.96 586.53,-91.43 578.18,-92.75 569.71,-93.92 561.12,-94.93 552.45,-95.77 543.72,-96.46 534.96,-96.98 526.18,-97.33 517.41,-97.52 508.67,-97.55 499.97,-97.41 491.35,-97.11 482.82,-96.66 474.4,-96.05 466.1,-95.3 457.95,-94.4 449.95,-93.36 442.13,-92.2 434.49,-90.91 427.06,-89.5 419.85,-87.98 412.87,-86.36 406.13,-84.65 399.64,-82.85 393.42,-80.98 387.48,-79.03 381.82,-77.02 376.47,-74.97 371.42,-72.86 366.7,-70.72 362.3,-68.55 358.24,-66.36 354.53,-64.15 351.17,-61.94 348.18,-59.72 345.56,-57.51 343.32,-55.31 341.47,-53.13 340.01,-50.96 338.96,-48.82 338.31,-46.71 338.08,-44.64 338.27,-42.59 338.88,-40.59 339.92,-38.63 341.38,-36.71 343.28,-34.84 345.61,-33.02 348.38,-31.24 351.58,-29.52 355.21,-27.84 359.27,-26.22 363.74,-24.65 368.64,-23.13 373.95,-21.67 379.65,-20.27 385.75,-18.92 392.23,-17.63 399.07,-16.4 406.26,-15.23 413.78,-14.11 421.63,-13.07 429.77,-12.08 438.18,-11.17 446.85,-10.32 455.75,-9.54 464.86,-8.84 474.14,-8.22 483.57,-7.67 493.13,-7.2 502.78,-6.82 512.49,-6.53 522.23,-6.33 531.98,-6.23 541.69,-6.22 551.33,-6.31 560.88,-6.51 570.3,-6.82 579.56,-7.23 588.62,-7.76 597.45,-8.4 606.03,-9.16 614.33,-10.03 622.3,-11.03 629.94,-12.14 637.2,-13.37 644.06,-14.73 650.51,-16.2 656.51,-17.78 662.06,-19.48 667.12,-21.3 671.68,-23.22 675.73,-25.24 679.26,-27.36 682.25,-29.58 684.7,-31.88 686.6,-34.26 687.95,-36.72 688.74,-39.24 688.98,-41.82 688.67,-44.45 687.81,-47.12 686.41,-49.81 684.48,-52.53 682.03,-55.25 679.07,-57.97 675.62,-60.68 671.69,-63.37 667.3,-66.02 662.47,-68.62 657.22,-71.17"/>
<text text-anchor="middle" x="507.43" y="-45.05" font-family="sans-serif" font-size="16.00">ChatbotAndVoiceContext</text>
</g>
<!-- ConversationContext&#45;&gt;ChatbotAndVoiceContext -->
<g id="edge4" class="edge">
<title>ConversationContext&#45;&gt;ChatbotAndVoiceContext</title>
<path fill="none" stroke="black" stroke-width="2" d="M251.66,-380.41C259.18,-373.69 266.07,-366.17 271.43,-357.92 323.76,-277.46 257.91,-222.78 316.43,-146.7 337.97,-118.7 369.82,-98.15 401.37,-83.37"/>
<text text-anchor="middle" x="350.93" y="-192.17" font-family="sans-serif" font-size="12.00">Partnership</text>
</g>
<!-- LiveKitServer&#45;&gt;ChatbotAndVoiceContext -->
<g id="edge5" class="edge">
<title>LiveKitServer&#45;&gt;ChatbotAndVoiceContext</title>
<path fill="none" stroke="black" stroke-width="2" d="M110.09,-147.73C110.25,-136.13 112.9,-124.51 120.43,-115.7 149.81,-81.35 252.61,-64.92 344.88,-57.06"/>
<text text-anchor="middle" x="195.93" y="-119.1" font-family="sans-serif" font-size="12.00"> &#160;&#160;&#160;&#160;&#160;&#160;&#160;&#160;&#160;&#160;&#160;&#160;&#160;&#160;&#160;&#160;&#160;&#160;&#160;&#160;&#160;&#160;&#160;&#160;&#160;&#160;&#160;&#160;&#160;&#160;&#160;&#160;&#160;&#160;&#160;&#160;&#160;&#160;&#160;</text>
<polygon fill="white" stroke="transparent" points="325.88,-47.06 325.88,-66.06 341.88,-66.06 341.88,-47.06 325.88,-47.06"/>
<polyline fill="none" stroke="black" points="341.88,-47.06 341.88,-66.06 "/>
<text text-anchor="start" x="328.88" y="-53.46" font-family="sans-serif" font-size="12.00">D</text>
<polygon fill="white" stroke="transparent" points="341.88,-47.06 341.88,-66.06 363.88,-66.06 363.88,-47.06 341.88,-47.06"/>
<polygon fill="none" stroke="black" points="341.88,-47.06 341.88,-66.06 363.88,-66.06 363.88,-47.06 341.88,-47.06"/>
<text text-anchor="start" x="344.88" y="-53.46" font-family="sans-serif" font-size="12.00">CF</text>
<polygon fill="white" stroke="transparent" points="103.09,-138.73 103.09,-155.73 117.09,-155.73 117.09,-138.73 103.09,-138.73"/>
<text text-anchor="start" x="105.09" y="-144.13" font-family="sans-serif" font-size="12.00">U</text>
</g>
<!-- PaymentContext&#45;&gt;ConversationContext -->
<g id="edge6" class="edge">
<title>PaymentContext&#45;&gt;ConversationContext</title>
<path fill="none" stroke="black" stroke-width="2" d="M334.76,-531.15C310.46,-521.72 285.26,-510.08 263.43,-496.21 248.51,-486.73 234.05,-474 221.78,-461.75"/>
<text text-anchor="middle" x="338.93" y="-486.61" font-family="sans-serif" font-size="12.00"> &#160;&#160;&#160;&#160;&#160;&#160;&#160;&#160;&#160;&#160;&#160;&#160;&#160;&#160;&#160;&#160;&#160;&#160;&#160;&#160;&#160;&#160;&#160;&#160;&#160;&#160;&#160;&#160;&#160;&#160;&#160;&#160;&#160;&#160;&#160;&#160;&#160;&#160;&#160;</text>
<polygon fill="white" stroke="transparent" points="198.78,-451.75 198.78,-470.75 214.78,-470.75 214.78,-451.75 198.78,-451.75"/>
<polyline fill="none" stroke="black" points="214.78,-451.75 214.78,-470.75 "/>
<text text-anchor="start" x="201.78" y="-458.15" font-family="sans-serif" font-size="12.00">D</text>
<polygon fill="white" stroke="transparent" points="214.78,-451.75 214.78,-470.75 244.78,-470.75 244.78,-451.75 214.78,-451.75"/>
<polygon fill="none" stroke="black" points="214.78,-451.75 214.78,-470.75 244.78,-470.75 244.78,-451.75 214.78,-451.75"/>
<text text-anchor="start" x="217.78" y="-458.15" font-family="sans-serif" font-size="12.00">ACL</text>
<polygon fill="white" stroke="transparent" points="327.76,-522.15 327.76,-539.15 341.76,-539.15 341.76,-522.15 327.76,-522.15"/>
<text text-anchor="start" x="329.76" y="-527.55" font-family="sans-serif" font-size="12.00">U</text>
</g>
<!-- DocumentContext -->
<g id="node6" class="node">
<title>DocumentContext</title>
<polygon fill="none" stroke="black" stroke-width="2" points="566.09,-322.48 563.68,-325.24 560.93,-327.96 557.85,-330.61 554.44,-333.18 550.73,-335.67 546.71,-338.07 542.41,-340.36 537.83,-342.54 533,-344.6 527.92,-346.53 522.61,-348.33 517.09,-349.98 511.37,-351.49 505.46,-352.84 499.39,-354.04 493.17,-355.08 486.81,-355.97 480.34,-356.69 473.76,-357.24 467.11,-357.64 460.38,-357.88 453.61,-357.96 446.8,-357.88 439.98,-357.65 433.16,-357.28 426.35,-356.76 419.58,-356.1 412.86,-355.31 406.2,-354.39 399.63,-353.35 393.15,-352.2 386.79,-350.95 380.55,-349.59 374.46,-348.15 368.52,-346.61 362.76,-345 357.18,-343.33 351.8,-341.59 346.64,-339.79 341.7,-337.94 337,-336.06 332.55,-334.14 328.37,-332.18 324.45,-330.21 320.82,-328.22 317.49,-326.21 314.46,-324.19 311.75,-322.18 309.35,-320.16 307.29,-318.14 305.56,-316.13 304.17,-314.13 303.14,-312.14 302.45,-310.17 302.13,-308.21 302.16,-306.27 302.55,-304.35 303.31,-302.45 304.44,-300.58 305.92,-298.72 307.77,-296.9 309.97,-295.09 312.53,-293.32 315.44,-291.57 318.7,-289.86 322.29,-288.17 326.21,-286.52 330.45,-284.9 334.99,-283.32 339.84,-281.78 344.97,-280.28 350.38,-278.82 356.04,-277.42 361.94,-276.06 368.08,-274.76 374.42,-273.52 380.95,-272.34 387.66,-271.23 394.52,-270.2 401.51,-269.24 408.62,-268.36 415.82,-267.57 423.08,-266.87 430.4,-266.27 437.75,-265.77 445.1,-265.38 452.43,-265.11 459.72,-264.94 466.95,-264.9 474.09,-264.99 481.13,-265.2 488.04,-265.55 494.8,-266.03 501.39,-266.65 507.79,-267.41 513.97,-268.3 519.94,-269.34 525.65,-270.52 531.1,-271.84 536.27,-273.3 541.15,-274.89 545.72,-276.61 549.96,-278.46 553.88,-280.44 557.44,-282.53 560.66,-284.73 563.51,-287.05 565.99,-289.45 568.1,-291.95 569.83,-294.53 571.18,-297.18 572.14,-299.89 572.71,-302.65 572.9,-305.45 572.7,-308.29 572.12,-311.14 571.17,-313.99 569.84,-316.84 568.14,-319.68 566.09,-322.48"/>
<text text-anchor="middle" x="436.43" y="-306.09" font-family="sans-serif" font-size="16.00">DocumentContext</text>
</g>
<!-- PaymentContext&#45;&gt;DocumentContext -->
<g id="edge7" class="edge">
<title>PaymentContext&#45;&gt;DocumentContext</title>
<path fill="none" stroke="black" stroke-width="2" d="M436.43,-520.94C436.43,-476.22 436.43,-404.67 436.43,-357.72"/>
<text text-anchor="middle" x="511.93" y="-486.61" font-family="sans-serif" font-size="12.00"> &#160;&#160;&#160;&#160;&#160;&#160;&#160;&#160;&#160;&#160;&#160;&#160;&#160;&#160;&#160;&#160;&#160;&#160;&#160;&#160;&#160;&#160;&#160;&#160;&#160;&#160;&#160;&#160;&#160;&#160;&#160;&#160;&#160;&#160;&#160;&#160;&#160;&#160;&#160;</text>
<polygon fill="white" stroke="transparent" points="413.43,-347.72 413.43,-366.72 429.43,-366.72 429.43,-347.72 413.43,-347.72"/>
<polyline fill="none" stroke="black" points="429.43,-347.72 429.43,-366.72 "/>
<text text-anchor="start" x="416.43" y="-354.12" font-family="sans-serif" font-size="12.00">D</text>
<polygon fill="white" stroke="transparent" points="429.43,-347.72 429.43,-366.72 459.43,-366.72 459.43,-347.72 429.43,-347.72"/>
<polygon fill="none" stroke="black" points="429.43,-347.72 429.43,-366.72 459.43,-366.72 459.43,-347.72 429.43,-347.72"/>
<text text-anchor="start" x="432.43" y="-354.12" font-family="sans-serif" font-size="12.00">ACL</text>
<polygon fill="white" stroke="transparent" points="429.43,-511.94 429.43,-528.94 443.43,-528.94 443.43,-511.94 429.43,-511.94"/>
<text text-anchor="start" x="431.43" y="-517.34" font-family="sans-serif" font-size="12.00">U</text>
</g>
<!-- DocumentContext&#45;&gt;ChatbotAndVoiceContext -->
<g id="edge8" class="edge">
<title>DocumentContext&#45;&gt;ChatbotAndVoiceContext</title>
<path fill="none" stroke="black" stroke-width="2" d="M409.17,-268.29C405.15,-260.48 401.63,-252.14 399.43,-243.85 388.39,-202.11 381.83,-186.13 399.43,-146.7 408.83,-125.66 425.3,-107.28 442.6,-92.36"/>
<text text-anchor="middle" x="441.43" y="-192.17" font-family="sans-serif" font-size="12.00">Shared Kernel</text>
</g>
<!-- PaymentGateways -->
<g id="node7" class="node">
<title>PaymentGateways</title>
<polygon fill="none" stroke="black" stroke-width="2" points="352.56,-742.05 345.37,-740.32 338.47,-738.51 331.86,-736.62 325.59,-734.66 319.68,-732.63 314.15,-730.54 309.03,-728.41 304.33,-726.23 300.08,-724.02 296.3,-721.78 293,-719.52 290.18,-717.24 287.87,-714.96 286.07,-712.68 284.78,-710.4 284,-708.13 283.74,-705.88 284,-703.65 284.76,-701.45 286.02,-699.28 287.77,-697.15 290.01,-695.06 292.71,-693.01 295.85,-691.02 299.43,-689.08 303.42,-687.19 307.8,-685.37 312.55,-683.61 317.65,-681.91 323.06,-680.28 328.77,-678.72 334.75,-677.24 340.97,-675.83 347.41,-674.49 354.03,-673.24 360.82,-672.06 367.74,-670.97 374.77,-669.96 381.89,-669.03 389.07,-668.19 396.28,-667.44 403.5,-666.78 410.71,-666.2 417.9,-665.72 425.03,-665.34 432.09,-665.04 439.07,-664.85 445.95,-664.75 452.7,-664.74 459.33,-664.84 465.82,-665.04 472.16,-665.33 478.33,-665.73 484.34,-666.23 490.16,-666.84 495.81,-667.55 501.26,-668.36 506.52,-669.27 511.59,-670.29 516.45,-671.41 521.11,-672.63 525.56,-673.94 529.81,-675.36 533.84,-676.88 537.66,-678.48 541.27,-680.18 544.67,-681.97 547.85,-683.84 550.8,-685.79 553.53,-687.82 556.04,-689.92 558.32,-692.09 560.36,-694.32 562.16,-696.61 563.72,-698.94 565.04,-701.32 566.09,-703.73 566.89,-706.17 567.42,-708.63 567.67,-711.1 567.65,-713.58 567.33,-716.06 566.72,-718.52 565.81,-720.96 564.59,-723.38 563.06,-725.76 561.2,-728.09 559.02,-730.36 556.51,-732.58 553.66,-734.72 550.48,-736.79 546.96,-738.77 543.1,-740.65 538.9,-742.43 534.36,-744.11 529.49,-745.67 524.3,-747.11 518.78,-748.42 512.96,-749.61 506.83,-750.66 500.42,-751.57 493.73,-752.34 486.79,-752.97 479.61,-753.45 472.2,-753.78 464.6,-753.97 456.83,-754.01 448.9,-753.9 440.85,-753.64 432.7,-753.24 424.49,-752.69 416.23,-752.01 407.97,-751.19 399.73,-750.24 391.54,-749.16 383.44,-747.96 375.46,-746.65 367.64,-745.22 359.99,-743.68 352.56,-742.05"/>
<text text-anchor="middle" x="436.43" y="-703.31" font-family="sans-serif" font-size="16.00">PaymentGateways</text>
</g>
<!-- PaymentGateways&#45;&gt;PaymentContext -->
<g id="edge9" class="edge">
<title>PaymentGateways&#45;&gt;PaymentContext</title>
<path fill="none" stroke="black" stroke-width="2" d="M436.43,-664.57C436.43,-647.92 436.43,-628.63 436.43,-611.42"/>
<text text-anchor="middle" x="511.93" y="-632.82" font-family="sans-serif" font-size="12.00"> &#160;&#160;&#160;&#160;&#160;&#160;&#160;&#160;&#160;&#160;&#160;&#160;&#160;&#160;&#160;&#160;&#160;&#160;&#160;&#160;&#160;&#160;&#160;&#160;&#160;&#160;&#160;&#160;&#160;&#160;&#160;&#160;&#160;&#160;&#160;&#160;&#160;&#160;&#160;</text>
<polygon fill="white" stroke="transparent" points="413.43,-601.42 413.43,-620.42 429.43,-620.42 429.43,-601.42 413.43,-601.42"/>
<polyline fill="none" stroke="black" points="429.43,-601.42 429.43,-620.42 "/>
<text text-anchor="start" x="416.43" y="-607.82" font-family="sans-serif" font-size="12.00">D</text>
<polygon fill="white" stroke="transparent" points="429.43,-601.42 429.43,-620.42 459.43,-620.42 459.43,-601.42 429.43,-601.42"/>
<polygon fill="none" stroke="black" points="429.43,-601.42 429.43,-620.42 459.43,-620.42 459.43,-601.42 429.43,-601.42"/>
<text text-anchor="start" x="432.43" y="-607.82" font-family="sans-serif" font-size="12.00">ACL</text>
<polygon fill="white" stroke="transparent" points="429.43,-655.57 429.43,-672.57 443.43,-672.57 443.43,-655.57 429.43,-655.57"/>
<text text-anchor="start" x="431.43" y="-660.97" font-family="sans-serif" font-size="12.00">U</text>
</g>
<!-- PersonaContext -->
<g id="node8" class="node">
<title>PersonaContext</title>
<polygon fill="none" stroke="black" stroke-width="2" points="719.4,-167.9 724.4,-170.13 729.11,-172.42 733.5,-174.77 737.57,-177.17 741.28,-179.59 744.63,-182.04 747.59,-184.51 750.16,-186.99 752.33,-189.47 754.08,-191.93 755.4,-194.39 756.3,-196.81 756.76,-199.21 756.79,-201.56 756.38,-203.88 755.54,-206.14 754.26,-208.34 752.57,-210.49 750.45,-212.56 747.93,-214.57 745.01,-216.5 741.72,-218.36 738.05,-220.13 734.03,-221.82 729.68,-223.43 725.02,-224.94 720.06,-226.37 714.82,-227.71 709.34,-228.96 703.62,-230.12 697.7,-231.19 691.6,-232.17 685.34,-233.05 678.95,-233.85 672.44,-234.55 665.86,-235.16 659.21,-235.69 652.52,-236.12 645.81,-236.47 639.11,-236.72 632.45,-236.89 625.82,-236.98 619.27,-236.97 612.81,-236.88 606.45,-236.7 600.21,-236.44 594.11,-236.08 588.16,-235.65 582.37,-235.12 576.76,-234.52 571.34,-233.82 566.12,-233.04 561.1,-232.17 556.3,-231.22 551.71,-230.18 547.35,-229.05 543.22,-227.84 539.33,-226.55 535.67,-225.17 532.25,-223.71 529.08,-222.16 526.14,-220.53 523.45,-218.83 521,-217.05 518.8,-215.19 516.84,-213.26 515.12,-211.26 513.65,-209.2 512.42,-207.07 511.42,-204.89 510.68,-202.66 510.17,-200.38 509.9,-198.06 509.87,-195.7 510.09,-193.31 510.54,-190.91 511.24,-188.48 512.18,-186.05 513.36,-183.62 514.79,-181.2 516.45,-178.8 518.37,-176.42 520.52,-174.08 522.92,-171.78 525.57,-169.53 528.46,-167.34 531.6,-165.23 534.98,-163.19 538.6,-161.23 542.46,-159.37 546.55,-157.62 550.88,-155.97 555.44,-154.44 560.21,-153.04 565.21,-151.77 570.41,-150.63 575.81,-149.64 581.4,-148.79 587.18,-148.09 593.11,-147.55 599.21,-147.16 605.44,-146.93 611.8,-146.87 618.26,-146.96 624.82,-147.21 631.44,-147.62 638.12,-148.19 644.83,-148.91 651.55,-149.79 658.25,-150.81 664.92,-151.97 671.53,-153.28 678.06,-154.72 684.48,-156.28 690.77,-157.96 696.9,-159.75 702.85,-161.65 708.6,-163.65 714.13,-165.73 719.4,-167.9"/>
<text text-anchor="middle" x="624.43" y="-191.47" font-family="sans-serif" font-size="16.00">PersonaContext</text>
</g>
<!-- PersonaContext&#45;&gt;ChatbotAndVoiceContext -->
<g id="edge10" class="edge">
<title>PersonaContext&#45;&gt;ChatbotAndVoiceContext</title>
<path fill="none" stroke="black" stroke-width="2" d="M586.77,-147.78C573.54,-131.46 558.68,-113.11 545.43,-96.75"/>
<text text-anchor="middle" x="645.93" y="-119.1" font-family="sans-serif" font-size="12.00"> &#160;&#160;&#160;&#160;&#160;&#160;&#160;&#160;&#160;&#160;&#160;&#160;&#160;&#160;&#160;&#160;&#160;&#160;&#160;&#160;&#160;&#160;&#160;&#160;&#160;&#160;&#160;&#160;&#160;&#160;&#160;&#160;&#160;&#160;&#160;&#160;&#160;&#160;&#160;</text>
<polygon fill="white" stroke="transparent" points="522.43,-86.75 522.43,-105.75 538.43,-105.75 538.43,-86.75 522.43,-86.75"/>
<polyline fill="none" stroke="black" points="538.43,-86.75 538.43,-105.75 "/>
<text text-anchor="start" x="525.43" y="-93.15" font-family="sans-serif" font-size="12.00">D</text>
<polygon fill="white" stroke="transparent" points="538.43,-86.75 538.43,-105.75 568.43,-105.75 568.43,-86.75 538.43,-86.75"/>
<polygon fill="none" stroke="black" points="538.43,-86.75 538.43,-105.75 568.43,-105.75 568.43,-86.75 538.43,-86.75"/>
<text text-anchor="start" x="541.43" y="-93.15" font-family="sans-serif" font-size="12.00">ACL</text>
<polygon fill="white" stroke="transparent" points="551.77,-137.78 551.77,-156.78 567.77,-156.78 567.77,-137.78 551.77,-137.78"/>
<polyline fill="none" stroke="black" points="567.77,-137.78 567.77,-156.78 "/>
<text text-anchor="start" x="554.77" y="-144.18" font-family="sans-serif" font-size="12.00">U</text>
<polygon fill="white" stroke="transparent" points="567.77,-137.78 567.77,-156.78 622.77,-156.78 622.77,-137.78 567.77,-137.78"/>
<polygon fill="none" stroke="black" points="567.77,-137.78 567.77,-156.78 622.77,-156.78 622.77,-137.78 567.77,-137.78"/>
<text text-anchor="start" x="570.77" y="-144.18" font-family="sans-serif" font-size="12.00">OHS, PL</text>
</g>
<!-- PhapDienContext -->
<g id="node9" class="node">
<title>PhapDienContext</title>
<polygon fill="none" stroke="black" stroke-width="2" points="882.08,-237.79 873.8,-237.05 865.66,-236.21 857.71,-235.25 849.98,-234.18 842.49,-233.01 835.27,-231.74 828.36,-230.38 821.78,-228.93 815.56,-227.38 809.72,-225.76 804.28,-224.06 799.25,-222.29 794.66,-220.45 790.52,-218.55 786.84,-216.59 783.63,-214.57 780.9,-212.52 778.64,-210.42 776.86,-208.28 775.57,-206.12 774.75,-203.93 774.4,-201.72 774.51,-199.5 775.07,-197.27 776.08,-195.04 777.52,-192.81 779.36,-190.59 781.61,-188.38 784.23,-186.19 787.21,-184.03 790.53,-181.9 794.17,-179.8 798.1,-177.74 802.31,-175.73 806.78,-173.77 811.48,-171.86 816.39,-170.01 821.49,-168.22 826.76,-166.51 832.18,-164.86 837.72,-163.3 843.38,-161.81 849.12,-160.41 854.95,-159.1 860.83,-157.88 866.76,-156.76 872.71,-155.74 878.69,-154.82 884.67,-154 890.64,-153.29 896.6,-152.69 902.54,-152.2 908.45,-151.83 914.33,-151.57 920.16,-151.43 925.94,-151.41 931.67,-151.5 937.35,-151.72 942.96,-152.05 948.51,-152.5 953.99,-153.07 959.4,-153.76 964.74,-154.57 969.99,-155.48 975.17,-156.52 980.26,-157.66 985.25,-158.91 990.14,-160.26 994.94,-161.72 999.61,-163.27 1004.17,-164.92 1008.6,-166.66 1012.89,-168.48 1017.03,-170.38 1021.01,-172.36 1024.82,-174.41 1028.44,-176.52 1031.86,-178.69 1035.07,-180.9 1038.04,-183.17 1040.78,-185.47 1043.26,-187.81 1045.46,-190.17 1047.38,-192.54 1048.98,-194.93 1050.27,-197.32 1051.23,-199.71 1051.83,-202.08 1052.07,-204.44 1051.94,-206.77 1051.42,-209.07 1050.5,-211.33 1049.18,-213.55 1047.45,-215.71 1045.3,-217.81 1042.73,-219.84 1039.73,-221.8 1036.32,-223.69 1032.48,-225.49 1028.23,-227.2 1023.56,-228.82 1018.5,-230.34 1013.06,-231.76 1007.23,-233.07 1001.05,-234.27 994.53,-235.36 987.69,-236.33 980.55,-237.18 973.14,-237.91 965.48,-238.52 957.6,-239.01 949.53,-239.37 941.31,-239.6 932.96,-239.71 924.51,-239.7 916,-239.56 907.47,-239.3 898.95,-238.92 890.48,-238.41 882.08,-237.79"/>
<text text-anchor="middle" x="917.43" y="-191.47" font-family="sans-serif" font-size="16.00">PhapDienContext</text>
</g>
<!-- PhapDienContext&#45;&gt;ChatbotAndVoiceContext -->
<g id="edge11" class="edge">
<title>PhapDienContext&#45;&gt;ChatbotAndVoiceContext</title>
<path fill="none" stroke="black" stroke-width="2" d="M842.84,-161.82C807.55,-146.96 764.64,-129.61 725.43,-115.7 693.02,-104.2 657.46,-92.91 624.63,-83.02"/>
<text text-anchor="middle" x="831.93" y="-119.1" font-family="sans-serif" font-size="12.00"> &#160;&#160;&#160;&#160;&#160;&#160;&#160;&#160;&#160;&#160;&#160;&#160;&#160;&#160;&#160;&#160;&#160;&#160;&#160;&#160;&#160;&#160;&#160;&#160;&#160;&#160;&#160;&#160;&#160;&#160;&#160;&#160;&#160;&#160;&#160;&#160;&#160;&#160;&#160;</text>
<polygon fill="white" stroke="transparent" points="601.63,-73.02 601.63,-92.02 617.63,-92.02 617.63,-73.02 601.63,-73.02"/>
<polyline fill="none" stroke="black" points="617.63,-73.02 617.63,-92.02 "/>
<text text-anchor="start" x="604.63" y="-79.42" font-family="sans-serif" font-size="12.00">D</text>
<polygon fill="white" stroke="transparent" points="617.63,-73.02 617.63,-92.02 647.63,-92.02 647.63,-73.02 617.63,-73.02"/>
<polygon fill="none" stroke="black" points="617.63,-73.02 617.63,-92.02 647.63,-92.02 647.63,-73.02 617.63,-73.02"/>
<text text-anchor="start" x="620.63" y="-79.42" font-family="sans-serif" font-size="12.00">ACL</text>
<polygon fill="white" stroke="transparent" points="835.84,-152.82 835.84,-169.82 849.84,-169.82 849.84,-152.82 835.84,-152.82"/>
<text text-anchor="start" x="837.84" y="-158.22" font-family="sans-serif" font-size="12.00">U</text>
</g>
<!-- SettingContext -->
<g id="node10" class="node">
<title>SettingContext</title>
<polygon fill="none" stroke="black" stroke-width="2" points="759.47,-750.05 752,-750.66 744.51,-751.14 737.04,-751.5 729.6,-751.73 722.24,-751.83 714.98,-751.81 707.84,-751.65 700.86,-751.36 694.06,-750.94 687.46,-750.39 681.09,-749.72 674.96,-748.91 669.1,-747.98 663.52,-746.93 658.24,-745.75 653.26,-744.46 648.61,-743.06 644.29,-741.55 640.31,-739.93 636.68,-738.21 633.39,-736.4 630.45,-734.5 627.87,-732.52 625.64,-730.47 623.75,-728.34 622.21,-726.15 621.01,-723.91 620.14,-721.62 619.59,-719.29 619.36,-716.93 619.43,-714.54 619.8,-712.13 620.46,-709.71 621.38,-707.3 622.57,-704.88 624.01,-702.49 625.69,-700.11 627.6,-697.76 629.73,-695.44 632.06,-693.17 634.58,-690.94 637.29,-688.77 640.18,-686.66 643.23,-684.62 646.44,-682.65 649.8,-680.76 653.31,-678.95 656.95,-677.23 660.72,-675.6 664.62,-674.07 668.64,-672.64 672.78,-671.31 677.03,-670.08 681.39,-668.96 685.85,-667.95 690.43,-667.06 695.1,-666.27 699.87,-665.6 704.73,-665.04 709.69,-664.6 714.73,-664.27 719.86,-664.06 725.07,-663.96 730.36,-663.98 735.71,-664.1 741.13,-664.34 746.6,-664.69 752.13,-665.14 757.69,-665.7 763.28,-666.37 768.88,-667.13 774.49,-668 780.1,-668.96 785.68,-670.01 791.22,-671.15 796.71,-672.39 802.13,-673.7 807.46,-675.1 812.68,-676.58 817.77,-678.13 822.72,-679.75 827.5,-681.43 832.09,-683.18 836.47,-684.99 840.62,-686.86 844.52,-688.78 848.15,-690.74 851.49,-692.75 854.52,-694.8 857.21,-696.88 859.57,-698.99 861.56,-701.13 863.17,-703.28 864.39,-705.45 865.21,-707.64 865.61,-709.83 865.59,-712.01 865.14,-714.2 864.26,-716.37 862.94,-718.53 861.18,-720.67 858.98,-722.78 856.36,-724.86 853.3,-726.9 849.83,-728.9 845.96,-730.85 841.69,-732.74 837.04,-734.58 832.02,-736.35 826.66,-738.05 820.98,-739.67 815,-741.22 808.75,-742.67 802.24,-744.04 795.51,-745.3 788.58,-746.47 781.48,-747.53 774.24,-748.49 766.9,-749.33 759.47,-750.05"/>
<text text-anchor="middle" x="736.43" y="-703.31" font-family="sans-serif" font-size="16.00">SettingContext</text>
</g>
<!-- VbplContext -->
<g id="node11" class="node">
<title>VbplContext</title>
<polygon fill="none" stroke="black" stroke-width="2" points="1275.85,-212.92 1273.27,-215.57 1270.44,-218.16 1267.39,-220.67 1264.11,-223.09 1260.63,-225.42 1256.95,-227.64 1253.08,-229.75 1249.05,-231.73 1244.85,-233.59 1240.5,-235.3 1236.02,-236.88 1231.43,-238.3 1226.72,-239.57 1221.92,-240.68 1217.04,-241.63 1212.09,-242.42 1207.09,-243.05 1202.04,-243.5 1196.97,-243.8 1191.88,-243.93 1186.78,-243.9 1181.69,-243.71 1176.62,-243.36 1171.58,-242.87 1166.59,-242.22 1161.65,-241.44 1156.77,-240.51 1151.96,-239.46 1147.24,-238.29 1142.62,-237 1138.1,-235.6 1133.69,-234.1 1129.41,-232.5 1125.27,-230.82 1121.26,-229.07 1117.4,-227.24 1113.71,-225.35 1110.18,-223.41 1106.82,-221.42 1103.65,-219.39 1100.67,-217.33 1097.88,-215.25 1095.3,-213.14 1092.93,-211.02 1090.78,-208.9 1088.86,-206.78 1087.16,-204.65 1085.7,-202.54 1084.48,-200.44 1083.51,-198.36 1082.78,-196.29 1082.31,-194.25 1082.1,-192.23 1082.14,-190.25 1082.45,-188.29 1083.02,-186.36 1083.86,-184.47 1084.97,-182.62 1086.34,-180.8 1087.97,-179.01 1089.87,-177.27 1092.03,-175.57 1094.45,-173.91 1097.12,-172.29 1100.04,-170.71 1103.2,-169.18 1106.6,-167.69 1110.22,-166.25 1114.07,-164.86 1118.13,-163.52 1122.39,-162.24 1126.85,-161.01 1131.48,-159.83 1136.28,-158.72 1141.23,-157.67 1146.33,-156.69 1151.55,-155.78 1156.88,-154.94 1162.3,-154.19 1167.8,-153.51 1173.37,-152.92 1178.97,-152.42 1184.61,-152.01 1190.25,-151.71 1195.89,-151.5 1201.49,-151.41 1207.06,-151.42 1212.55,-151.55 1217.97,-151.8 1223.29,-152.17 1228.49,-152.66 1233.56,-153.28 1238.48,-154.02 1243.24,-154.9 1247.81,-155.9 1252.18,-157.04 1256.35,-158.31 1260.29,-159.7 1263.99,-161.23 1267.45,-162.88 1270.65,-164.65 1273.58,-166.55 1276.23,-168.55 1278.6,-170.67 1280.68,-172.89 1282.46,-175.21 1283.94,-177.62 1285.11,-180.11 1285.98,-182.67 1286.55,-185.3 1286.81,-187.99 1286.76,-190.72 1286.41,-193.49 1285.75,-196.28 1284.81,-199.08 1283.57,-201.89 1282.05,-204.69 1280.25,-207.47 1278.18,-210.22 1275.85,-212.92"/>
<text text-anchor="middle" x="1182.43" y="-191.47" font-family="sans-serif" font-size="16.00">VbplContext</text>
</g>
<!-- VbplContext&#45;&gt;ChatbotAndVoiceContext -->
<g id="edge12" class="edge">
<title>VbplContext&#45;&gt;ChatbotAndVoiceContext</title>
<path fill="none" stroke="black" stroke-width="2" d="M1116.65,-163.91C1101.37,-157.61 1085.01,-151.45 1069.43,-146.7 936.62,-106.18 780.65,-80.99 666.76,-66.49"/>
<text text-anchor="middle" x="1069.93" y="-119.1" font-family="sans-serif" font-size="12.00"> &#160;&#160;&#160;&#160;&#160;&#160;&#160;&#160;&#160;&#160;&#160;&#160;&#160;&#160;&#160;&#160;&#160;&#160;&#160;&#160;&#160;&#160;&#160;&#160;&#160;&#160;&#160;&#160;&#160;&#160;&#160;&#160;&#160;&#160;&#160;&#160;&#160;&#160;&#160;</text>
<polygon fill="white" stroke="transparent" points="643.76,-56.49 643.76,-75.49 659.76,-75.49 659.76,-56.49 643.76,-56.49"/>
<polyline fill="none" stroke="black" points="659.76,-56.49 659.76,-75.49 "/>
<text text-anchor="start" x="646.76" y="-62.89" font-family="sans-serif" font-size="12.00">D</text>
<polygon fill="white" stroke="transparent" points="659.76,-56.49 659.76,-75.49 689.76,-75.49 689.76,-56.49 659.76,-56.49"/>
<polygon fill="none" stroke="black" points="659.76,-56.49 659.76,-75.49 689.76,-75.49 689.76,-56.49 659.76,-56.49"/>
<text text-anchor="start" x="662.76" y="-62.89" font-family="sans-serif" font-size="12.00">ACL</text>
<polygon fill="white" stroke="transparent" points="1109.65,-154.91 1109.65,-171.91 1123.65,-171.91 1123.65,-154.91 1109.65,-154.91"/>
<text text-anchor="start" x="1111.65" y="-160.31" font-family="sans-serif" font-size="12.00">U</text>
</g>
</g>
</svg>
